G04 Generated by Ultiboard 13.0 *
%FSLAX34Y34*%
%MOMM*%

%ADD10C,0.0001*%
%ADD11C,0.0933*%
%ADD12C,0.1500*%
%ADD13C,0.0010*%


G04 ColorRGB CCFFCC for the following layer *
%LNSilkscreen Top*%
%LPD*%
G54D10*
G54D11*
X271196Y531800D02*
X274182Y521800D01*
X277169Y531800D01*
X280156Y525800D02*
X286129Y525800D01*
X283142Y529800D02*
X283142Y521800D01*
X300178Y485000D02*
X302169Y485000D01*
X302169Y482000D01*
X300178Y480000D01*
X298187Y480000D01*
X296196Y482000D01*
X296196Y488000D01*
X298187Y490000D01*
X302169Y490000D01*
X305156Y480000D02*
X305156Y490000D01*
X311129Y480000D01*
X311129Y490000D01*
X314116Y480000D02*
X318098Y480000D01*
X320089Y482000D01*
X320089Y488000D01*
X318098Y490000D01*
X314116Y490000D01*
X315111Y490000D02*
X315111Y480000D01*
G54D12*
X220485Y402035D02*
X220485Y440088D01*
X220485Y402035D02*
X258538Y402035D01*
X601015Y402035D02*
X562962Y402035D01*
X601015Y402035D02*
X601015Y440088D01*
X601015Y782565D02*
X601015Y744512D01*
X601015Y782565D02*
X562962Y782565D01*
X220485Y782565D02*
X258538Y782565D01*
X220485Y782565D02*
X220485Y744512D01*
X170485Y402035D02*
X70485Y402035D01*
X120485Y352035D02*
X120485Y452035D01*
X82985Y402035D02*
G75*
D01*
G02X82985Y402035I37500J0*
G01*
X651015Y402035D02*
X751015Y402035D01*
X701015Y352035D02*
X701015Y452035D01*
X663515Y402035D02*
G75*
D01*
G02X663515Y402035I37500J0*
G01*
X688515Y402035D02*
G75*
D01*
G02X688515Y402035I12500J0*
G01*
X170485Y782565D02*
X70485Y782565D01*
X120485Y732565D02*
X120485Y832565D01*
X82985Y782565D02*
G75*
D01*
G02X82985Y782565I37500J0*
G01*
X95485Y782565D02*
G75*
D01*
G02X95485Y782565I25000J0*
G01*
X107985Y782565D02*
G75*
D01*
G02X107985Y782565I12500J0*
G01*
X220485Y402035D02*
X220485Y440088D01*
X220485Y402035D02*
X258538Y402035D01*
X601015Y402035D02*
X562962Y402035D01*
X601015Y402035D02*
X601015Y440088D01*
X601015Y782565D02*
X601015Y744512D01*
X601015Y782565D02*
X562962Y782565D01*
X220485Y782565D02*
X258538Y782565D01*
X220485Y782565D02*
X220485Y744512D01*
X170485Y402035D02*
X70485Y402035D01*
X120485Y352035D02*
X120485Y452035D01*
X82985Y402035D02*
G75*
D01*
G02X82985Y402035I37500J0*
G01*
X651015Y402035D02*
X751015Y402035D01*
X701015Y352035D02*
X701015Y452035D01*
X663515Y402035D02*
G75*
D01*
G02X663515Y402035I37500J0*
G01*
X688515Y402035D02*
G75*
D01*
G02X688515Y402035I12500J0*
G01*
X170485Y782565D02*
X70485Y782565D01*
X120485Y732565D02*
X120485Y832565D01*
X82985Y782565D02*
G75*
D01*
G02X82985Y782565I37500J0*
G01*
X95485Y782565D02*
G75*
D01*
G02X95485Y782565I25000J0*
G01*
X107985Y782565D02*
G75*
D01*
G02X107985Y782565I12500J0*
G01*
G54D13*
X224255Y592300D02*
G75*
D01*
G02X224255Y592300I186495J0*
G01*

M02*
