G04 Generated by Ultiboard 13.0 *
%FSLAX34Y34*%
%MOMM*%

%ADD10C,0.0001*%
%ADD11C,0.1500*%
%ADD12C,0.0010*%
%ADD13R,5.4000X5.4000*%
%ADD14C,1.2000*%
%ADD15C,2.5000*%


G04 ColorRGB 9900CC for the following layer *
%LNSolder Mask Bottom*%
%LPD*%
G54D10*
G54D11*
X220485Y402035D02*
X220485Y440088D01*
X220485Y402035D02*
X258538Y402035D01*
X601015Y402035D02*
X562962Y402035D01*
X601015Y402035D02*
X601015Y440088D01*
X601015Y782565D02*
X601015Y744512D01*
X601015Y782565D02*
X562962Y782565D01*
X220485Y782565D02*
X258538Y782565D01*
X220485Y782565D02*
X220485Y744512D01*
X170485Y402035D02*
X70485Y402035D01*
X120485Y352035D02*
X120485Y452035D01*
X82985Y402035D02*
G75*
D01*
G02X82985Y402035I37500J0*
G01*
X651015Y402035D02*
X751015Y402035D01*
X701015Y352035D02*
X701015Y452035D01*
X663515Y402035D02*
G75*
D01*
G02X663515Y402035I37500J0*
G01*
X688515Y402035D02*
G75*
D01*
G02X688515Y402035I12500J0*
G01*
X170485Y782565D02*
X70485Y782565D01*
X120485Y732565D02*
X120485Y832565D01*
X82985Y782565D02*
G75*
D01*
G02X82985Y782565I37500J0*
G01*
X95485Y782565D02*
G75*
D01*
G02X95485Y782565I25000J0*
G01*
X107985Y782565D02*
G75*
D01*
G02X107985Y782565I12500J0*
G01*
X220485Y402035D02*
X220485Y440088D01*
X220485Y402035D02*
X258538Y402035D01*
X601015Y402035D02*
X562962Y402035D01*
X601015Y402035D02*
X601015Y440088D01*
X601015Y782565D02*
X601015Y744512D01*
X601015Y782565D02*
X562962Y782565D01*
X220485Y782565D02*
X258538Y782565D01*
X220485Y782565D02*
X220485Y744512D01*
X170485Y402035D02*
X70485Y402035D01*
X120485Y352035D02*
X120485Y452035D01*
X82985Y402035D02*
G75*
D01*
G02X82985Y402035I37500J0*
G01*
X651015Y402035D02*
X751015Y402035D01*
X701015Y352035D02*
X701015Y452035D01*
X663515Y402035D02*
G75*
D01*
G02X663515Y402035I37500J0*
G01*
X688515Y402035D02*
G75*
D01*
G02X688515Y402035I12500J0*
G01*
X170485Y782565D02*
X70485Y782565D01*
X120485Y732565D02*
X120485Y832565D01*
X82985Y782565D02*
G75*
D01*
G02X82985Y782565I37500J0*
G01*
X95485Y782565D02*
G75*
D01*
G02X95485Y782565I25000J0*
G01*
X107985Y782565D02*
G75*
D01*
G02X107985Y782565I12500J0*
G01*
G54D12*
X224255Y592300D02*
G75*
D01*
G02X224255Y592300I186495J0*
G01*
G54D13*
X409800Y744700D03*
X409800Y439700D03*
G54D14*
X409000Y599000D03*
G54D15*
X279500Y495200D03*
X255200Y538700D03*

M02*
