G04 Generated by Ultiboard 13.0 *
%FSLAX34Y34*%
%MOMM*%

%ADD10C,0.0001*%
%ADD11C,0.2540*%
%ADD12C,0.1500*%
%ADD13C,0.0010*%
%ADD14R,5.4000X5.4000*%
%ADD15C,1.2000*%
%ADD16C,2.5000*%


G04 ColorRGB 0000FF for the following layer *
%LNCopper Bottom*%
%LPD*%
G54D10*
G36*
X485644Y760018D02*
G75*
D01*
G02X460269Y769180I-19944J-15516*
G01*
G74*
D01*
G03X439780Y773672I49516J176880*
G01*
G74*
D01*
G02X440373Y771700I2980J1971*
G01*
X440373Y771700D01*
X440373Y717700D01*
G75*
D01*
G02X436800Y714127I-3573J0*
G01*
X436800Y714127D01*
X382800Y714127D01*
G75*
D01*
G02X379227Y717700I0J3573*
G01*
X379227Y717700D01*
X379227Y771700D01*
G74*
D01*
G02X379617Y773323I3573J0*
G01*
G75*
D01*
G03X334439Y425222I31132J-181023*
G01*
G75*
D01*
G02X379227Y450887I19964J17074*
G01*
X379227Y450887D01*
X379227Y466700D01*
G75*
D01*
G02X382800Y470273I3573J0*
G01*
X382800Y470273D01*
X436800Y470273D01*
G74*
D01*
G02X440373Y466700I0J3573*
G01*
X440373Y466700D01*
X440373Y412700D01*
G75*
D01*
G02X439915Y410950I-3573J0*
G01*
G75*
D01*
G03X485644Y760018I-29164J181350*
G01*
D02*
G37*
%LPC*%
G36*
X264487Y500894D02*
G74*
D01*
G02X273806Y510213I15013J5694*
G01*
X273806Y510213D01*
X273806Y500894D01*
X264487Y500894D01*
D02*
G37*
G36*
X285194Y510213D02*
G74*
D01*
G02X294513Y500894I5694J15013*
G01*
X294513Y500894D01*
X285194Y500894D01*
X285194Y510213D01*
D02*
G37*
G36*
X294513Y489506D02*
G74*
D01*
G02X285194Y480187I15013J5694*
G01*
X285194Y480187D01*
X285194Y489506D01*
X294513Y489506D01*
D02*
G37*
G36*
X273806Y480187D02*
G74*
D01*
G02X264487Y489506I5694J15013*
G01*
X264487Y489506D01*
X273806Y489506D01*
X273806Y480187D01*
D02*
G37*
G36*
X275000Y495200D02*
G75*
D01*
G02X275000Y495200I4500J0*
G01*
D02*
G37*
G36*
X239144Y538700D02*
G75*
D01*
G02X239144Y538700I16056J0*
G01*
D02*
G37*
G36*
X400800Y602110D02*
G74*
D01*
G02X405890Y607200I8199J3109*
G01*
X405890Y607200D01*
X405890Y602110D01*
X400800Y602110D01*
D02*
G37*
G36*
X412110Y607200D02*
G74*
D01*
G02X417200Y602110I3109J8199*
G01*
X417200Y602110D01*
X412110Y602110D01*
X412110Y607200D01*
D02*
G37*
G36*
X417200Y595890D02*
G74*
D01*
G02X412110Y590800I8199J3109*
G01*
X412110Y590800D01*
X412110Y595890D01*
X417200Y595890D01*
D02*
G37*
G36*
X405890Y590800D02*
G74*
D01*
G02X400800Y595890I3109J8199*
G01*
X400800Y595890D01*
X405890Y595890D01*
X405890Y590800D01*
D02*
G37*
G36*
X407500Y599000D02*
G75*
D01*
G02X407500Y599000I1500J0*
G01*
D02*
G37*
%LPD*%
G36*
X379227Y433713D02*
X379227Y433713D01*
X379227Y412700D01*
G75*
D01*
G03X379515Y411295I3573J0*
G01*
G74*
D01*
G02X358179Y416303I31230J181006*
G01*
G74*
D01*
G03X379227Y433713I3779J25997*
G01*
D02*
G37*
G36*
X426854Y775273D02*
X426854Y775273D01*
X394646Y775273D01*
G75*
D01*
G02X426854Y775273I16104J-182973*
G01*
D02*
G37*
G36*
X424393Y409127D02*
X424393Y409127D01*
X397107Y409127D01*
G75*
D01*
G03X424393Y409127I13643J183173*
G01*
D02*
G37*
G54D11*
X264487Y500894D02*
G74*
D01*
G02X273806Y510213I15013J5694*
G01*
X273806Y500894D01*
X264487Y500894D01*
X285194Y510213D02*
G74*
D01*
G02X294513Y500894I5694J15013*
G01*
X285194Y500894D01*
X285194Y510213D01*
X294513Y489506D02*
G74*
D01*
G02X285194Y480187I15013J5694*
G01*
X285194Y489506D01*
X294513Y489506D01*
X273806Y480187D02*
G74*
D01*
G02X264487Y489506I5694J15013*
G01*
X273806Y489506D01*
X273806Y480187D01*
X275000Y495200D02*
G75*
D01*
G02X275000Y495200I4500J0*
G01*
X239144Y538700D02*
G75*
D01*
G02X239144Y538700I16056J0*
G01*
X400800Y602110D02*
G74*
D01*
G02X405890Y607200I8199J3109*
G01*
X405890Y602110D01*
X400800Y602110D01*
X412110Y607200D02*
G74*
D01*
G02X417200Y602110I3109J8199*
G01*
X412110Y602110D01*
X412110Y607200D01*
X417200Y595890D02*
G74*
D01*
G02X412110Y590800I8199J3109*
G01*
X412110Y595890D01*
X417200Y595890D01*
X405890Y590800D02*
G74*
D01*
G02X400800Y595890I3109J8199*
G01*
X405890Y595890D01*
X405890Y590800D01*
X407500Y599000D02*
G75*
D01*
G02X407500Y599000I1500J0*
G01*
X485644Y760018D02*
G75*
D01*
G02X460269Y769180I-19944J-15516*
G01*
G74*
D01*
G03X439780Y773672I49516J176880*
G01*
G74*
D01*
G02X440373Y771700I2980J1971*
G01*
X440373Y717700D01*
G75*
D01*
G02X436800Y714127I-3573J0*
G01*
X382800Y714127D01*
G75*
D01*
G02X379227Y717700I0J3573*
G01*
X379227Y771700D01*
G74*
D01*
G02X379617Y773323I3573J0*
G01*
G75*
D01*
G03X334439Y425222I31132J-181023*
G01*
G75*
D01*
G02X379227Y450887I19964J17074*
G01*
X379227Y466700D01*
G75*
D01*
G02X382800Y470273I3573J0*
G01*
X436800Y470273D01*
G74*
D01*
G02X440373Y466700I0J3573*
G01*
X440373Y412700D01*
G75*
D01*
G02X439915Y410950I-3573J0*
G01*
G75*
D01*
G03X485644Y760018I-29164J181350*
G01*
X426854Y775273D02*
X394646Y775273D01*
G75*
D01*
G02X426854Y775273I16104J-182973*
G01*
X379227Y433713D02*
X379227Y412700D01*
G75*
D01*
G03X379515Y411295I3573J0*
G01*
G74*
D01*
G02X358179Y416303I31230J181006*
G01*
G74*
D01*
G03X379227Y433713I3779J25997*
G01*
X424393Y409127D02*
X397107Y409127D01*
G75*
D01*
G03X424393Y409127I13643J183173*
G01*
G54D12*
X220485Y402035D02*
X220485Y440088D01*
X220485Y402035D02*
X258538Y402035D01*
X601015Y402035D02*
X562962Y402035D01*
X601015Y402035D02*
X601015Y440088D01*
X601015Y782565D02*
X601015Y744512D01*
X601015Y782565D02*
X562962Y782565D01*
X220485Y782565D02*
X258538Y782565D01*
X220485Y782565D02*
X220485Y744512D01*
X170485Y402035D02*
X70485Y402035D01*
X120485Y352035D02*
X120485Y452035D01*
X82985Y402035D02*
G75*
D01*
G02X82985Y402035I37500J0*
G01*
X651015Y402035D02*
X751015Y402035D01*
X701015Y352035D02*
X701015Y452035D01*
X663515Y402035D02*
G75*
D01*
G02X663515Y402035I37500J0*
G01*
X688515Y402035D02*
G75*
D01*
G02X688515Y402035I12500J0*
G01*
X170485Y782565D02*
X70485Y782565D01*
X120485Y732565D02*
X120485Y832565D01*
X82985Y782565D02*
G75*
D01*
G02X82985Y782565I37500J0*
G01*
X95485Y782565D02*
G75*
D01*
G02X95485Y782565I25000J0*
G01*
X107985Y782565D02*
G75*
D01*
G02X107985Y782565I12500J0*
G01*
X220485Y402035D02*
X220485Y440088D01*
X220485Y402035D02*
X258538Y402035D01*
X601015Y402035D02*
X562962Y402035D01*
X601015Y402035D02*
X601015Y440088D01*
X601015Y782565D02*
X601015Y744512D01*
X601015Y782565D02*
X562962Y782565D01*
X220485Y782565D02*
X258538Y782565D01*
X220485Y782565D02*
X220485Y744512D01*
X170485Y402035D02*
X70485Y402035D01*
X120485Y352035D02*
X120485Y452035D01*
X82985Y402035D02*
G75*
D01*
G02X82985Y402035I37500J0*
G01*
X651015Y402035D02*
X751015Y402035D01*
X701015Y352035D02*
X701015Y452035D01*
X663515Y402035D02*
G75*
D01*
G02X663515Y402035I37500J0*
G01*
X688515Y402035D02*
G75*
D01*
G02X688515Y402035I12500J0*
G01*
X170485Y782565D02*
X70485Y782565D01*
X120485Y732565D02*
X120485Y832565D01*
X82985Y782565D02*
G75*
D01*
G02X82985Y782565I37500J0*
G01*
X95485Y782565D02*
G75*
D01*
G02X95485Y782565I25000J0*
G01*
X107985Y782565D02*
G75*
D01*
G02X107985Y782565I12500J0*
G01*
G54D13*
X224255Y592300D02*
G75*
D01*
G02X224255Y592300I186495J0*
G01*
G54D14*
X409800Y744700D03*
X409800Y439700D03*
G54D15*
X409000Y599000D03*
G54D16*
X279500Y495200D03*
X255200Y538700D03*

M02*
