G04 Generated by Ultiboard 13.0 *
%FSLAX34Y34*%
%MOMM*%

%ADD11C,0.0100*%
%ADD12C,0.1000*%
%ADD13C,0.0010*%
%ADD14C,0.1500*%


G04 ColorRGB 000000 for the following layer *
%LNDrill Symbols-Copper Top-Copper Bottom*%
%LPD*%
G54D11*
X-178000Y-500000D02*
X-172000Y-500000D01*
X-175000Y-503000D02*
X-175000Y-497000D01*
X-177121Y-452121D02*
X-172879Y-447879D01*
X-177121Y-447879D02*
X-172879Y-452121D01*
X1004005Y-537210D02*
X1010005Y-537210D01*
X1007005Y-540210D02*
X1007005Y-534210D01*
X1004884Y-576089D02*
X1009126Y-580331D01*
X1004884Y-580331D02*
X1009126Y-576089D01*
G54D12*
X1410672Y-569639D02*
X1417338Y-565353D01*
X1417338Y-586781D01*
X1407338Y-586781D02*
X1427338Y-586781D01*
X1410672Y-528639D02*
X1417338Y-524353D01*
X1417338Y-545781D01*
X1407338Y-545781D02*
X1427338Y-545781D01*
X1598338Y-545781D02*
X1598338Y-524353D01*
X1611672Y-524353D01*
X1618338Y-528639D01*
X1618338Y-530781D01*
X1611672Y-535067D01*
X1598338Y-535067D01*
X1638338Y-545781D02*
X1638338Y-524353D01*
X1628338Y-524353D02*
X1648338Y-524353D01*
X1658338Y-545781D02*
X1658338Y-524353D01*
X1678338Y-545781D02*
X1678338Y-524353D01*
X1658338Y-535067D02*
X1678338Y-535067D01*
X1583338Y-586781D02*
X1583338Y-565353D01*
X1603338Y-586781D01*
X1603338Y-565353D01*
X1613338Y-586781D02*
X1613338Y-565353D01*
X1626672Y-565353D01*
X1633338Y-569639D01*
X1633338Y-571781D01*
X1626672Y-576067D01*
X1613338Y-576067D01*
X1653338Y-586781D02*
X1653338Y-565353D01*
X1643338Y-565353D02*
X1663338Y-565353D01*
X1673338Y-586781D02*
X1673338Y-565353D01*
X1693338Y-586781D02*
X1693338Y-565353D01*
X1673338Y-576067D02*
X1693338Y-576067D01*
X1111338Y-528639D02*
X1118005Y-524353D01*
X1124672Y-524353D01*
X1131338Y-528639D01*
X1131338Y-541496D01*
X1124672Y-545781D01*
X1118005Y-545781D01*
X1111338Y-541496D01*
X1111338Y-528639D01*
X1131338Y-528639D02*
X1111338Y-541496D01*
X1151338Y-545781D02*
X1151338Y-543639D01*
X1188005Y-524353D02*
X1178005Y-524353D01*
X1171338Y-528639D01*
X1171338Y-537210D01*
X1171338Y-541496D01*
X1178005Y-545781D01*
X1184672Y-545781D01*
X1191338Y-541496D01*
X1191338Y-537210D01*
X1184672Y-532924D01*
X1178005Y-532924D01*
X1171338Y-537210D01*
X1201338Y-528639D02*
X1208005Y-524353D01*
X1214672Y-524353D01*
X1221338Y-528639D01*
X1221338Y-541496D01*
X1214672Y-545781D01*
X1208005Y-545781D01*
X1201338Y-541496D01*
X1201338Y-528639D01*
X1221338Y-528639D02*
X1201338Y-541496D01*
X1231338Y-528639D02*
X1238005Y-524353D01*
X1244672Y-524353D01*
X1251338Y-528639D01*
X1251338Y-541496D01*
X1244672Y-545781D01*
X1238005Y-545781D01*
X1231338Y-541496D01*
X1231338Y-528639D01*
X1251338Y-528639D02*
X1231338Y-541496D01*
X1261338Y-528639D02*
X1268005Y-524353D01*
X1274672Y-524353D01*
X1281338Y-528639D01*
X1281338Y-541496D01*
X1274672Y-545781D01*
X1268005Y-545781D01*
X1261338Y-541496D01*
X1261338Y-528639D01*
X1281338Y-528639D02*
X1261338Y-541496D01*
X1111338Y-569639D02*
X1118005Y-565353D01*
X1124672Y-565353D01*
X1131338Y-569639D01*
X1131338Y-582496D01*
X1124672Y-586781D01*
X1118005Y-586781D01*
X1111338Y-582496D01*
X1111338Y-569639D01*
X1131338Y-569639D02*
X1111338Y-582496D01*
X1151338Y-586781D02*
X1151338Y-584639D01*
X1188005Y-565353D02*
X1178005Y-565353D01*
X1171338Y-569639D01*
X1171338Y-578210D01*
X1171338Y-582496D01*
X1178005Y-586781D01*
X1184672Y-586781D01*
X1191338Y-582496D01*
X1191338Y-578210D01*
X1184672Y-573924D01*
X1178005Y-573924D01*
X1171338Y-578210D01*
X1201338Y-569639D02*
X1208005Y-565353D01*
X1214672Y-565353D01*
X1221338Y-569639D01*
X1221338Y-582496D01*
X1214672Y-586781D01*
X1208005Y-586781D01*
X1201338Y-582496D01*
X1201338Y-569639D01*
X1221338Y-569639D02*
X1201338Y-582496D01*
X1231338Y-569639D02*
X1238005Y-565353D01*
X1244672Y-565353D01*
X1251338Y-569639D01*
X1251338Y-582496D01*
X1244672Y-586781D01*
X1238005Y-586781D01*
X1231338Y-582496D01*
X1231338Y-569639D01*
X1251338Y-569639D02*
X1231338Y-582496D01*
X1261338Y-569639D02*
X1268005Y-565353D01*
X1274672Y-565353D01*
X1281338Y-569639D01*
X1281338Y-582496D01*
X1274672Y-586781D01*
X1268005Y-586781D01*
X1261338Y-582496D01*
X1261338Y-569639D01*
X1281338Y-569639D02*
X1261338Y-582496D01*
X1774338Y-528639D02*
X1781005Y-524353D01*
X1787672Y-524353D01*
X1794338Y-528639D01*
X1794338Y-541496D01*
X1787672Y-545781D01*
X1781005Y-545781D01*
X1774338Y-541496D01*
X1774338Y-528639D01*
X1794338Y-528639D02*
X1774338Y-541496D01*
X1851005Y-545781D02*
X1847672Y-545781D01*
X1841005Y-541496D01*
X1841005Y-528639D01*
X1847672Y-524353D01*
X1851005Y-524353D01*
X1864338Y-545781D02*
X1864338Y-524353D01*
X1877672Y-524353D01*
X1884338Y-528639D01*
X1884338Y-530781D01*
X1877672Y-535067D01*
X1864338Y-535067D01*
X1867672Y-535067D02*
X1884338Y-545781D01*
X1894338Y-541496D02*
X1901005Y-545781D01*
X1907672Y-545781D01*
X1914338Y-541496D01*
X1914338Y-528639D01*
X1907672Y-524353D01*
X1901005Y-524353D01*
X1894338Y-528639D01*
X1894338Y-541496D01*
X1924338Y-524353D02*
X1924338Y-541496D01*
X1931005Y-545781D01*
X1937672Y-545781D01*
X1944338Y-541496D01*
X1944338Y-524353D01*
X1954338Y-545781D02*
X1954338Y-524353D01*
X1974338Y-545781D01*
X1974338Y-524353D01*
X1984338Y-545781D02*
X1997672Y-545781D01*
X2004338Y-541496D01*
X2004338Y-528639D01*
X1997672Y-524353D01*
X1984338Y-524353D01*
X1987672Y-524353D02*
X1987672Y-545781D01*
X2017672Y-524353D02*
X2021005Y-524353D01*
X2027672Y-528639D01*
X2027672Y-541496D01*
X2021005Y-545781D01*
X2017672Y-545781D01*
X1774338Y-569639D02*
X1781005Y-565353D01*
X1787672Y-565353D01*
X1794338Y-569639D01*
X1794338Y-582496D01*
X1787672Y-586781D01*
X1781005Y-586781D01*
X1774338Y-582496D01*
X1774338Y-569639D01*
X1794338Y-569639D02*
X1774338Y-582496D01*
X1851005Y-586781D02*
X1847672Y-586781D01*
X1841005Y-582496D01*
X1841005Y-569639D01*
X1847672Y-565353D01*
X1851005Y-565353D01*
X1864338Y-586781D02*
X1864338Y-565353D01*
X1877672Y-565353D01*
X1884338Y-569639D01*
X1884338Y-571781D01*
X1877672Y-576067D01*
X1864338Y-576067D01*
X1867672Y-576067D02*
X1884338Y-586781D01*
X1894338Y-582496D02*
X1901005Y-586781D01*
X1907672Y-586781D01*
X1914338Y-582496D01*
X1914338Y-569639D01*
X1907672Y-565353D01*
X1901005Y-565353D01*
X1894338Y-569639D01*
X1894338Y-582496D01*
X1924338Y-565353D02*
X1924338Y-582496D01*
X1931005Y-586781D01*
X1937672Y-586781D01*
X1944338Y-582496D01*
X1944338Y-565353D01*
X1954338Y-586781D02*
X1954338Y-565353D01*
X1974338Y-586781D01*
X1974338Y-565353D01*
X1984338Y-586781D02*
X1997672Y-586781D01*
X2004338Y-582496D01*
X2004338Y-569639D01*
X1997672Y-565353D01*
X1984338Y-565353D01*
X1987672Y-565353D02*
X1987672Y-586781D01*
X2017672Y-565353D02*
X2021005Y-565353D01*
X2027672Y-569639D01*
X2027672Y-582496D01*
X2021005Y-586781D01*
X2017672Y-586781D01*
G04 ColorRGB 00FFFF for the following layer *
%LNBoard Outline*%
%LPD*%
G54D10*
G54D13*
X600000Y-550000D02*
X250000Y-550000D01*
X-100000Y-550000D01*
X-150000Y-550000D01*
X-200000Y-550000D01*
X-100000Y-400000D02*
X600000Y-400000D01*
X-200000Y-400000D02*
X-100000Y-400000D01*
X-200000Y-550000D02*
X-200000Y-400000D01*
X600000Y-400000D02*
X700000Y-475000D01*
X600000Y-550000D01*
G54D14*
X-200000Y-551290D02*
X-200000Y-536032D01*
X-200000Y-551290D02*
X-109350Y-551290D01*
X706505Y-551290D02*
X615855Y-551290D01*
X706505Y-551290D02*
X706505Y-536032D01*
X706505Y-398710D02*
X706505Y-413968D01*
X706505Y-398710D02*
X615855Y-398710D01*
X-200000Y-398710D02*
X-109350Y-398710D01*
X-200000Y-398710D02*
X-200000Y-413968D01*
X-250000Y-551290D02*
X-350000Y-551290D01*
X-300000Y-601290D02*
X-300000Y-501290D01*
X-337500Y-551290D02*
G75*
D01*
G02X-337500Y-551290I37500J0*
G01*
X756505Y-551290D02*
X856505Y-551290D01*
X806505Y-601290D02*
X806505Y-501290D01*
X769005Y-551290D02*
G75*
D01*
G02X769005Y-551290I37500J0*
G01*
X794005Y-551290D02*
G75*
D01*
G02X794005Y-551290I12500J0*
G01*
X-250000Y-398710D02*
X-350000Y-398710D01*
X-300000Y-448710D02*
X-300000Y-348710D01*
X-337500Y-398710D02*
G75*
D01*
G02X-337500Y-398710I37500J0*
G01*
X-325000Y-398710D02*
G75*
D01*
G02X-325000Y-398710I25000J0*
G01*
X-312500Y-398710D02*
G75*
D01*
G02X-312500Y-398710I12500J0*
G01*
G04 ColorRGB 66FFCC for the following layer *
%LNLegend Description*%
%LPD*%
G54D12*
X911505Y-598710D02*
X2076505Y-598710D01*
X2076505Y-393710D01*
X911505Y-393710D01*
X911505Y-598710D01*
X1102505Y-475710D02*
X1102505Y-598710D01*
X1293505Y-475710D02*
X1293505Y-598710D01*
X1544505Y-475710D02*
X1544505Y-598710D01*
X1735505Y-475710D02*
X1735505Y-598710D01*
X2076505Y-475710D02*
X2076505Y-598710D01*
X911505Y-557710D02*
X2076505Y-557710D01*
X920338Y-500496D02*
X927005Y-504781D01*
X933672Y-504781D01*
X940338Y-500496D01*
X920338Y-487639D01*
X927005Y-483353D01*
X933672Y-483353D01*
X940338Y-487639D01*
X950338Y-511210D02*
X953672Y-511210D01*
X970338Y-489781D01*
X950338Y-489781D02*
X960338Y-502639D01*
X980338Y-504781D02*
X980338Y-491924D01*
X980338Y-489781D01*
X980338Y-491924D02*
X983672Y-489781D01*
X987005Y-489781D01*
X990338Y-491924D01*
X993672Y-489781D01*
X997005Y-489781D01*
X1000338Y-491924D01*
X1000338Y-504781D01*
X990338Y-491924D02*
X990338Y-504781D01*
X1010338Y-500496D02*
X1017005Y-504781D01*
X1023672Y-504781D01*
X1030338Y-500496D01*
X1030338Y-496210D01*
X1023672Y-491924D01*
X1017005Y-491924D01*
X1010338Y-496210D01*
X1010338Y-483353D02*
X1010338Y-504781D01*
X1040338Y-500496D02*
X1047005Y-504781D01*
X1053672Y-504781D01*
X1060338Y-500496D01*
X1060338Y-494067D01*
X1053672Y-489781D01*
X1047005Y-489781D01*
X1040338Y-494067D01*
X1040338Y-500496D01*
X1073672Y-483353D02*
X1073672Y-500496D01*
X1080338Y-504781D01*
X911505Y-516710D02*
X2076505Y-516710D01*
X1141338Y-500496D02*
X1148005Y-504781D01*
X1154672Y-504781D01*
X1161338Y-500496D01*
X1141338Y-487639D01*
X1148005Y-483353D01*
X1154672Y-483353D01*
X1161338Y-487639D01*
X1181338Y-504781D02*
X1181338Y-491924D01*
X1181338Y-487639D02*
X1181338Y-485496D01*
X1201338Y-489781D02*
X1221338Y-489781D01*
X1201338Y-504781D01*
X1221338Y-504781D01*
X1251338Y-500496D02*
X1244672Y-504781D01*
X1238005Y-504781D01*
X1231338Y-500496D01*
X1231338Y-494067D01*
X1238005Y-489781D01*
X1244672Y-489781D01*
X1251338Y-494067D01*
X1248005Y-496210D01*
X1231338Y-496210D01*
X1302338Y-500496D02*
X1309005Y-504781D01*
X1315672Y-504781D01*
X1322338Y-500496D01*
X1322338Y-487639D01*
X1315672Y-483353D01*
X1309005Y-483353D01*
X1302338Y-487639D01*
X1302338Y-500496D01*
X1315672Y-500496D02*
X1322338Y-504781D01*
X1332338Y-489781D02*
X1332338Y-500496D01*
X1339005Y-504781D01*
X1345672Y-504781D01*
X1352338Y-500496D01*
X1352338Y-489781D01*
X1352338Y-500496D02*
X1352338Y-504781D01*
X1365672Y-489781D02*
X1375672Y-489781D01*
X1379005Y-491924D01*
X1379005Y-502639D01*
X1375672Y-504781D01*
X1365672Y-504781D01*
X1362338Y-502639D01*
X1362338Y-498353D01*
X1365672Y-496210D01*
X1379005Y-496210D01*
X1379005Y-502639D02*
X1382338Y-504781D01*
X1392338Y-504781D02*
X1392338Y-491924D01*
X1392338Y-489781D01*
X1392338Y-491924D02*
X1395672Y-489781D01*
X1402338Y-489781D01*
X1405672Y-491924D01*
X1405672Y-504781D01*
X1439005Y-502639D02*
X1435672Y-504781D01*
X1432338Y-502639D01*
X1432338Y-483353D01*
X1425672Y-489781D02*
X1439005Y-489781D01*
X1462338Y-504781D02*
X1462338Y-491924D01*
X1462338Y-487639D02*
X1462338Y-485496D01*
X1499005Y-502639D02*
X1495672Y-504781D01*
X1492338Y-502639D01*
X1492338Y-483353D01*
X1485672Y-489781D02*
X1499005Y-489781D01*
X1512338Y-511210D02*
X1515672Y-511210D01*
X1532338Y-489781D01*
X1512338Y-489781D02*
X1522338Y-502639D01*
X1553338Y-504781D02*
X1553338Y-483353D01*
X1566672Y-483353D01*
X1573338Y-487639D01*
X1573338Y-489781D01*
X1566672Y-494067D01*
X1553338Y-494067D01*
X1586672Y-483353D02*
X1586672Y-500496D01*
X1593338Y-504781D01*
X1616672Y-489781D02*
X1626672Y-489781D01*
X1630005Y-491924D01*
X1630005Y-502639D01*
X1626672Y-504781D01*
X1616672Y-504781D01*
X1613338Y-502639D01*
X1613338Y-498353D01*
X1616672Y-496210D01*
X1630005Y-496210D01*
X1630005Y-502639D02*
X1633338Y-504781D01*
X1660005Y-502639D02*
X1656672Y-504781D01*
X1653338Y-502639D01*
X1653338Y-483353D01*
X1646672Y-489781D02*
X1660005Y-489781D01*
X1693338Y-500496D02*
X1686672Y-504781D01*
X1680005Y-504781D01*
X1673338Y-500496D01*
X1673338Y-494067D01*
X1680005Y-489781D01*
X1686672Y-489781D01*
X1693338Y-494067D01*
X1690005Y-496210D01*
X1673338Y-496210D01*
X1723338Y-500496D02*
X1716672Y-504781D01*
X1710005Y-504781D01*
X1703338Y-500496D01*
X1703338Y-496210D01*
X1710005Y-491924D01*
X1716672Y-491924D01*
X1723338Y-496210D01*
X1723338Y-483353D02*
X1723338Y-504781D01*
X1744338Y-500496D02*
X1751005Y-504781D01*
X1757672Y-504781D01*
X1764338Y-500496D01*
X1744338Y-487639D01*
X1751005Y-483353D01*
X1757672Y-483353D01*
X1764338Y-487639D01*
X1777672Y-483353D02*
X1777672Y-500496D01*
X1784338Y-504781D01*
X1804338Y-500496D02*
X1811005Y-504781D01*
X1817672Y-504781D01*
X1824338Y-500496D01*
X1824338Y-494067D01*
X1817672Y-489781D01*
X1811005Y-489781D01*
X1804338Y-494067D01*
X1804338Y-500496D01*
X1851005Y-502639D02*
X1847672Y-504781D01*
X1844338Y-502639D01*
X1844338Y-483353D01*
X1837672Y-489781D02*
X1851005Y-489781D01*
X1894338Y-483353D02*
X1894338Y-504781D01*
X1914338Y-504781D01*
X1944338Y-500496D02*
X1937672Y-504781D01*
X1931005Y-504781D01*
X1924338Y-500496D01*
X1924338Y-494067D01*
X1931005Y-489781D01*
X1937672Y-489781D01*
X1944338Y-494067D01*
X1941005Y-496210D01*
X1924338Y-496210D01*
X1954338Y-504781D02*
X1954338Y-491924D01*
X1954338Y-489781D01*
X1954338Y-491924D02*
X1957672Y-489781D01*
X1964338Y-489781D01*
X1967672Y-491924D01*
X1967672Y-504781D01*
X1984338Y-506924D02*
X1991005Y-511210D01*
X1997672Y-511210D01*
X2004338Y-506924D01*
X2004338Y-500496D01*
X2004338Y-494067D01*
X1997672Y-489781D01*
X1991005Y-489781D01*
X1984338Y-494067D01*
X1984338Y-500496D01*
X1991005Y-504781D01*
X1997672Y-504781D01*
X2004338Y-500496D01*
X2031005Y-502639D02*
X2027672Y-504781D01*
X2024338Y-502639D01*
X2024338Y-483353D01*
X2017672Y-489781D02*
X2031005Y-489781D01*
X2044338Y-494067D02*
X2051005Y-489781D01*
X2057672Y-489781D01*
X2064338Y-494067D01*
X2064338Y-504781D01*
X2044338Y-483353D02*
X2044338Y-504781D01*
X911505Y-475710D02*
X2076505Y-475710D01*
X1212338Y-463781D02*
X1212338Y-450924D01*
X1219005Y-442353D01*
X1225672Y-442353D01*
X1232338Y-450924D01*
X1232338Y-463781D01*
X1212338Y-457353D02*
X1232338Y-457353D01*
X1245672Y-442353D02*
X1245672Y-459496D01*
X1252338Y-463781D01*
X1275672Y-442353D02*
X1275672Y-459496D01*
X1282338Y-463781D01*
X1332338Y-448781D02*
X1332338Y-459496D01*
X1339005Y-463781D01*
X1345672Y-463781D01*
X1352338Y-459496D01*
X1352338Y-448781D01*
X1352338Y-459496D02*
X1352338Y-463781D01*
X1362338Y-463781D02*
X1362338Y-450924D01*
X1362338Y-448781D01*
X1362338Y-450924D02*
X1365672Y-448781D01*
X1372338Y-448781D01*
X1375672Y-450924D01*
X1375672Y-463781D01*
X1402338Y-463781D02*
X1402338Y-450924D01*
X1402338Y-446639D02*
X1402338Y-444496D01*
X1439005Y-461639D02*
X1435672Y-463781D01*
X1432338Y-461639D01*
X1432338Y-442353D01*
X1425672Y-448781D02*
X1439005Y-448781D01*
X1452338Y-459496D02*
X1459005Y-463781D01*
X1465672Y-463781D01*
X1472338Y-459496D01*
X1452338Y-453067D01*
X1459005Y-448781D01*
X1465672Y-448781D01*
X1472338Y-453067D01*
X1515672Y-448781D02*
X1525672Y-448781D01*
X1529005Y-450924D01*
X1529005Y-461639D01*
X1525672Y-463781D01*
X1515672Y-463781D01*
X1512338Y-461639D01*
X1512338Y-457353D01*
X1515672Y-455210D01*
X1529005Y-455210D01*
X1529005Y-461639D02*
X1532338Y-463781D01*
X1542338Y-455210D02*
X1552338Y-448781D01*
X1555672Y-448781D01*
X1562338Y-453067D01*
X1542338Y-463781D02*
X1542338Y-448781D01*
X1592338Y-459496D02*
X1585672Y-463781D01*
X1579005Y-463781D01*
X1572338Y-459496D01*
X1572338Y-453067D01*
X1579005Y-448781D01*
X1585672Y-448781D01*
X1592338Y-453067D01*
X1589005Y-455210D01*
X1572338Y-455210D01*
X1642338Y-463781D02*
X1642338Y-450924D01*
X1642338Y-446639D02*
X1642338Y-444496D01*
X1662338Y-463781D02*
X1662338Y-450924D01*
X1662338Y-448781D01*
X1662338Y-450924D02*
X1665672Y-448781D01*
X1672338Y-448781D01*
X1675672Y-450924D01*
X1675672Y-463781D01*
X1722338Y-463781D02*
X1722338Y-450924D01*
X1722338Y-448781D01*
X1722338Y-450924D02*
X1725672Y-448781D01*
X1729005Y-448781D01*
X1732338Y-450924D01*
X1735672Y-448781D01*
X1739005Y-448781D01*
X1742338Y-450924D01*
X1742338Y-463781D01*
X1732338Y-450924D02*
X1732338Y-463781D01*
X1752338Y-463781D02*
X1752338Y-450924D01*
X1752338Y-448781D01*
X1752338Y-450924D02*
X1755672Y-448781D01*
X1759005Y-448781D01*
X1762338Y-450924D01*
X1765672Y-448781D01*
X1769005Y-448781D01*
X1772338Y-450924D01*
X1772338Y-463781D01*
X1762338Y-450924D02*
X1762338Y-463781D01*
X911505Y-434710D02*
X2076505Y-434710D01*
X1317338Y-422781D02*
X1330672Y-422781D01*
X1337338Y-418496D01*
X1337338Y-405639D01*
X1330672Y-401353D01*
X1317338Y-401353D01*
X1320672Y-401353D02*
X1320672Y-422781D01*
X1347338Y-414210D02*
X1357338Y-407781D01*
X1360672Y-407781D01*
X1367338Y-412067D01*
X1347338Y-422781D02*
X1347338Y-407781D01*
X1387338Y-422781D02*
X1387338Y-409924D01*
X1387338Y-405639D02*
X1387338Y-403496D01*
X1410672Y-401353D02*
X1410672Y-418496D01*
X1417338Y-422781D01*
X1440672Y-401353D02*
X1440672Y-418496D01*
X1447338Y-422781D01*
X1497338Y-401353D02*
X1497338Y-422781D01*
X1517338Y-422781D01*
X1547338Y-418496D02*
X1540672Y-422781D01*
X1534005Y-422781D01*
X1527338Y-418496D01*
X1527338Y-412067D01*
X1534005Y-407781D01*
X1540672Y-407781D01*
X1547338Y-412067D01*
X1544005Y-414210D01*
X1527338Y-414210D01*
X1557338Y-424924D02*
X1564005Y-429210D01*
X1570672Y-429210D01*
X1577338Y-424924D01*
X1577338Y-418496D01*
X1577338Y-412067D01*
X1570672Y-407781D01*
X1564005Y-407781D01*
X1557338Y-412067D01*
X1557338Y-418496D01*
X1564005Y-422781D01*
X1570672Y-422781D01*
X1577338Y-418496D01*
X1607338Y-418496D02*
X1600672Y-422781D01*
X1594005Y-422781D01*
X1587338Y-418496D01*
X1587338Y-412067D01*
X1594005Y-407781D01*
X1600672Y-407781D01*
X1607338Y-412067D01*
X1604005Y-414210D01*
X1587338Y-414210D01*
X1617338Y-422781D02*
X1617338Y-409924D01*
X1617338Y-407781D01*
X1617338Y-409924D02*
X1620672Y-407781D01*
X1627338Y-407781D01*
X1630672Y-409924D01*
X1630672Y-422781D01*
X1667338Y-418496D02*
X1660672Y-422781D01*
X1654005Y-422781D01*
X1647338Y-418496D01*
X1647338Y-414210D01*
X1654005Y-409924D01*
X1660672Y-409924D01*
X1667338Y-414210D01*
X1667338Y-401353D02*
X1667338Y-422781D01*

M02*
