G04 Generated by Ultiboard 13.0 *
%FSLAX34Y34*%
%MOMM*%

%ADD10C,0.0001*%
%ADD11C,0.0010*%
%ADD12C,0.2540*%
%ADD13C,0.1300*%
%ADD14C,0.7620*%
%ADD15C,0.1500*%
%ADD16R,0.6000X0.6000*%
%ADD17C,0.6000*%
%ADD18R,1.8000X1.0000*%
%ADD19P,0.8485X4*%
%ADD20R,0.9000X0.9000*%
%ADD21P,1.6970X4*%
%ADD22R,1.2000X1.6000*%
%ADD23R,0.6000X2.5400*%
%ADD24R,0.9000X0.3000*%
%ADD25R,0.3000X0.9000*%
%ADD26C,2.5000*%
%ADD27R,0.2500X0.8000*%
%ADD28R,1.0000X2.0000*%
%ADD29C,2.0000*%
%ADD30C,1.2000*%
%ADD31O,0.7000X0.2000*%
%ADD32O,0.2000X0.7000*%
%ADD33R,0.2000X1.2000*%
%ADD34R,1.2000X0.2000*%


G04 ColorRGB 00FF00 for the following layer *
%LNCopper Top*%
%LPD*%
G54D10*
G36*
X436948Y643250D02*
G75*
D01*
G03X436987Y642802I2552J-4*
G01*
X436987Y642802D01*
X434513Y642802D01*
G75*
D01*
G03X434552Y643250I-2513J444*
G01*
X434552Y643250D01*
X434552Y651250D01*
G74*
D01*
G03X434402Y652114I2552J2*
G01*
X434402Y652114D01*
X434402Y653800D01*
G74*
D01*
G03X433954Y653743I97J2549*
G01*
X433954Y653743D01*
X433954Y654954D01*
X430605Y654954D01*
G74*
D01*
G03X431197Y653802I5395J2044*
G01*
X431197Y653802D01*
X429500Y653802D01*
G75*
D01*
G03X426948Y651250I0J-2552*
G01*
X426948Y651250D01*
X426948Y649305D01*
G74*
D01*
G03X426870Y649230I2342J2514*
G01*
X426870Y649230D01*
X425380Y647740D01*
X424867Y647740D01*
G74*
D01*
G03X423000Y648552I1867J1740*
G01*
X423000Y648552D01*
X418260Y648552D01*
X418260Y645448D01*
X423000Y645448D01*
G74*
D01*
G03X423089Y645449I16J2552*
G01*
X423089Y645449D01*
X422192Y644552D01*
X411000Y644552D01*
G75*
D01*
G03X410545Y644511I1J-2552*
G01*
X410545Y644511D01*
X410545Y645489D01*
G75*
D01*
G03X411000Y645448I456J2510*
G01*
X411000Y645448D01*
X415740Y645448D01*
X415740Y648552D01*
X411000Y648552D01*
G75*
D01*
G03X410545Y648511I1J-2552*
G01*
X410545Y648511D01*
X410545Y649489D01*
G75*
D01*
G03X411000Y649448I456J2510*
G01*
X411000Y649448D01*
X423000Y649448D01*
G74*
D01*
G03X424867Y650260I0J2552*
G01*
X424867Y650260D01*
X425539Y650260D01*
G74*
D01*
G03X425348Y651000I2539J261*
G01*
G75*
D01*
G03X425552Y652000I-2348J1000*
G01*
X425552Y652000D01*
X425552Y654000D01*
G74*
D01*
G03X425348Y655000I2552J0*
G01*
G75*
D01*
G03X425552Y656000I-2348J1000*
G01*
X425552Y656000D01*
X425552Y658000D01*
G74*
D01*
G03X423552Y660492I2552J0*
G01*
X423552Y660492D01*
X425125Y662065D01*
G75*
D01*
G03X426137Y664500I-2424J2435*
G01*
X426137Y664500D01*
X426137Y668028D01*
G75*
D01*
G03X428052Y670500I-637J2471*
G01*
X428052Y670500D01*
X428052Y676500D01*
G74*
D01*
G03X427565Y678000I2552J1*
G01*
G75*
D01*
G03X428052Y679500I-2065J1499*
G01*
X428052Y679500D01*
X428052Y680531D01*
X424469Y680531D01*
X424469Y679052D01*
X420531Y679052D01*
X420531Y680531D01*
X416948Y680531D01*
X416948Y679500D01*
G75*
D01*
G03X417435Y678000I2552J-1*
G01*
G74*
D01*
G03X416984Y676926I2065J1499*
G01*
G74*
D01*
G03X415060Y678200I4083J4076*
G01*
X415060Y678200D01*
X415275Y678415D01*
G75*
D01*
G03X416287Y680850I-2424J2435*
G01*
X416287Y680850D01*
X416287Y691587D01*
X420746Y696046D01*
X423954Y696046D01*
X423954Y699395D01*
G74*
D01*
G03X423908Y699378I1977J5420*
G01*
G74*
D01*
G03X424365Y701089I2979J1712*
G01*
X424365Y701089D01*
X424365Y704052D01*
G74*
D01*
G03X424826Y704417I1343J2170*
G01*
X424826Y704417D01*
X426830Y706422D01*
X423728Y709524D01*
X422431Y708227D01*
X416541Y714117D01*
X417838Y715414D01*
X415517Y717736D01*
X421407Y723625D01*
X423728Y721304D01*
X427537Y725114D01*
X426304Y726347D01*
X426774Y726818D01*
X426040Y727552D01*
X429448Y730960D01*
X430182Y730226D01*
X432404Y732448D01*
X431987Y732865D01*
G74*
D01*
G03X430581Y733581I1804J1804*
G01*
G74*
D01*
G03X429865Y734987I2520J398*
G01*
X429865Y734987D01*
X425623Y739229D01*
G75*
D01*
G03X422013Y739229I-1805J-1803*
G01*
X422013Y739229D01*
X419420Y736637D01*
X419200Y736637D01*
G75*
D01*
G03X417955Y736403I1J-3437*
G01*
G74*
D01*
G03X416899Y735752I1245J3202*
G01*
X416899Y735752D01*
X414926Y737725D01*
G75*
D01*
G03X411317Y737725I-1804J-1805*
G01*
X411317Y737725D01*
X401417Y727826D01*
G75*
D01*
G03X401417Y724216I1804J-1805*
G01*
X401417Y724216D01*
X408249Y717384D01*
X408249Y716118D01*
X407971Y716395D01*
X404162Y712586D01*
X406483Y710264D01*
X400593Y704375D01*
X398272Y706696D01*
X394463Y702886D01*
X394696Y702653D01*
X394226Y702182D01*
X394960Y701448D01*
X391552Y698040D01*
X390818Y698774D01*
X388596Y696552D01*
X389013Y696135D01*
G74*
D01*
G03X389263Y695916I1802J1805*
G01*
G74*
D01*
G03X388013Y695229I555J2491*
G01*
X388013Y695229D01*
X387596Y694812D01*
X389818Y692590D01*
X391188Y693960D01*
X394596Y690552D01*
X393226Y689182D01*
X393960Y688448D01*
X390552Y685040D01*
X389818Y685774D01*
X387596Y683552D01*
X388013Y683135D01*
G74*
D01*
G03X389419Y682419I1804J1804*
G01*
G74*
D01*
G03X390135Y681013I2520J398*
G01*
X390135Y681013D01*
X394377Y676771D01*
G74*
D01*
G03X395563Y676099I1805J1803*
G01*
X395563Y676099D01*
X395563Y675552D01*
X394000Y675552D01*
G75*
D01*
G03X393000Y675348I0J-2552*
G01*
G74*
D01*
G03X392000Y675552I1000J2348*
G01*
X392000Y675552D01*
X390000Y675552D01*
G75*
D01*
G03X389000Y675348I0J-2552*
G01*
G74*
D01*
G03X388000Y675552I1000J2348*
G01*
X388000Y675552D01*
X386000Y675552D01*
G75*
D01*
G03X385000Y675348I0J-2552*
G01*
G74*
D01*
G03X384000Y675552I1000J2348*
G01*
X384000Y675552D01*
X382000Y675552D01*
G75*
D01*
G03X381000Y675348I0J-2552*
G01*
G74*
D01*
G03X380000Y675552I1000J2348*
G01*
X380000Y675552D01*
X378437Y675552D01*
X378437Y692469D01*
G74*
D01*
G03X380954Y690605I4563J3530*
G01*
X380954Y690605D01*
X380954Y693954D01*
X378437Y693954D01*
X378437Y698046D01*
X380954Y698046D01*
X380954Y701395D01*
G74*
D01*
G03X378413Y699500I2046J5394*
G01*
G74*
D01*
G03X377425Y701535I3413J400*
G01*
X377425Y701535D01*
X368512Y710448D01*
X370000Y710448D01*
G75*
D01*
G03X372552Y713000I0J2552*
G01*
X372552Y713000D01*
X372552Y719000D01*
G74*
D01*
G03X372065Y720500I2552J1*
G01*
G75*
D01*
G03X372552Y722000I-2065J1499*
G01*
X372552Y722000D01*
X372552Y723031D01*
X368969Y723031D01*
X368969Y721552D01*
X365031Y721552D01*
X365031Y723031D01*
X364828Y723031D01*
X364828Y726969D01*
X365031Y726969D01*
X365031Y730552D01*
X364954Y730552D01*
X364954Y732954D01*
X361605Y732954D01*
G74*
D01*
G03X361679Y732768I5397J2039*
G01*
G74*
D01*
G03X361000Y732828I675J3768*
G01*
X361000Y732828D01*
X349000Y732828D01*
G75*
D01*
G03X345172Y729000I0J-3828*
G01*
X345172Y729000D01*
X345172Y713000D01*
G75*
D01*
G03X345181Y712737I3828J-1*
G01*
X345181Y712737D01*
X336123Y712737D01*
X334828Y714032D01*
X334828Y729000D01*
G74*
D01*
G03X331000Y732828I3828J0*
G01*
X331000Y732828D01*
X319000Y732828D01*
G75*
D01*
G03X318321Y732768I-4J-3828*
G01*
G74*
D01*
G03X318395Y732954I5323J2226*
G01*
X318395Y732954D01*
X315046Y732954D01*
X315046Y730802D01*
X314969Y730802D01*
X314969Y727219D01*
X315172Y727219D01*
X315172Y723281D01*
X314969Y723281D01*
X314969Y721802D01*
X311031Y721802D01*
X311031Y723281D01*
X307448Y723281D01*
X307448Y722250D01*
G75*
D01*
G03X307935Y720750I2552J-1*
G01*
G74*
D01*
G03X307448Y719250I2065J1499*
G01*
X307448Y719250D01*
X307448Y713250D01*
G75*
D01*
G03X310000Y710698I2552J0*
G01*
X310000Y710698D01*
X315941Y710698D01*
G75*
D01*
G03X319000Y709172I3058J2302*
G01*
X319000Y709172D01*
X329968Y709172D01*
X332270Y706870D01*
G74*
D01*
G03X333743Y705999I2430J2429*
G01*
G75*
D01*
G03X334700Y705863I957J3300*
G01*
X334700Y705863D01*
X359396Y705863D01*
X367563Y697696D01*
X367563Y675552D01*
X366000Y675552D01*
G75*
D01*
G03X365000Y675348I0J-2552*
G01*
G74*
D01*
G03X364000Y675552I1000J2348*
G01*
X364000Y675552D01*
X362000Y675552D01*
G75*
D01*
G03X359448Y673000I0J-2552*
G01*
X359448Y673000D01*
X359448Y661000D01*
G75*
D01*
G03X359496Y660504I2552J-3*
G01*
G74*
D01*
G03X359000Y660552I493J2504*
G01*
X359000Y660552D01*
X356307Y660552D01*
G74*
D01*
G03X355325Y662535I3406J452*
G01*
X355325Y662535D01*
X352052Y665808D01*
X352052Y672500D01*
G74*
D01*
G03X350014Y675000I2552J0*
G01*
G75*
D01*
G03X352052Y677500I-514J2500*
G01*
X352052Y677500D01*
X352052Y679499D01*
X347501Y679499D01*
X347501Y675052D01*
X342499Y675052D01*
X342499Y679499D01*
X340201Y679499D01*
G74*
D01*
G03X337046Y682395I5201J2499*
G01*
X337046Y682395D01*
X337046Y679046D01*
X337948Y679046D01*
X337948Y677500D01*
G75*
D01*
G03X339986Y675000I2552J0*
G01*
G74*
D01*
G03X339798Y674954I512J2500*
G01*
X339798Y674954D01*
X337046Y674954D01*
X337046Y672674D01*
G75*
D01*
G03X332954Y671900I-1046J-5673*
G01*
X332954Y671900D01*
X332954Y674954D01*
X330202Y674954D01*
G74*
D01*
G03X330014Y675000I700J2454*
G01*
G75*
D01*
G03X332052Y677500I-514J2500*
G01*
X332052Y677500D01*
X332052Y679046D01*
X332954Y679046D01*
X332954Y682395D01*
G74*
D01*
G03X332052Y681960I2046J5394*
G01*
X332052Y681960D01*
X332052Y686500D01*
G74*
D01*
G03X329500Y689052I2552J0*
G01*
X329500Y689052D01*
X328337Y689052D01*
X328337Y689293D01*
G75*
D01*
G03X321463Y689441I-3337J4706*
G01*
X321463Y689441D01*
X321463Y689052D01*
X320500Y689052D01*
G75*
D01*
G03X317948Y686500I0J-2552*
G01*
X317948Y686500D01*
X317948Y679808D01*
X312170Y674030D01*
G75*
D01*
G03X311163Y671593I2429J-2430*
G01*
X311163Y671593D01*
X311163Y669030D01*
G74*
D01*
G03X308948Y666500I337J2530*
G01*
X308948Y666500D01*
X308948Y660500D01*
G75*
D01*
G03X309435Y659000I2552J-1*
G01*
G74*
D01*
G03X308948Y657500I2065J1499*
G01*
X308948Y657500D01*
X308948Y651500D01*
G75*
D01*
G03X311500Y648948I2552J0*
G01*
X311500Y648948D01*
X317500Y648948D01*
G74*
D01*
G03X319000Y649435I1J2552*
G01*
G75*
D01*
G03X320500Y648948I1499J2065*
G01*
X320500Y648948D01*
X329500Y648948D01*
G74*
D01*
G03X332000Y650986I0J2552*
G01*
G75*
D01*
G03X334500Y648948I2500J514*
G01*
X334500Y648948D01*
X343500Y648948D01*
G74*
D01*
G03X344448Y649130I2J2552*
G01*
X344448Y649130D01*
X344448Y648000D01*
G75*
D01*
G03X344652Y647000I2552J0*
G01*
G74*
D01*
G03X344448Y646000I2348J1000*
G01*
X344448Y646000D01*
X344448Y644000D01*
G75*
D01*
G03X344652Y643000I2552J0*
G01*
G74*
D01*
G03X344448Y642000I2348J1000*
G01*
X344448Y642000D01*
X344448Y640000D01*
G75*
D01*
G03X344652Y639000I2552J0*
G01*
G74*
D01*
G03X344448Y638000I2348J1000*
G01*
X344448Y638000D01*
X344448Y636437D01*
X331423Y636437D01*
X330707Y637153D01*
G75*
D01*
G03X325847Y632293I-5707J847*
G01*
X325847Y632293D01*
X327570Y630570D01*
G75*
D01*
G03X330005Y629563I2430J2429*
G01*
X330005Y629563D01*
X335744Y629563D01*
G75*
D01*
G03X334818Y620824I3254J-4763*
G01*
G74*
D01*
G03X334448Y619500I2182J1323*
G01*
X334448Y619500D01*
X334448Y615908D01*
X331243Y612703D01*
G75*
D01*
G03X331302Y613250I-2493J546*
G01*
X331302Y613250D01*
X331302Y614281D01*
X327719Y614281D01*
X327719Y612802D01*
X323781Y612802D01*
X323781Y614281D01*
X318719Y614281D01*
X318719Y612802D01*
X314781Y612802D01*
X314781Y614281D01*
X312989Y614281D01*
G74*
D01*
G03X310472Y616411I2517J422*
G01*
X310472Y616411D01*
X302024Y616411D01*
X302024Y624859D01*
G74*
D01*
G03X299472Y627411I2552J0*
G01*
X299472Y627411D01*
X297612Y627411D01*
G75*
D01*
G03X287185Y631196I-4671J3388*
G01*
G74*
D01*
G03X286697Y631348I1263J3195*
G01*
G75*
D01*
G03X285918Y631437I-777J-3347*
G01*
X285918Y631437D01*
X277779Y631437D01*
X275237Y633979D01*
G74*
D01*
G03X273712Y634711I1804J1804*
G01*
G74*
D01*
G03X272979Y636237I2537J279*
G01*
X272979Y636237D01*
X268737Y640479D01*
G75*
D01*
G03X265127Y640479I-1805J-1803*
G01*
X265127Y640479D01*
X260885Y636237D01*
G74*
D01*
G03X260169Y634831I1804J1804*
G01*
G74*
D01*
G03X258763Y634115I398J2520*
G01*
X258763Y634115D01*
X254521Y629873D01*
G74*
D01*
G03X253778Y628222I1803J1804*
G01*
G74*
D01*
G03X252770Y627947I153J2546*
G01*
G75*
D01*
G03X247267Y622236I-5770J53*
G01*
G74*
D01*
G03X247169Y621831I2422J800*
G01*
G74*
D01*
G03X245763Y621115I398J2520*
G01*
X245763Y621115D01*
X245346Y620698D01*
X247568Y618476D01*
X248302Y619210D01*
X251710Y615802D01*
X250976Y615068D01*
X254068Y611976D01*
X254802Y612710D01*
X258210Y609302D01*
X257476Y608568D01*
X259698Y606346D01*
X260115Y606763D01*
G74*
D01*
G03X260333Y607012I1806J1801*
G01*
G75*
D01*
G03X268242Y603796I5417J1988*
G01*
X268242Y603796D01*
X268969Y603796D01*
G75*
D01*
G03X270472Y603307I1502J2063*
G01*
X270472Y603307D01*
X278927Y603307D01*
X278927Y601411D01*
X270472Y601411D01*
G75*
D01*
G03X269595Y601256I-1J-2552*
G01*
G74*
D01*
G03X267250Y602802I2345J1005*
G01*
X267250Y602802D01*
X261250Y602802D01*
G75*
D01*
G03X259750Y602315I-1J-2552*
G01*
G74*
D01*
G03X258250Y602802I1499J2065*
G01*
X258250Y602802D01*
X257219Y602802D01*
X257219Y599219D01*
X258698Y599219D01*
X258698Y595281D01*
X257219Y595281D01*
X257219Y592190D01*
G74*
D01*
G03X255677Y589250I2031J2940*
G01*
X255677Y589250D01*
X255677Y588581D01*
X259919Y588581D01*
X259919Y592072D01*
G75*
D01*
G03X261250Y591698I1330J2178*
G01*
X261250Y591698D01*
X264581Y591698D01*
X264581Y588581D01*
X268823Y588581D01*
X268823Y589250D01*
G74*
D01*
G03X267796Y591757I3573J0*
G01*
G74*
D01*
G03X269669Y593436I546J2493*
G01*
G75*
D01*
G03X270472Y593307I801J2423*
G01*
X270472Y593307D01*
X278919Y593307D01*
X278919Y592559D01*
G74*
D01*
G03X278872Y592540I1264J3195*
G01*
G74*
D01*
G03X277742Y591789I1299J3181*
G01*
X277742Y591789D01*
X269370Y583418D01*
G74*
D01*
G03X268882Y582802I2432J2428*
G01*
X268882Y582802D01*
X268795Y582802D01*
G75*
D01*
G03X268823Y583250I-3545J446*
G01*
X268823Y583250D01*
X268823Y583919D01*
X264581Y583919D01*
X264581Y583823D01*
X259919Y583823D01*
X259919Y583919D01*
X255677Y583919D01*
X255677Y583250D01*
G75*
D01*
G03X256007Y581750I3573J0*
G01*
G74*
D01*
G03X255677Y580250I3243J1500*
G01*
X255677Y580250D01*
X255677Y574250D01*
G75*
D01*
G03X255685Y574005I3573J-6*
G01*
G74*
D01*
G03X255143Y574319I1986J2804*
G01*
G75*
D01*
G03X254436Y565605I-13142J-3319*
G01*
G75*
D01*
G03X256807Y564663I2364J2495*
G01*
X256807Y564663D01*
X266266Y564663D01*
G74*
D01*
G03X267563Y562990I2484J586*
G01*
X267563Y562990D01*
X267563Y560635D01*
G75*
D01*
G03X274437Y560635I3437J-4635*
G01*
X274437Y560635D01*
X274437Y562698D01*
X274750Y562698D01*
G74*
D01*
G03X277000Y564045I0J2552*
G01*
G74*
D01*
G03X277404Y563488I2249J1206*
G01*
G74*
D01*
G03X276605Y562046I4595J3488*
G01*
X276605Y562046D01*
X279954Y562046D01*
X279954Y562698D01*
X280281Y562698D01*
X280281Y566281D01*
X277302Y566281D01*
X277302Y570219D01*
X280281Y570219D01*
X280281Y571698D01*
X284219Y571698D01*
X284219Y570219D01*
X287802Y570219D01*
X287802Y571250D01*
G74*
D01*
G03X287315Y572750I2552J1*
G01*
G75*
D01*
G03X287802Y574250I-2065J1499*
G01*
X287802Y574250D01*
X287802Y577942D01*
X289640Y579780D01*
G74*
D01*
G03X290570Y578070I3360J719*
G01*
X290570Y578070D01*
X294198Y574442D01*
X294198Y573158D01*
X291970Y570930D01*
G75*
D01*
G03X290963Y568492I2429J-2430*
G01*
X290963Y568492D01*
X290963Y563923D01*
G75*
D01*
G03X290864Y563047I3337J-821*
G01*
G74*
D01*
G03X290863Y563000I3435J97*
G01*
X290863Y563000D01*
X290863Y559567D01*
G75*
D01*
G03X297572Y555199I1087J-5667*
G01*
G75*
D01*
G03X297737Y556250I-3271J1052*
G01*
X297737Y556250D01*
X297737Y559198D01*
X297781Y559198D01*
X297781Y562585D01*
G75*
D01*
G03X297837Y563200I-3380J618*
G01*
X297837Y563200D01*
X297837Y567077D01*
X298958Y568198D01*
X301719Y568198D01*
X301719Y566719D01*
X305302Y566719D01*
X305302Y567750D01*
G74*
D01*
G03X304815Y569250I2552J1*
G01*
G75*
D01*
G03X305302Y570750I-2065J1499*
G01*
X305302Y570750D01*
X305302Y574442D01*
X306697Y575837D01*
X306763Y575771D01*
G75*
D01*
G03X310373Y575771I1805J1803*
G01*
X310373Y575771D01*
X314615Y580013D01*
G74*
D01*
G03X315331Y581418I1804J1804*
G01*
G74*
D01*
G03X316737Y582135I400J2521*
G01*
X316737Y582135D01*
X320979Y586377D01*
G75*
D01*
G03X320979Y589987I-1803J1805*
G01*
X320979Y589987D01*
X318703Y592263D01*
X328119Y592263D01*
G74*
D01*
G03X329247Y592454I2J3437*
G01*
G75*
D01*
G03X337772Y594073I3553J4545*
G01*
G74*
D01*
G03X339954Y592605I4227J3927*
G01*
X339954Y592605D01*
X339954Y595954D01*
X338474Y595954D01*
G75*
D01*
G03X337700Y600046I-5673J1046*
G01*
X337700Y600046D01*
X339954Y600046D01*
X339954Y603395D01*
G74*
D01*
G03X338031Y602188I2045J5394*
G01*
X338031Y602188D01*
X338031Y605531D01*
X334448Y605531D01*
X334448Y604500D01*
G75*
D01*
G03X337000Y601948I2552J0*
G01*
X337000Y601948D01*
X337792Y601948D01*
G74*
D01*
G03X337028Y600927I4210J3946*
G01*
G75*
D01*
G03X330208Y602155I-4228J-3927*
G01*
G74*
D01*
G03X331274Y603871I1458J2095*
G01*
G74*
D01*
G03X333085Y604825I623J3379*
G01*
X333085Y604825D01*
X337729Y609469D01*
X338031Y609469D01*
X338031Y609771D01*
X339208Y610948D01*
X340692Y610948D01*
X341070Y610570D01*
G74*
D01*
G03X341969Y609923I2430J2429*
G01*
X341969Y609923D01*
X341969Y609469D01*
X345552Y609469D01*
X345552Y609563D01*
X346240Y609563D01*
G75*
D01*
G03X347000Y609448I757J2437*
G01*
X347000Y609448D01*
X359000Y609448D01*
G74*
D01*
G03X359496Y609496I3J2552*
G01*
G74*
D01*
G03X359448Y609000I2504J493*
G01*
X359448Y609000D01*
X359448Y604260D01*
X361740Y604260D01*
X361740Y609455D01*
X363489Y609455D01*
G74*
D01*
G03X363448Y609000I2510J456*
G01*
X363448Y609000D01*
X363448Y597000D01*
G75*
D01*
G03X364260Y595133I2552J0*
G01*
X364260Y595133D01*
X364260Y594461D01*
G74*
D01*
G03X365000Y594652I261J2539*
G01*
G75*
D01*
G03X366000Y594448I1000J2348*
G01*
X366000Y594448D01*
X368000Y594448D01*
G74*
D01*
G03X369000Y594652I0J2552*
G01*
G75*
D01*
G03X370000Y594448I1000J2348*
G01*
X370000Y594448D01*
X372000Y594448D01*
G74*
D01*
G03X373000Y594652I0J2552*
G01*
G75*
D01*
G03X374000Y594448I1000J2348*
G01*
X374000Y594448D01*
X376000Y594448D01*
G74*
D01*
G03X377000Y594652I0J2552*
G01*
G75*
D01*
G03X378000Y594448I1000J2348*
G01*
X378000Y594448D01*
X380000Y594448D01*
G74*
D01*
G03X381000Y594652I0J2552*
G01*
G75*
D01*
G03X382000Y594448I1000J2348*
G01*
X382000Y594448D01*
X384000Y594448D01*
G74*
D01*
G03X385000Y594652I0J2552*
G01*
G75*
D01*
G03X386000Y594448I1000J2348*
G01*
X386000Y594448D01*
X388000Y594448D01*
G74*
D01*
G03X389000Y594652I0J2552*
G01*
G75*
D01*
G03X390000Y594448I1000J2348*
G01*
X390000Y594448D01*
X391563Y594448D01*
X391563Y572635D01*
G75*
D01*
G03X398437Y572635I3437J-4635*
G01*
X398437Y572635D01*
X398437Y575603D01*
X398770Y575270D01*
G75*
D01*
G03X401203Y574263I2430J2429*
G01*
X401203Y574263D01*
X413698Y574263D01*
X413698Y572750D01*
G75*
D01*
G03X416250Y570198I2552J0*
G01*
X416250Y570198D01*
X422237Y570198D01*
G74*
D01*
G03X422820Y569420I3013J1651*
G01*
X422820Y569420D01*
X429789Y562451D01*
G74*
D01*
G03X427985Y560437I710J2451*
G01*
G74*
D01*
G03X425570Y559430I16J3437*
G01*
X425570Y559430D01*
X421442Y555302D01*
X417750Y555302D01*
G75*
D01*
G03X415198Y552750I0J-2552*
G01*
X415198Y552750D01*
X415198Y546750D01*
G75*
D01*
G03X415685Y545250I2552J-1*
G01*
G74*
D01*
G03X415198Y543750I2065J1499*
G01*
X415198Y543750D01*
X415198Y540058D01*
X413820Y538680D01*
G75*
D01*
G03X412813Y536240I2429J-2430*
G01*
X412813Y536240D01*
X412813Y535765D01*
G74*
D01*
G03X410698Y533250I437J2514*
G01*
X410698Y533250D01*
X410698Y527250D01*
G75*
D01*
G03X413250Y524698I2552J0*
G01*
X413250Y524698D01*
X414884Y524698D01*
G74*
D01*
G03X412436Y520344I6816J6698*
G01*
X412436Y520344D01*
X410092Y518000D01*
X412436Y515656D01*
G75*
D01*
G03X430284Y513800I9264J2341*
G01*
G75*
D01*
G03X431000Y513698I714J2450*
G01*
X431000Y513698D01*
X437000Y513698D01*
G74*
D01*
G03X438500Y514185I1J2552*
G01*
G75*
D01*
G03X440000Y513698I1499J2065*
G01*
X440000Y513698D01*
X441031Y513698D01*
X441031Y517281D01*
X439552Y517281D01*
X439552Y521219D01*
X441031Y521219D01*
X441031Y524088D01*
G74*
D01*
G03X442704Y523105I3718J4412*
G01*
X442704Y523105D01*
X442704Y526454D01*
X441484Y526454D01*
G75*
D01*
G03X442557Y529000I-2484J2546*
G01*
X442557Y529000D01*
X442557Y530546D01*
X442704Y530546D01*
X442704Y530687D01*
G75*
D01*
G03X444000Y530443I1295J3313*
G01*
X444000Y530443D01*
X449000Y530443D01*
G74*
D01*
G03X449851Y530546I1J3557*
G01*
X449851Y530546D01*
X450145Y530546D01*
G74*
D01*
G03X450138Y530563I5338J2188*
G01*
X450138Y530563D01*
X450448Y530563D01*
X450448Y528250D01*
G75*
D01*
G03X452563Y525735I2552J-1*
G01*
X452563Y525735D01*
X452563Y517635D01*
G75*
D01*
G03X459437Y517635I3437J-4635*
G01*
X459437Y517635D01*
X459437Y525735D01*
G74*
D01*
G03X461402Y527386I437J2514*
G01*
G75*
D01*
G03X469737Y535310I4496J3616*
G01*
X469737Y535310D01*
X469737Y537200D01*
G74*
D01*
G03X468725Y539635I3437J1*
G01*
X468725Y539635D01*
X465935Y542425D01*
G74*
D01*
G03X463729Y543429I2435J2424*
G01*
G75*
D01*
G03X463498Y543437I-234J-3428*
G01*
X463498Y543437D01*
X461545Y543437D01*
G74*
D01*
G03X459000Y545802I2544J186*
G01*
X459000Y545802D01*
X453000Y545802D01*
G75*
D01*
G03X452148Y545656I-1J-2552*
G01*
G74*
D01*
G03X449000Y547557I3147J1655*
G01*
X449000Y547557D01*
X447761Y547557D01*
X447761Y545261D01*
X451429Y545261D01*
G74*
D01*
G03X450448Y543250I1570J2011*
G01*
X450448Y543250D01*
X450448Y542739D01*
X447761Y542739D01*
X447761Y542557D01*
X445239Y542557D01*
X445239Y542739D01*
X442437Y542739D01*
X442437Y543082D01*
G75*
D01*
G03X442557Y544000I-3437J916*
G01*
X442557Y544000D01*
X442557Y545261D01*
X445239Y545261D01*
X445239Y547557D01*
X444000Y547557D01*
G75*
D01*
G03X442557Y547251I0J-3557*
G01*
X442557Y547251D01*
X442557Y549000D01*
G74*
D01*
G03X442437Y549918I3557J2*
G01*
X442437Y549918D01*
X442437Y551400D01*
G74*
D01*
G03X441425Y553835I3437J1*
G01*
X441425Y553835D01*
X440531Y554729D01*
X440531Y555031D01*
X440229Y555031D01*
X439052Y556208D01*
X439052Y558969D01*
X440531Y558969D01*
X440531Y562552D01*
X439500Y562552D01*
G75*
D01*
G03X438000Y562065I-1J-2552*
G01*
G74*
D01*
G03X436937Y562515I1501J2064*
G01*
X436937Y562515D01*
X436937Y563600D01*
G74*
D01*
G03X435925Y566035I3437J1*
G01*
X435925Y566035D01*
X431762Y570198D01*
X434250Y570198D01*
G75*
D01*
G03X436802Y572750I0J2552*
G01*
X436802Y572750D01*
X436802Y582750D01*
G74*
D01*
G03X434250Y585302I2552J0*
G01*
X434250Y585302D01*
X416250Y585302D01*
G75*
D01*
G03X413698Y582750I0J-2552*
G01*
X413698Y582750D01*
X413698Y581137D01*
X402623Y581137D01*
X402437Y581323D01*
X402437Y587233D01*
G75*
D01*
G03X412688Y592525I5081J2732*
G01*
G75*
D01*
G03X415374Y602986I3312J4725*
G01*
X415374Y602986D01*
X412935Y605425D01*
G74*
D01*
G03X410552Y606436I2435J2425*
G01*
X410552Y606436D01*
X410552Y609000D01*
G74*
D01*
G03X410504Y609496I2552J3*
G01*
G75*
D01*
G03X411000Y609448I493J2504*
G01*
X411000Y609448D01*
X423000Y609448D01*
G75*
D01*
G03X425552Y612000I0J2552*
G01*
X425552Y612000D01*
X425552Y614000D01*
G74*
D01*
G03X425348Y615000I2552J0*
G01*
G75*
D01*
G03X425552Y616000I-2348J1000*
G01*
X425552Y616000D01*
X425552Y618000D01*
G74*
D01*
G03X425348Y619000I2552J0*
G01*
G75*
D01*
G03X425552Y620000I-2348J1000*
G01*
X425552Y620000D01*
X425552Y622000D01*
G74*
D01*
G03X425460Y622680I2552J1*
G01*
X425460Y622680D01*
X430448Y617692D01*
X430448Y613500D01*
G75*
D01*
G03X430935Y612000I2552J-1*
G01*
G74*
D01*
G03X430448Y610500I2065J1499*
G01*
X430448Y610500D01*
X430448Y609469D01*
X434031Y609469D01*
X434031Y610948D01*
X437969Y610948D01*
X437969Y609469D01*
X441552Y609469D01*
X441552Y610500D01*
G74*
D01*
G03X441065Y612000I2552J1*
G01*
G75*
D01*
G03X441552Y613500I-2065J1499*
G01*
X441552Y613500D01*
X441552Y619500D01*
G74*
D01*
G03X439935Y621875I2552J0*
G01*
G74*
D01*
G03X440500Y622185I935J2374*
G01*
G75*
D01*
G03X442000Y621698I1499J2065*
G01*
X442000Y621698D01*
X443031Y621698D01*
X443031Y625281D01*
X441552Y625281D01*
X441552Y629219D01*
X443031Y629219D01*
X443031Y629915D01*
G75*
D01*
G03X444552Y632250I-1031J2334*
G01*
X444552Y632250D01*
X444552Y634902D01*
X442098Y634902D01*
X442098Y632802D01*
X442000Y632802D01*
G75*
D01*
G03X440500Y632315I-1J-2552*
G01*
G74*
D01*
G03X439552Y632742I1500J2065*
G01*
X439552Y632742D01*
X439552Y640250D01*
G74*
D01*
G03X439513Y640698I2552J4*
G01*
X439513Y640698D01*
X442000Y640698D01*
G74*
D01*
G03X442098Y640700I3J2552*
G01*
X442098Y640700D01*
X442098Y637598D01*
X444552Y637598D01*
X444552Y640250D01*
G74*
D01*
G03X444488Y640819I2552J1*
G01*
X444488Y640819D01*
X485950Y640819D01*
G74*
D01*
G03X489193Y641705I1J6381*
G01*
G74*
D01*
G03X490500Y642185I193J2545*
G01*
G74*
D01*
G03X491807Y641705I1500J2065*
G01*
G75*
D01*
G03X495050Y640819I3244J5494*
G01*
X495050Y640819D01*
X499948Y640819D01*
X499948Y640219D01*
X503531Y640219D01*
X503531Y640819D01*
X505625Y640819D01*
G74*
D01*
G03X506750Y640919I0J6381*
G01*
X506750Y640919D01*
X507469Y640919D01*
X507469Y640219D01*
X511052Y640219D01*
X511052Y640919D01*
X516265Y640919D01*
G74*
D01*
G03X519321Y641699I1J6381*
G01*
G74*
D01*
G03X520750Y642185I70J2550*
G01*
G75*
D01*
G03X522250Y641698I1499J2065*
G01*
X522250Y641698D01*
X522630Y641698D01*
X522630Y639485D01*
G74*
D01*
G03X521046Y640395I3630J4484*
G01*
X521046Y640395D01*
X521046Y637046D01*
X522630Y637046D01*
X522630Y632954D01*
X521046Y632954D01*
X521046Y629605D01*
G74*
D01*
G03X522630Y630515I2046J5394*
G01*
X522630Y630515D01*
X522630Y622485D01*
G74*
D01*
G03X521046Y623395I3630J4484*
G01*
X521046Y623395D01*
X521046Y620046D01*
X522630Y620046D01*
X522630Y615954D01*
X521046Y615954D01*
X521046Y612605D01*
G74*
D01*
G03X522630Y613515I2046J5394*
G01*
X522630Y613515D01*
X522630Y608485D01*
G74*
D01*
G03X521046Y609395I3630J4484*
G01*
X521046Y609395D01*
X521046Y606046D01*
X522630Y606046D01*
X522630Y601954D01*
X521046Y601954D01*
X521046Y598605D01*
G74*
D01*
G03X522630Y599515I2046J5394*
G01*
X522630Y599515D01*
X522630Y596574D01*
X523374Y595830D01*
X524684Y595830D01*
G74*
D01*
G03X523605Y594046I4316J3829*
G01*
X523605Y594046D01*
X526954Y594046D01*
X526954Y595830D01*
X531046Y595830D01*
X531046Y594046D01*
X534395Y594046D01*
G74*
D01*
G03X533316Y595830I5395J2044*
G01*
X533316Y595830D01*
X544684Y595830D01*
G74*
D01*
G03X543605Y594046I4316J3829*
G01*
X543605Y594046D01*
X546954Y594046D01*
X546954Y595830D01*
X551046Y595830D01*
X551046Y594046D01*
X554395Y594046D01*
G74*
D01*
G03X553316Y595830I5395J2044*
G01*
X553316Y595830D01*
X566684Y595830D01*
G74*
D01*
G03X565605Y594046I4316J3829*
G01*
X565605Y594046D01*
X568954Y594046D01*
X568954Y595830D01*
X573046Y595830D01*
X573046Y594046D01*
X576395Y594046D01*
G74*
D01*
G03X575316Y595830I5395J2044*
G01*
X575316Y595830D01*
X585684Y595830D01*
G74*
D01*
G03X584605Y594046I4316J3829*
G01*
X584605Y594046D01*
X587954Y594046D01*
X587954Y595830D01*
X592046Y595830D01*
X592046Y594046D01*
X594652Y594046D01*
G75*
D01*
G02X594646Y589954I-183901J-1776*
G01*
X594646Y589954D01*
X592046Y589954D01*
X592046Y586605D01*
G74*
D01*
G03X594622Y588546I2045J5394*
G01*
G75*
D01*
G02X357627Y416229I-183872J3753*
G01*
G75*
D01*
G03X334806Y424802I-3227J26070*
G01*
G75*
D01*
G02X460756Y769282I75935J167501*
G01*
G75*
D01*
G03X485335Y760408I4944J-24782*
G01*
G74*
D01*
G02X559194Y700870I74585J168107*
G01*
X559194Y700870D01*
X551847Y700870D01*
G74*
D01*
G03X552395Y701954I4846J3130*
G01*
X552395Y701954D01*
X549046Y701954D01*
X549046Y700870D01*
X544954Y700870D01*
X544954Y701954D01*
X541605Y701954D01*
G74*
D01*
G03X542153Y700870I5394J2046*
G01*
X542153Y700870D01*
X533847Y700870D01*
G74*
D01*
G03X534395Y701954I4846J3130*
G01*
X534395Y701954D01*
X531046Y701954D01*
X531046Y700870D01*
X526954Y700870D01*
X526954Y701954D01*
X523605Y701954D01*
G74*
D01*
G03X524153Y700870I5394J2046*
G01*
X524153Y700870D01*
X523374Y700870D01*
X522630Y700126D01*
X522630Y698485D01*
G74*
D01*
G03X521046Y699395I3630J4484*
G01*
X521046Y699395D01*
X521046Y696046D01*
X522630Y696046D01*
X522630Y691954D01*
X521046Y691954D01*
X521046Y688605D01*
G74*
D01*
G03X522630Y689515I2046J5394*
G01*
X522630Y689515D01*
X522630Y682485D01*
G74*
D01*
G03X521046Y683395I3630J4484*
G01*
X521046Y683395D01*
X521046Y680046D01*
X522630Y680046D01*
X522630Y675954D01*
X521046Y675954D01*
X521046Y672605D01*
G74*
D01*
G03X522630Y673515I2046J5394*
G01*
X522630Y673515D01*
X522630Y668485D01*
G74*
D01*
G03X521046Y669395I3630J4484*
G01*
X521046Y669395D01*
X521046Y666046D01*
X522630Y666046D01*
X522630Y661954D01*
X521046Y661954D01*
X521046Y658605D01*
G74*
D01*
G03X522630Y659515I2046J5394*
G01*
X522630Y659515D01*
X522630Y652802D01*
X522250Y652802D01*
G75*
D01*
G03X520750Y652315I-1J-2552*
G01*
G74*
D01*
G03X519520Y652788I1500J2065*
G01*
G74*
D01*
G03X516265Y653681I3255J5487*
G01*
X516265Y653681D01*
X508236Y653681D01*
G74*
D01*
G03X511395Y656954I2235J5318*
G01*
X511395Y656954D01*
X508046Y656954D01*
X508046Y653681D01*
X505550Y653681D01*
G75*
D01*
G03X504425Y653581I0J-6381*
G01*
X504425Y653581D01*
X495050Y653581D01*
G75*
D01*
G03X491996Y652802I1J-6381*
G01*
G74*
D01*
G03X490500Y652315I3J2552*
G01*
G74*
D01*
G03X489004Y652802I1499J2065*
G01*
G74*
D01*
G03X485950Y653581I3055J5601*
G01*
X485950Y653581D01*
X443500Y653581D01*
G75*
D01*
G03X443072Y653566I9J-6381*
G01*
G74*
D01*
G03X442000Y653802I1072J2316*
G01*
X442000Y653802D01*
X440803Y653802D01*
G74*
D01*
G03X441395Y654954I4804J3197*
G01*
X441395Y654954D01*
X438046Y654954D01*
X438046Y653578D01*
G74*
D01*
G03X437098Y653800I1045J2328*
G01*
X437098Y653800D01*
X437098Y652114D01*
G74*
D01*
G03X436948Y651250I2402J862*
G01*
X436948Y651250D01*
X436948Y643250D01*
D02*
G37*
%LPC*%
G36*
X462802Y572750D02*
X462802Y572750D01*
X462802Y575072D01*
X453928Y575072D01*
X453928Y570198D01*
X460250Y570198D01*
G75*
D01*
G03X462802Y572750I0J2552*
G01*
D02*
G37*
G36*
X462802Y582750D02*
G74*
D01*
G03X460250Y585302I2552J0*
G01*
X460250Y585302D01*
X453928Y585302D01*
X453928Y580428D01*
X462802Y580428D01*
X462802Y582750D01*
D02*
G37*
G36*
X448000Y621698D02*
G75*
D01*
G03X450552Y624250I0J2552*
G01*
X450552Y624250D01*
X450552Y625281D01*
X446969Y625281D01*
X446969Y621698D01*
X448000Y621698D01*
D02*
G37*
G36*
X457395Y632954D02*
X457395Y632954D01*
X454046Y632954D01*
X454046Y629605D01*
G74*
D01*
G03X457395Y632954I2045J5394*
G01*
D02*
G37*
G36*
X446969Y632175D02*
X446969Y632175D01*
X446969Y629219D01*
X450552Y629219D01*
X450552Y630250D01*
G74*
D01*
G03X449954Y631892I2552J0*
G01*
X449954Y631892D01*
X449954Y632954D01*
X446605Y632954D01*
G74*
D01*
G03X446969Y632175I5394J2046*
G01*
D02*
G37*
G36*
X450500Y635000D02*
G75*
D01*
G03X450500Y635000I1500J0*
G01*
D02*
G37*
G36*
X446605Y637046D02*
X446605Y637046D01*
X449954Y637046D01*
X449954Y640395D01*
G74*
D01*
G03X446605Y637046I2045J5394*
G01*
D02*
G37*
G36*
X454046Y640395D02*
X454046Y640395D01*
X454046Y637046D01*
X457395Y637046D01*
G74*
D01*
G03X454046Y640395I5394J2045*
G01*
D02*
G37*
G36*
X430448Y604500D02*
G75*
D01*
G03X433000Y601948I2552J0*
G01*
X433000Y601948D01*
X434031Y601948D01*
X434031Y605531D01*
X430448Y605531D01*
X430448Y604500D01*
D02*
G37*
G36*
X441552Y604500D02*
X441552Y604500D01*
X441552Y605531D01*
X437969Y605531D01*
X437969Y601948D01*
X439000Y601948D01*
G75*
D01*
G03X441552Y604500I0J2552*
G01*
D02*
G37*
G36*
X445395Y594954D02*
X445395Y594954D01*
X442046Y594954D01*
X442046Y591605D01*
G74*
D01*
G03X445395Y594954I2045J5394*
G01*
D02*
G37*
G36*
X442046Y602395D02*
X442046Y602395D01*
X442046Y599046D01*
X445395Y599046D01*
G74*
D01*
G03X442046Y602395I5394J2045*
G01*
D02*
G37*
G36*
X437954Y591605D02*
X437954Y591605D01*
X437954Y594954D01*
X434605Y594954D01*
G74*
D01*
G03X437954Y591605I5394J2045*
G01*
D02*
G37*
G36*
X442250Y585302D02*
G75*
D01*
G03X439698Y582750I0J-2552*
G01*
X439698Y582750D01*
X439698Y580428D01*
X448572Y580428D01*
X448572Y585302D01*
X442250Y585302D01*
D02*
G37*
G36*
X434605Y599046D02*
X434605Y599046D01*
X437954Y599046D01*
X437954Y602395D01*
G74*
D01*
G03X434605Y599046I2045J5394*
G01*
D02*
G37*
G36*
X438500Y597000D02*
G75*
D01*
G03X438500Y597000I1500J0*
G01*
D02*
G37*
G36*
X439698Y572750D02*
G75*
D01*
G03X442250Y570198I2552J0*
G01*
X442250Y570198D01*
X448572Y570198D01*
X448572Y575072D01*
X439698Y575072D01*
X439698Y572750D01*
D02*
G37*
G36*
X457395Y553954D02*
X457395Y553954D01*
X454046Y553954D01*
X454046Y550605D01*
G74*
D01*
G03X457395Y553954I2045J5394*
G01*
D02*
G37*
G36*
X448052Y553954D02*
G75*
D01*
G03X448052Y554000I-2552J23*
G01*
X448052Y554000D01*
X448052Y555031D01*
X444469Y555031D01*
X444469Y551448D01*
X445500Y551448D01*
G74*
D01*
G03X447490Y552401I1J2552*
G01*
G74*
D01*
G03X449954Y550605I4510J3599*
G01*
X449954Y550605D01*
X449954Y553954D01*
X448052Y553954D01*
D02*
G37*
G36*
X450500Y556000D02*
G75*
D01*
G03X450500Y556000I1500J0*
G01*
D02*
G37*
G36*
X447052Y558969D02*
G74*
D01*
G03X446605Y558046I4949J2967*
G01*
X446605Y558046D01*
X449954Y558046D01*
X449954Y561395D01*
G74*
D01*
G03X448044Y560201I2044J5395*
G01*
G74*
D01*
G03X445500Y562552I2543J200*
G01*
X445500Y562552D01*
X444469Y562552D01*
X444469Y558969D01*
X447052Y558969D01*
D02*
G37*
G36*
X454046Y561395D02*
X454046Y561395D01*
X454046Y558046D01*
X457395Y558046D01*
G74*
D01*
G03X454046Y561395I5394J2045*
G01*
D02*
G37*
G36*
X545500Y704000D02*
G75*
D01*
G03X545500Y704000I1500J0*
G01*
D02*
G37*
G36*
X541605Y706046D02*
X541605Y706046D01*
X544954Y706046D01*
X544954Y709395D01*
G74*
D01*
G03X541605Y706046I2045J5394*
G01*
D02*
G37*
G36*
X523605Y706046D02*
X523605Y706046D01*
X526954Y706046D01*
X526954Y709395D01*
G74*
D01*
G03X523605Y706046I2045J5394*
G01*
D02*
G37*
G36*
X531046Y709395D02*
X531046Y709395D01*
X531046Y706046D01*
X534395Y706046D01*
G74*
D01*
G03X531046Y709395I5394J2045*
G01*
D02*
G37*
G36*
X527500Y704000D02*
G75*
D01*
G03X527500Y704000I1500J0*
G01*
D02*
G37*
G36*
X482954Y653605D02*
X482954Y653605D01*
X482954Y656954D01*
X479605Y656954D01*
G74*
D01*
G03X482954Y653605I5394J2045*
G01*
D02*
G37*
G36*
X468500Y659000D02*
G75*
D01*
G03X468500Y659000I1500J0*
G01*
D02*
G37*
G36*
X503954Y653605D02*
X503954Y653605D01*
X503954Y656954D01*
X500605Y656954D01*
G74*
D01*
G03X503954Y653605I5394J2045*
G01*
D02*
G37*
G36*
X467954Y653605D02*
X467954Y653605D01*
X467954Y656954D01*
X464605Y656954D01*
G74*
D01*
G03X467954Y653605I5394J2045*
G01*
D02*
G37*
G36*
X475395Y656954D02*
X475395Y656954D01*
X472046Y656954D01*
X472046Y653605D01*
G74*
D01*
G03X475395Y656954I2045J5394*
G01*
D02*
G37*
G36*
X483500Y659000D02*
G75*
D01*
G03X483500Y659000I1500J0*
G01*
D02*
G37*
G36*
X490395Y656954D02*
X490395Y656954D01*
X487046Y656954D01*
X487046Y653605D01*
G74*
D01*
G03X490395Y656954I2045J5394*
G01*
D02*
G37*
G36*
X504500Y659000D02*
G75*
D01*
G03X504500Y659000I1500J0*
G01*
D02*
G37*
G36*
X516954Y658605D02*
X516954Y658605D01*
X516954Y661954D01*
X513605Y661954D01*
G74*
D01*
G03X516954Y658605I5394J2045*
G01*
D02*
G37*
G36*
X479605Y661046D02*
X479605Y661046D01*
X482954Y661046D01*
X482954Y664395D01*
G74*
D01*
G03X479605Y661046I2045J5394*
G01*
D02*
G37*
G36*
X472046Y664395D02*
X472046Y664395D01*
X472046Y661046D01*
X475395Y661046D01*
G74*
D01*
G03X472046Y664395I5394J2045*
G01*
D02*
G37*
G36*
X464605Y661046D02*
X464605Y661046D01*
X467954Y661046D01*
X467954Y664395D01*
G74*
D01*
G03X464605Y661046I2045J5394*
G01*
D02*
G37*
G36*
X487046Y664395D02*
X487046Y664395D01*
X487046Y661046D01*
X490395Y661046D01*
G74*
D01*
G03X487046Y664395I5394J2045*
G01*
D02*
G37*
G36*
X517500Y678000D02*
G75*
D01*
G03X517500Y678000I1500J0*
G01*
D02*
G37*
G36*
X517500Y664000D02*
G75*
D01*
G03X517500Y664000I1500J0*
G01*
D02*
G37*
G36*
X516954Y672605D02*
X516954Y672605D01*
X516954Y675954D01*
X513605Y675954D01*
G74*
D01*
G03X516954Y672605I5394J2045*
G01*
D02*
G37*
G36*
X508046Y664395D02*
X508046Y664395D01*
X508046Y661046D01*
X511395Y661046D01*
G74*
D01*
G03X508046Y664395I5394J2045*
G01*
D02*
G37*
G36*
X500605Y661046D02*
X500605Y661046D01*
X503954Y661046D01*
X503954Y664395D01*
G74*
D01*
G03X500605Y661046I2045J5394*
G01*
D02*
G37*
G36*
X513605Y666046D02*
X513605Y666046D01*
X516954Y666046D01*
X516954Y669395D01*
G74*
D01*
G03X513605Y666046I2045J5394*
G01*
D02*
G37*
G36*
X517500Y694000D02*
G75*
D01*
G03X517500Y694000I1500J0*
G01*
D02*
G37*
G36*
X516954Y688605D02*
X516954Y688605D01*
X516954Y691954D01*
X513605Y691954D01*
G74*
D01*
G03X516954Y688605I5394J2045*
G01*
D02*
G37*
G36*
X513605Y696046D02*
X513605Y696046D01*
X516954Y696046D01*
X516954Y699395D01*
G74*
D01*
G03X513605Y696046I2045J5394*
G01*
D02*
G37*
G36*
X513605Y680046D02*
X513605Y680046D01*
X516954Y680046D01*
X516954Y683395D01*
G74*
D01*
G03X513605Y680046I2045J5394*
G01*
D02*
G37*
G36*
X549046Y709395D02*
X549046Y709395D01*
X549046Y706046D01*
X552395Y706046D01*
G74*
D01*
G03X549046Y709395I5394J2045*
G01*
D02*
G37*
G36*
X513605Y620046D02*
X513605Y620046D01*
X516954Y620046D01*
X516954Y623395D01*
G74*
D01*
G03X513605Y620046I2045J5394*
G01*
D02*
G37*
G36*
X516954Y629605D02*
X516954Y629605D01*
X516954Y632954D01*
X513605Y632954D01*
G74*
D01*
G03X516954Y629605I5394J2045*
G01*
D02*
G37*
G36*
X511052Y635250D02*
X511052Y635250D01*
X511052Y636281D01*
X507469Y636281D01*
X507469Y632698D01*
X508046Y632698D01*
X508046Y630046D01*
X511395Y630046D01*
G74*
D01*
G03X509206Y632797I5394J2046*
G01*
G75*
D01*
G03X511052Y635250I-706J2452*
G01*
D02*
G37*
G36*
X511395Y625954D02*
X511395Y625954D01*
X508046Y625954D01*
X508046Y622605D01*
G74*
D01*
G03X511395Y625954I2045J5394*
G01*
D02*
G37*
G36*
X503954Y622605D02*
X503954Y622605D01*
X503954Y625954D01*
X500605Y625954D01*
G74*
D01*
G03X503954Y622605I5394J2045*
G01*
D02*
G37*
G36*
X504500Y628000D02*
G75*
D01*
G03X504500Y628000I1500J0*
G01*
D02*
G37*
G36*
X513605Y637046D02*
X513605Y637046D01*
X516954Y637046D01*
X516954Y640395D01*
G74*
D01*
G03X513605Y637046I2045J5394*
G01*
D02*
G37*
G36*
X517500Y635000D02*
G75*
D01*
G03X517500Y635000I1500J0*
G01*
D02*
G37*
G36*
X490395Y632954D02*
X490395Y632954D01*
X487046Y632954D01*
X487046Y629605D01*
G74*
D01*
G03X490395Y632954I2045J5394*
G01*
D02*
G37*
G36*
X483500Y635000D02*
G75*
D01*
G03X483500Y635000I1500J0*
G01*
D02*
G37*
G36*
X487046Y640395D02*
X487046Y640395D01*
X487046Y637046D01*
X490395Y637046D01*
G74*
D01*
G03X487046Y640395I5394J2045*
G01*
D02*
G37*
G36*
X503531Y633215D02*
X503531Y633215D01*
X503531Y636281D01*
X499948Y636281D01*
X499948Y635250D01*
G75*
D01*
G03X502500Y632698I2552J0*
G01*
X502500Y632698D01*
X502650Y632698D01*
G74*
D01*
G03X500605Y630046I3350J4698*
G01*
X500605Y630046D01*
X503954Y630046D01*
X503954Y633395D01*
G74*
D01*
G03X503531Y633215I2046J5394*
G01*
D02*
G37*
G36*
X475395Y632954D02*
X475395Y632954D01*
X472046Y632954D01*
X472046Y629605D01*
G74*
D01*
G03X475395Y632954I2045J5394*
G01*
D02*
G37*
G36*
X467954Y629605D02*
X467954Y629605D01*
X467954Y632954D01*
X464605Y632954D01*
G74*
D01*
G03X467954Y629605I5394J2045*
G01*
D02*
G37*
G36*
X468500Y635000D02*
G75*
D01*
G03X468500Y635000I1500J0*
G01*
D02*
G37*
G36*
X464605Y637046D02*
X464605Y637046D01*
X467954Y637046D01*
X467954Y640395D01*
G74*
D01*
G03X464605Y637046I2045J5394*
G01*
D02*
G37*
G36*
X472046Y640395D02*
X472046Y640395D01*
X472046Y637046D01*
X475395Y637046D01*
G74*
D01*
G03X472046Y640395I5394J2045*
G01*
D02*
G37*
G36*
X479605Y637046D02*
X479605Y637046D01*
X482954Y637046D01*
X482954Y640395D01*
G74*
D01*
G03X479605Y637046I2045J5394*
G01*
D02*
G37*
G36*
X482954Y629605D02*
X482954Y629605D01*
X482954Y632954D01*
X479605Y632954D01*
G74*
D01*
G03X482954Y629605I5394J2045*
G01*
D02*
G37*
G36*
X513605Y606046D02*
X513605Y606046D01*
X516954Y606046D01*
X516954Y609395D01*
G74*
D01*
G03X513605Y606046I2045J5394*
G01*
D02*
G37*
G36*
X516954Y612605D02*
X516954Y612605D01*
X516954Y615954D01*
X513605Y615954D01*
G74*
D01*
G03X516954Y612605I5394J2045*
G01*
D02*
G37*
G36*
X517500Y604000D02*
G75*
D01*
G03X517500Y604000I1500J0*
G01*
D02*
G37*
G36*
X517500Y618000D02*
G75*
D01*
G03X517500Y618000I1500J0*
G01*
D02*
G37*
G36*
X587954Y586605D02*
X587954Y586605D01*
X587954Y589954D01*
X584605Y589954D01*
G74*
D01*
G03X587954Y586605I5394J2045*
G01*
D02*
G37*
G36*
X588500Y592000D02*
G75*
D01*
G03X588500Y592000I1500J0*
G01*
D02*
G37*
G36*
X576395Y589954D02*
X576395Y589954D01*
X573046Y589954D01*
X573046Y586605D01*
G74*
D01*
G03X576395Y589954I2045J5394*
G01*
D02*
G37*
G36*
X568954Y586605D02*
X568954Y586605D01*
X568954Y589954D01*
X565605Y589954D01*
G74*
D01*
G03X568954Y586605I5394J2045*
G01*
D02*
G37*
G36*
X569500Y592000D02*
G75*
D01*
G03X569500Y592000I1500J0*
G01*
D02*
G37*
G36*
X554395Y589954D02*
X554395Y589954D01*
X551046Y589954D01*
X551046Y586605D01*
G74*
D01*
G03X554395Y589954I2045J5394*
G01*
D02*
G37*
G36*
X546954Y586605D02*
X546954Y586605D01*
X546954Y589954D01*
X543605Y589954D01*
G74*
D01*
G03X546954Y586605I5394J2045*
G01*
D02*
G37*
G36*
X547500Y592000D02*
G75*
D01*
G03X547500Y592000I1500J0*
G01*
D02*
G37*
G36*
X534395Y589954D02*
X534395Y589954D01*
X531046Y589954D01*
X531046Y586605D01*
G74*
D01*
G03X534395Y589954I2045J5394*
G01*
D02*
G37*
G36*
X526954Y586605D02*
X526954Y586605D01*
X526954Y589954D01*
X523605Y589954D01*
G74*
D01*
G03X526954Y586605I5394J2045*
G01*
D02*
G37*
G36*
X527500Y592000D02*
G75*
D01*
G03X527500Y592000I1500J0*
G01*
D02*
G37*
G36*
X516954Y598605D02*
X516954Y598605D01*
X516954Y601954D01*
X513605Y601954D01*
G74*
D01*
G03X516954Y598605I5394J2045*
G01*
D02*
G37*
G36*
X474395Y574954D02*
X474395Y574954D01*
X471046Y574954D01*
X471046Y571605D01*
G74*
D01*
G03X474395Y574954I2045J5394*
G01*
D02*
G37*
G36*
X466954Y571605D02*
X466954Y571605D01*
X466954Y574954D01*
X463605Y574954D01*
G74*
D01*
G03X466954Y571605I5394J2045*
G01*
D02*
G37*
G36*
X467500Y577000D02*
G75*
D01*
G03X467500Y577000I1500J0*
G01*
D02*
G37*
G36*
X463605Y579046D02*
X463605Y579046D01*
X466954Y579046D01*
X466954Y582395D01*
G74*
D01*
G03X463605Y579046I2045J5394*
G01*
D02*
G37*
G36*
X471046Y582395D02*
X471046Y582395D01*
X471046Y579046D01*
X474395Y579046D01*
G74*
D01*
G03X471046Y582395I5394J2045*
G01*
D02*
G37*
G36*
X545605Y547046D02*
X545605Y547046D01*
X548954Y547046D01*
X548954Y550395D01*
G74*
D01*
G03X545605Y547046I2045J5394*
G01*
D02*
G37*
G36*
X553046Y550395D02*
X553046Y550395D01*
X553046Y547046D01*
X556395Y547046D01*
G74*
D01*
G03X553046Y550395I5394J2045*
G01*
D02*
G37*
G36*
X549500Y545000D02*
G75*
D01*
G03X549500Y545000I1500J0*
G01*
D02*
G37*
G36*
X556395Y542954D02*
X556395Y542954D01*
X553046Y542954D01*
X553046Y539605D01*
G74*
D01*
G03X556395Y542954I2045J5394*
G01*
D02*
G37*
G36*
X548954Y539605D02*
X548954Y539605D01*
X548954Y542954D01*
X545605Y542954D01*
G74*
D01*
G03X548954Y539605I5394J2045*
G01*
D02*
G37*
G36*
X501605Y513046D02*
X501605Y513046D01*
X504954Y513046D01*
X504954Y516395D01*
G74*
D01*
G03X501605Y513046I2045J5394*
G01*
D02*
G37*
G36*
X509046Y516395D02*
X509046Y516395D01*
X509046Y513046D01*
X512395Y513046D01*
G74*
D01*
G03X509046Y516395I5394J2045*
G01*
D02*
G37*
G36*
X512395Y508954D02*
X512395Y508954D01*
X509046Y508954D01*
X509046Y505605D01*
G74*
D01*
G03X512395Y508954I2045J5394*
G01*
D02*
G37*
G36*
X504954Y505605D02*
X504954Y505605D01*
X504954Y508954D01*
X501605Y508954D01*
G74*
D01*
G03X504954Y505605I5394J2045*
G01*
D02*
G37*
G36*
X505500Y511000D02*
G75*
D01*
G03X505500Y511000I1500J0*
G01*
D02*
G37*
G36*
X436229Y728623D02*
X436229Y728623D01*
X435812Y729040D01*
X433590Y726818D01*
X435812Y724596D01*
X436229Y725013D01*
G75*
D01*
G03X436229Y728623I-1803J1805*
G01*
D02*
G37*
G36*
X431605Y722046D02*
X431605Y722046D01*
X434954Y722046D01*
X434954Y725395D01*
G74*
D01*
G03X431605Y722046I2045J5394*
G01*
D02*
G37*
G36*
X428377Y720771D02*
G75*
D01*
G03X431987Y720771I1805J1803*
G01*
X431987Y720771D01*
X432404Y721188D01*
X430182Y723410D01*
X427960Y721188D01*
X428377Y720771D01*
D02*
G37*
G36*
X439046Y725395D02*
X439046Y725395D01*
X439046Y722046D01*
X442395Y722046D01*
G74*
D01*
G03X439046Y725395I5394J2045*
G01*
D02*
G37*
G36*
X388395Y693954D02*
X388395Y693954D01*
X385046Y693954D01*
X385046Y690605D01*
G74*
D01*
G03X388395Y693954I2045J5394*
G01*
D02*
G37*
G36*
X423954Y688605D02*
X423954Y688605D01*
X423954Y691954D01*
X420605Y691954D01*
G74*
D01*
G03X423954Y688605I5394J2045*
G01*
D02*
G37*
G36*
X397174Y723583D02*
X397174Y723583D01*
X395170Y721578D01*
X398272Y718476D01*
X402082Y722285D01*
X400784Y723583D01*
G75*
D01*
G03X397174Y723583I-1805J-1804*
G01*
D02*
G37*
G36*
X384605Y723046D02*
X384605Y723046D01*
X387954Y723046D01*
X387954Y726395D01*
G74*
D01*
G03X384605Y723046I2045J5394*
G01*
D02*
G37*
G36*
X392046Y726395D02*
X392046Y726395D01*
X392046Y723046D01*
X395395Y723046D01*
G74*
D01*
G03X392046Y726395I5394J2045*
G01*
D02*
G37*
G36*
X372552Y728000D02*
G74*
D01*
G03X370590Y730483I2552J0*
G01*
G74*
D01*
G03X372395Y732954I3589J4517*
G01*
X372395Y732954D01*
X369046Y732954D01*
X369046Y730552D01*
X368969Y730552D01*
X368969Y726969D01*
X372552Y726969D01*
X372552Y728000D01*
D02*
G37*
G36*
X365500Y735000D02*
G75*
D01*
G03X365500Y735000I1500J0*
G01*
D02*
G37*
G36*
X361605Y737046D02*
X361605Y737046D01*
X364954Y737046D01*
X364954Y740395D01*
G74*
D01*
G03X361605Y737046I2045J5394*
G01*
D02*
G37*
G36*
X369046Y740395D02*
X369046Y740395D01*
X369046Y737046D01*
X372395Y737046D01*
G74*
D01*
G03X369046Y740395I5394J2045*
G01*
D02*
G37*
G36*
X307448Y728250D02*
X307448Y728250D01*
X307448Y727219D01*
X311031Y727219D01*
X311031Y730802D01*
X310954Y730802D01*
X310954Y732954D01*
X307605Y732954D01*
G74*
D01*
G03X309187Y730669I5394J2045*
G01*
G74*
D01*
G03X307448Y728250I812J2418*
G01*
D02*
G37*
G36*
X311500Y735000D02*
G75*
D01*
G03X311500Y735000I1500J0*
G01*
D02*
G37*
G36*
X307605Y737046D02*
X307605Y737046D01*
X310954Y737046D01*
X310954Y740395D01*
G74*
D01*
G03X307605Y737046I2045J5394*
G01*
D02*
G37*
G36*
X315046Y740395D02*
X315046Y740395D01*
X315046Y737046D01*
X318395Y737046D01*
G74*
D01*
G03X315046Y740395I5394J2045*
G01*
D02*
G37*
G36*
X431769Y717565D02*
X431769Y717565D01*
X429618Y715414D01*
X432720Y712312D01*
X434725Y714317D01*
G75*
D01*
G03X434954Y717664I-1803J1805*
G01*
X434954Y717664D01*
X434954Y717954D01*
X434697Y717954D01*
X433427Y719224D01*
X432157Y717954D01*
X431605Y717954D01*
G74*
D01*
G03X431769Y717565I5394J2045*
G01*
D02*
G37*
G36*
X442395Y717954D02*
X442395Y717954D01*
X439046Y717954D01*
X439046Y714605D01*
G74*
D01*
G03X442395Y717954I2045J5394*
G01*
D02*
G37*
G36*
X435500Y720000D02*
G75*
D01*
G03X435500Y720000I1500J0*
G01*
D02*
G37*
G36*
X392623Y708229D02*
G75*
D01*
G03X389013Y708229I-1805J-1803*
G01*
X389013Y708229D01*
X388596Y707812D01*
X390818Y705590D01*
X393040Y707812D01*
X392623Y708229D01*
D02*
G37*
G36*
X395395Y718954D02*
X395395Y718954D01*
X392046Y718954D01*
X392046Y715605D01*
G74*
D01*
G03X395395Y718954I2045J5394*
G01*
D02*
G37*
G36*
X387275Y713683D02*
G75*
D01*
G03X387275Y710074I1803J-1804*
G01*
X387275Y710074D01*
X388573Y708776D01*
X392382Y712586D01*
X389280Y715688D01*
X387275Y713683D01*
D02*
G37*
G36*
X387954Y715605D02*
X387954Y715605D01*
X387954Y718954D01*
X384605Y718954D01*
G74*
D01*
G03X387954Y715605I5394J2045*
G01*
D02*
G37*
G36*
X388500Y721000D02*
G75*
D01*
G03X388500Y721000I1500J0*
G01*
D02*
G37*
G36*
X428052Y685500D02*
G74*
D01*
G03X425500Y688052I2552J0*
G01*
X425500Y688052D01*
X424469Y688052D01*
X424469Y684469D01*
X428052Y684469D01*
X428052Y685500D01*
D02*
G37*
G36*
X428046Y699395D02*
X428046Y699395D01*
X428046Y696046D01*
X431395Y696046D01*
G74*
D01*
G03X428046Y699395I5394J2045*
G01*
D02*
G37*
G36*
X431395Y691954D02*
X431395Y691954D01*
X428046Y691954D01*
X428046Y688605D01*
G74*
D01*
G03X431395Y691954I2045J5394*
G01*
D02*
G37*
G36*
X424500Y694000D02*
G75*
D01*
G03X424500Y694000I1500J0*
G01*
D02*
G37*
G36*
X416948Y685500D02*
X416948Y685500D01*
X416948Y684469D01*
X420531Y684469D01*
X420531Y688052D01*
X419500Y688052D01*
G75*
D01*
G03X416948Y685500I0J-2552*
G01*
D02*
G37*
G36*
X381500Y696000D02*
G75*
D01*
G03X381500Y696000I1500J0*
G01*
D02*
G37*
G36*
X388395Y698046D02*
G74*
D01*
G03X386097Y700868I5394J2046*
G01*
X386097Y700868D01*
X387410Y702182D01*
X385188Y704404D01*
X384771Y703987D01*
G75*
D01*
G03X384771Y700377I1803J-1805*
G01*
X384771Y700377D01*
X385046Y700102D01*
X385046Y698046D01*
X388395Y698046D01*
D02*
G37*
G36*
X347046Y699395D02*
X347046Y699395D01*
X347046Y696046D01*
X350395Y696046D01*
G74*
D01*
G03X347046Y699395I5394J2045*
G01*
D02*
G37*
G36*
X347501Y688800D02*
X347501Y688800D01*
X347501Y684501D01*
X352052Y684501D01*
X352052Y686500D01*
G74*
D01*
G03X349500Y689052I2552J0*
G01*
X349500Y689052D01*
X347969Y689052D01*
G74*
D01*
G03X350395Y691954I2969J4947*
G01*
X350395Y691954D01*
X347046Y691954D01*
X347046Y688605D01*
G74*
D01*
G03X347501Y688800I2043J5395*
G01*
D02*
G37*
G36*
X343500Y694000D02*
G75*
D01*
G03X343500Y694000I1500J0*
G01*
D02*
G37*
G36*
X339605Y696046D02*
X339605Y696046D01*
X342954Y696046D01*
X342954Y699395D01*
G74*
D01*
G03X339605Y696046I2045J5394*
G01*
D02*
G37*
G36*
X342499Y688800D02*
G74*
D01*
G03X342954Y688605I2498J5201*
G01*
X342954Y688605D01*
X342954Y691954D01*
X339605Y691954D01*
G74*
D01*
G03X342031Y689052I5395J2045*
G01*
X342031Y689052D01*
X340500Y689052D01*
G75*
D01*
G03X337948Y686500I0J-2552*
G01*
X337948Y686500D01*
X337948Y684501D01*
X342499Y684501D01*
X342499Y688800D01*
D02*
G37*
G36*
X284046Y694395D02*
X284046Y694395D01*
X284046Y691046D01*
X287395Y691046D01*
G74*
D01*
G03X284046Y694395I5394J2045*
G01*
D02*
G37*
G36*
X287395Y686954D02*
X287395Y686954D01*
X284046Y686954D01*
X284046Y683605D01*
G74*
D01*
G03X287395Y686954I2045J5394*
G01*
D02*
G37*
G36*
X280500Y689000D02*
G75*
D01*
G03X280500Y689000I1500J0*
G01*
D02*
G37*
G36*
X276605Y691046D02*
X276605Y691046D01*
X279954Y691046D01*
X279954Y694395D01*
G74*
D01*
G03X276605Y691046I2045J5394*
G01*
D02*
G37*
G36*
X279954Y683605D02*
X279954Y683605D01*
X279954Y686954D01*
X276605Y686954D01*
G74*
D01*
G03X279954Y683605I5394J2045*
G01*
D02*
G37*
G36*
X446605Y661046D02*
X446605Y661046D01*
X449954Y661046D01*
X449954Y664395D01*
G74*
D01*
G03X446605Y661046I2045J5394*
G01*
D02*
G37*
G36*
X454046Y664395D02*
X454046Y664395D01*
X454046Y661046D01*
X457395Y661046D01*
G74*
D01*
G03X454046Y664395I5394J2045*
G01*
D02*
G37*
G36*
X333500Y677000D02*
G75*
D01*
G03X333500Y677000I1500J0*
G01*
D02*
G37*
G36*
X457395Y656954D02*
X457395Y656954D01*
X454046Y656954D01*
X454046Y653605D01*
G74*
D01*
G03X457395Y656954I2045J5394*
G01*
D02*
G37*
G36*
X449954Y653605D02*
X449954Y653605D01*
X449954Y656954D01*
X446605Y656954D01*
G74*
D01*
G03X449954Y653605I5394J2045*
G01*
D02*
G37*
G36*
X450500Y659000D02*
G75*
D01*
G03X450500Y659000I1500J0*
G01*
D02*
G37*
G36*
X434500Y657000D02*
G75*
D01*
G03X434500Y657000I1500J0*
G01*
D02*
G37*
G36*
X430605Y659046D02*
X430605Y659046D01*
X433954Y659046D01*
X433954Y662395D01*
G74*
D01*
G03X430605Y659046I2045J5394*
G01*
D02*
G37*
G36*
X438046Y662395D02*
X438046Y662395D01*
X438046Y659046D01*
X441395Y659046D01*
G74*
D01*
G03X438046Y662395I5394J2045*
G01*
D02*
G37*
G36*
X383771Y687377D02*
X383771Y687377D01*
X384188Y686960D01*
X386410Y689182D01*
X384188Y691404D01*
X383771Y690987D01*
G75*
D01*
G03X383771Y687377I1803J-1805*
G01*
D02*
G37*
G36*
X285046Y655395D02*
X285046Y655395D01*
X285046Y652046D01*
X288395Y652046D01*
G74*
D01*
G03X285046Y655395I5394J2045*
G01*
D02*
G37*
G36*
X288395Y647954D02*
X288395Y647954D01*
X285046Y647954D01*
X285046Y644605D01*
G74*
D01*
G03X288395Y647954I2045J5394*
G01*
D02*
G37*
G36*
X281500Y650000D02*
G75*
D01*
G03X281500Y650000I1500J0*
G01*
D02*
G37*
G36*
X277605Y652046D02*
X277605Y652046D01*
X280954Y652046D01*
X280954Y655395D01*
G74*
D01*
G03X277605Y652046I2045J5394*
G01*
D02*
G37*
G36*
X280954Y644605D02*
X280954Y644605D01*
X280954Y647954D01*
X277605Y647954D01*
G74*
D01*
G03X280954Y644605I5394J2045*
G01*
D02*
G37*
G36*
X279954Y554605D02*
X279954Y554605D01*
X279954Y557954D01*
X276605Y557954D01*
G74*
D01*
G03X279954Y554605I5394J2045*
G01*
D02*
G37*
G36*
X272293Y542337D02*
X272293Y542337D01*
X270839Y542337D01*
G75*
D01*
G03X270926Y535463I-15639J-3635*
G01*
X270926Y535463D01*
X272441Y535463D01*
G75*
D01*
G03X272293Y542337I4559J3537*
G01*
D02*
G37*
G36*
X287395Y557954D02*
X287395Y557954D01*
X284046Y557954D01*
X284046Y554605D01*
G74*
D01*
G03X287395Y557954I2045J5394*
G01*
D02*
G37*
G36*
X331302Y619250D02*
G74*
D01*
G03X328750Y621802I2552J0*
G01*
X328750Y621802D01*
X327719Y621802D01*
X327719Y618219D01*
X331302Y618219D01*
X331302Y619250D01*
D02*
G37*
G36*
X344046Y602172D02*
X344046Y602172D01*
X344046Y600046D01*
X347395Y600046D01*
G74*
D01*
G03X345008Y602924I5394J2045*
G01*
G75*
D01*
G03X345552Y604500I-2008J1575*
G01*
X345552Y604500D01*
X345552Y605531D01*
X341969Y605531D01*
X341969Y601948D01*
X343000Y601948D01*
G74*
D01*
G03X344046Y602172I0J2552*
G01*
D02*
G37*
G36*
X322750Y621802D02*
G75*
D01*
G03X321250Y621315I-1J-2552*
G01*
G74*
D01*
G03X319750Y621802I1499J2065*
G01*
X319750Y621802D01*
X318719Y621802D01*
X318719Y618219D01*
X323781Y618219D01*
X323781Y621802D01*
X322750Y621802D01*
D02*
G37*
G36*
X311198Y619250D02*
X311198Y619250D01*
X311198Y618219D01*
X314781Y618219D01*
X314781Y621802D01*
X313750Y621802D01*
G75*
D01*
G03X311198Y619250I0J-2552*
G01*
D02*
G37*
G36*
X241521Y616873D02*
G75*
D01*
G03X241521Y613263I1803J-1805*
G01*
X241521Y613263D01*
X241938Y612846D01*
X244160Y615068D01*
X241938Y617290D01*
X241521Y616873D01*
D02*
G37*
G36*
X248021Y606763D02*
X248021Y606763D01*
X248438Y606346D01*
X250660Y608568D01*
X249790Y609438D01*
X248438Y610790D01*
X247568Y611660D01*
X245346Y609438D01*
X245763Y609021D01*
G74*
D01*
G03X247288Y608288I1805J1803*
G01*
G74*
D01*
G03X248021Y606763I2537J281*
G01*
D02*
G37*
G36*
X347395Y595954D02*
X347395Y595954D01*
X344046Y595954D01*
X344046Y592605D01*
G74*
D01*
G03X347395Y595954I2045J5394*
G01*
D02*
G37*
G36*
X340500Y598000D02*
G75*
D01*
G03X340500Y598000I1500J0*
G01*
D02*
G37*
G36*
X351605Y595046D02*
X351605Y595046D01*
X354954Y595046D01*
X354954Y598395D01*
G74*
D01*
G03X351605Y595046I2045J5394*
G01*
D02*
G37*
G36*
X355500Y593000D02*
G75*
D01*
G03X355500Y593000I1500J0*
G01*
D02*
G37*
G36*
X360358Y595046D02*
G74*
D01*
G03X361740Y594461I1642J1954*
G01*
X361740Y594461D01*
X361740Y595046D01*
X362395Y595046D01*
G74*
D01*
G03X361740Y596290I5394J2046*
G01*
X361740Y596290D01*
X361740Y601740D01*
X359448Y601740D01*
X359448Y598225D01*
G74*
D01*
G03X359046Y598395I2447J5226*
G01*
X359046Y598395D01*
X359046Y595046D01*
X360358Y595046D01*
D02*
G37*
G36*
X252250Y591698D02*
X252250Y591698D01*
X253281Y591698D01*
X253281Y595281D01*
X249698Y595281D01*
X249698Y594250D01*
G75*
D01*
G03X252250Y591698I2552J0*
G01*
D02*
G37*
G36*
X251994Y602789D02*
G74*
D01*
G03X249698Y600250I255J2538*
G01*
X249698Y600250D01*
X249698Y599219D01*
X253281Y599219D01*
X253281Y601897D01*
G75*
D01*
G03X255873Y602521I787J2428*
G01*
X255873Y602521D01*
X256290Y602938D01*
X254068Y605160D01*
X251846Y602938D01*
X251994Y602789D01*
D02*
G37*
G36*
X284219Y565326D02*
G74*
D01*
G03X284046Y565395I2223J5323*
G01*
X284046Y565395D01*
X284046Y562046D01*
X287395Y562046D01*
G74*
D01*
G03X286791Y563215I5394J2046*
G01*
G75*
D01*
G03X287802Y565250I-1541J2034*
G01*
X287802Y565250D01*
X287802Y566281D01*
X284219Y566281D01*
X284219Y565326D01*
D02*
G37*
G36*
X305302Y561750D02*
X305302Y561750D01*
X305302Y562781D01*
X301719Y562781D01*
X301719Y559198D01*
X302750Y559198D01*
G75*
D01*
G03X305302Y561750I0J2552*
G01*
D02*
G37*
G36*
X280500Y560000D02*
G75*
D01*
G03X280500Y560000I1500J0*
G01*
D02*
G37*
G36*
X448052Y523768D02*
G74*
D01*
G03X450145Y526454I3302J4732*
G01*
X450145Y526454D01*
X446796Y526454D01*
X446796Y524675D01*
G74*
D01*
G03X446000Y524802I795J2425*
G01*
X446000Y524802D01*
X444969Y524802D01*
X444969Y521219D01*
X448552Y521219D01*
X448552Y522250D01*
G74*
D01*
G03X448052Y523768I2552J1*
G01*
D02*
G37*
G36*
X443250Y528500D02*
G75*
D01*
G03X443250Y528500I1500J0*
G01*
D02*
G37*
G36*
X405046Y536395D02*
X405046Y536395D01*
X405046Y533046D01*
X408395Y533046D01*
G74*
D01*
G03X405046Y536395I5394J2045*
G01*
D02*
G37*
G36*
X407439Y527314D02*
G74*
D01*
G03X408395Y528954I4438J3686*
G01*
X408395Y528954D01*
X405046Y528954D01*
X405046Y527553D01*
G74*
D01*
G03X401378Y526714I255J9553*
G01*
X401378Y526714D01*
X405300Y522792D01*
X409222Y526714D01*
G74*
D01*
G03X407439Y527314I3924J8712*
G01*
D02*
G37*
G36*
X401500Y531000D02*
G75*
D01*
G03X401500Y531000I1500J0*
G01*
D02*
G37*
G36*
X397605Y533046D02*
X397605Y533046D01*
X400954Y533046D01*
X400954Y536395D01*
G74*
D01*
G03X397605Y533046I2045J5394*
G01*
D02*
G37*
G36*
X400954Y525605D02*
X400954Y525605D01*
X400954Y528954D01*
X397605Y528954D01*
G74*
D01*
G03X400954Y525605I5394J2045*
G01*
D02*
G37*
G36*
X368850Y568933D02*
X368850Y568933D01*
X362850Y568933D01*
G75*
D01*
G03X360067Y566150I0J-2783*
G01*
X360067Y566150D01*
X360067Y540750D01*
G75*
D01*
G03X362850Y537967I2783J0*
G01*
X362850Y537967D01*
X368850Y537967D01*
G75*
D01*
G03X371633Y540750I0J2783*
G01*
X371633Y540750D01*
X371633Y566150D01*
G74*
D01*
G03X368850Y568933I2783J0*
G01*
D02*
G37*
G36*
X381550Y568933D02*
X381550Y568933D01*
X375550Y568933D01*
G75*
D01*
G03X372767Y566150I0J-2783*
G01*
X372767Y566150D01*
X372767Y540750D01*
G75*
D01*
G03X375550Y537967I2783J0*
G01*
X375550Y537967D01*
X381550Y537967D01*
G75*
D01*
G03X384333Y540750I0J2783*
G01*
X384333Y540750D01*
X384333Y566150D01*
G74*
D01*
G03X381550Y568933I2783J0*
G01*
D02*
G37*
G36*
X446000Y513698D02*
G75*
D01*
G03X448552Y516250I0J2552*
G01*
X448552Y516250D01*
X448552Y517281D01*
X444969Y517281D01*
X444969Y513698D01*
X446000Y513698D01*
D02*
G37*
G36*
X409222Y509286D02*
X409222Y509286D01*
X405300Y513208D01*
X401378Y509286D01*
G75*
D01*
G03X409222Y509286I3922J8713*
G01*
D02*
G37*
G36*
X402300Y518000D02*
G75*
D01*
G03X402300Y518000I3000J0*
G01*
D02*
G37*
G36*
X381550Y527533D02*
X381550Y527533D01*
X380601Y527533D01*
X380601Y514101D01*
X384333Y514101D01*
X384333Y524750D01*
G74*
D01*
G03X381550Y527533I2783J0*
G01*
D02*
G37*
G36*
X396586Y521922D02*
G75*
D01*
G03X396586Y514078I8713J-3922*
G01*
X396586Y514078D01*
X400508Y518000D01*
X396586Y521922D01*
D02*
G37*
G36*
X375550Y527533D02*
G75*
D01*
G03X372767Y524750I0J-2783*
G01*
X372767Y524750D01*
X372767Y514101D01*
X376499Y514101D01*
X376499Y527533D01*
X375550Y527533D01*
D02*
G37*
G36*
X346233Y524750D02*
G74*
D01*
G03X343450Y527533I2783J0*
G01*
X343450Y527533D01*
X342501Y527533D01*
X342501Y514101D01*
X346233Y514101D01*
X346233Y524750D01*
D02*
G37*
G36*
X350150Y527533D02*
G75*
D01*
G03X347367Y524750I0J-2783*
G01*
X347367Y524750D01*
X347367Y514101D01*
X351099Y514101D01*
X351099Y527533D01*
X350150Y527533D01*
D02*
G37*
G36*
X358933Y524750D02*
G74*
D01*
G03X356150Y527533I2783J0*
G01*
X356150Y527533D01*
X355201Y527533D01*
X355201Y514101D01*
X358933Y514101D01*
X358933Y524750D01*
D02*
G37*
G36*
X337450Y527533D02*
G75*
D01*
G03X334667Y524750I0J-2783*
G01*
X334667Y524750D01*
X334667Y514101D01*
X338399Y514101D01*
X338399Y527533D01*
X337450Y527533D01*
D02*
G37*
G36*
X272910Y509841D02*
X272910Y509841D01*
X279500Y503252D01*
X286090Y509841D01*
G75*
D01*
G03X272910Y509841I-6590J-14640*
G01*
D02*
G37*
G36*
X380046Y496395D02*
X380046Y496395D01*
X380046Y493046D01*
X383395Y493046D01*
G74*
D01*
G03X380046Y496395I5394J2045*
G01*
D02*
G37*
G36*
X383395Y488954D02*
X383395Y488954D01*
X380046Y488954D01*
X380046Y485605D01*
G74*
D01*
G03X383395Y488954I2045J5394*
G01*
D02*
G37*
G36*
X381550Y496567D02*
G75*
D01*
G03X384333Y499350I0J2783*
G01*
X384333Y499350D01*
X384333Y509999D01*
X380601Y509999D01*
X380601Y496567D01*
X381550Y496567D01*
D02*
G37*
G36*
X372605Y493046D02*
X372605Y493046D01*
X375954Y493046D01*
X375954Y496395D01*
G74*
D01*
G03X372605Y493046I2045J5394*
G01*
D02*
G37*
G36*
X375954Y485605D02*
X375954Y485605D01*
X375954Y488954D01*
X372605Y488954D01*
G74*
D01*
G03X375954Y485605I5394J2045*
G01*
D02*
G37*
G36*
X376500Y491000D02*
G75*
D01*
G03X376500Y491000I1500J0*
G01*
D02*
G37*
G36*
X372767Y499350D02*
G75*
D01*
G03X375550Y496567I2783J0*
G01*
X375550Y496567D01*
X376499Y496567D01*
X376499Y509999D01*
X372767Y509999D01*
X372767Y499350D01*
D02*
G37*
G36*
X345395Y489954D02*
X345395Y489954D01*
X342046Y489954D01*
X342046Y486605D01*
G74*
D01*
G03X345395Y489954I2045J5394*
G01*
D02*
G37*
G36*
X358395Y489954D02*
X358395Y489954D01*
X355046Y489954D01*
X355046Y486605D01*
G74*
D01*
G03X358395Y489954I2045J5394*
G01*
D02*
G37*
G36*
X350954Y486605D02*
X350954Y486605D01*
X350954Y489954D01*
X347605Y489954D01*
G74*
D01*
G03X350954Y486605I5394J2045*
G01*
D02*
G37*
G36*
X351500Y492000D02*
G75*
D01*
G03X351500Y492000I1500J0*
G01*
D02*
G37*
G36*
X343526Y496568D02*
G75*
D01*
G03X346233Y499350I-76J2782*
G01*
X346233Y499350D01*
X346233Y509999D01*
X342501Y509999D01*
X342501Y497200D01*
G74*
D01*
G03X342046Y497395I2498J5201*
G01*
X342046Y497395D01*
X342046Y494046D01*
X345395Y494046D01*
G74*
D01*
G03X343526Y496568I5395J2044*
G01*
D02*
G37*
G36*
X356498Y496588D02*
G75*
D01*
G03X358933Y499350I-348J2761*
G01*
X358933Y499350D01*
X358933Y509999D01*
X355201Y509999D01*
X355201Y497334D01*
G74*
D01*
G03X355046Y497395I2190J5338*
G01*
X355046Y497395D01*
X355046Y494046D01*
X358395Y494046D01*
G74*
D01*
G03X356498Y496588I5394J2046*
G01*
D02*
G37*
G36*
X347605Y494046D02*
X347605Y494046D01*
X350954Y494046D01*
X350954Y496567D01*
X351099Y496567D01*
X351099Y509999D01*
X347367Y509999D01*
X347367Y499350D01*
G75*
D01*
G03X349557Y496630I2783J-1*
G01*
G74*
D01*
G03X347605Y494046I3442J4630*
G01*
D02*
G37*
G36*
X337954Y486605D02*
X337954Y486605D01*
X337954Y489954D01*
X334605Y489954D01*
G74*
D01*
G03X337954Y486605I5394J2045*
G01*
D02*
G37*
G36*
X360531Y588437D02*
G74*
D01*
G03X362395Y590954I3530J4563*
G01*
X362395Y590954D01*
X359046Y590954D01*
X359046Y588437D01*
X354954Y588437D01*
X354954Y590954D01*
X351605Y590954D01*
G74*
D01*
G03X353469Y588437I5394J2046*
G01*
X353469Y588437D01*
X349700Y588437D01*
G75*
D01*
G03X348993Y588363I2J-3437*
G01*
G74*
D01*
G03X347270Y587430I707J3363*
G01*
X347270Y587430D01*
X328773Y568933D01*
X324750Y568933D01*
G75*
D01*
G03X321967Y566150I0J-2783*
G01*
X321967Y566150D01*
X321967Y540750D01*
G75*
D01*
G03X324169Y538028I2783J0*
G01*
G75*
D01*
G03X323563Y528365I2831J-5028*
G01*
X323563Y528365D01*
X323563Y527268D01*
G74*
D01*
G03X321967Y524750I1187J2517*
G01*
X321967Y524750D01*
X321967Y499350D01*
G75*
D01*
G03X324750Y496567I2783J0*
G01*
X324750Y496567D01*
X330750Y496567D01*
G75*
D01*
G03X333533Y499350I0J2783*
G01*
X333533Y499350D01*
X333533Y524750D01*
G74*
D01*
G03X330750Y527533I2783J0*
G01*
X330750Y527533D01*
X330437Y527533D01*
X330437Y528365D01*
G75*
D01*
G03X329937Y537967I-3436J4635*
G01*
X329937Y537967D01*
X330750Y537967D01*
G75*
D01*
G03X333533Y540750I0J2783*
G01*
X333533Y540750D01*
X333533Y563973D01*
X334667Y565107D01*
X334667Y540750D01*
G75*
D01*
G03X337450Y537967I2783J0*
G01*
X337450Y537967D01*
X343450Y537967D01*
G75*
D01*
G03X346233Y540750I0J2783*
G01*
X346233Y540750D01*
X346233Y564073D01*
X347367Y565207D01*
X347367Y540750D01*
G75*
D01*
G03X350150Y537967I2783J0*
G01*
X350150Y537967D01*
X356150Y537967D01*
G75*
D01*
G03X358933Y540750I0J2783*
G01*
X358933Y540750D01*
X358933Y566150D01*
G74*
D01*
G03X356150Y568933I2783J0*
G01*
X356150Y568933D01*
X351093Y568933D01*
X354723Y572563D01*
X367365Y572563D01*
G75*
D01*
G03X375611Y580500I4635J3437*
G01*
G75*
D01*
G03X367365Y588437I-3617J4495*
G01*
X367365Y588437D01*
X360531Y588437D01*
D02*
G37*
G36*
X334605Y494046D02*
X334605Y494046D01*
X337954Y494046D01*
X337954Y496567D01*
X338399Y496567D01*
X338399Y509999D01*
X334667Y509999D01*
X334667Y499350D01*
G75*
D01*
G03X336636Y496688I2783J-1*
G01*
G74*
D01*
G03X334605Y494046I3364J4688*
G01*
D02*
G37*
G36*
X338500Y492000D02*
G75*
D01*
G03X338500Y492000I1500J0*
G01*
D02*
G37*
G36*
X294141Y501790D02*
X294141Y501790D01*
X287552Y495200D01*
X294141Y488610D01*
G75*
D01*
G03X294141Y501790I-14640J6590*
G01*
D02*
G37*
G36*
X264859Y501790D02*
G75*
D01*
G03X264859Y488610I14640J-6590*
G01*
X264859Y488610D01*
X271448Y495200D01*
X264859Y501790D01*
D02*
G37*
G36*
X275000Y495200D02*
G75*
D01*
G03X275000Y495200I4500J0*
G01*
D02*
G37*
G36*
X426605Y476046D02*
X426605Y476046D01*
X429954Y476046D01*
X429954Y479395D01*
G74*
D01*
G03X426605Y476046I2045J5394*
G01*
D02*
G37*
G36*
X434046Y479395D02*
X434046Y479395D01*
X434046Y476046D01*
X437395Y476046D01*
G74*
D01*
G03X434046Y479395I5394J2045*
G01*
D02*
G37*
G36*
X437395Y471954D02*
X437395Y471954D01*
X434046Y471954D01*
X434046Y468605D01*
G74*
D01*
G03X437395Y471954I2045J5394*
G01*
D02*
G37*
G36*
X429954Y468605D02*
X429954Y468605D01*
X429954Y471954D01*
X426605Y471954D01*
G74*
D01*
G03X429954Y468605I5394J2045*
G01*
D02*
G37*
G36*
X430500Y474000D02*
G75*
D01*
G03X430500Y474000I1500J0*
G01*
D02*
G37*
G36*
X286090Y480559D02*
X286090Y480559D01*
X279500Y487148D01*
X272910Y480559D01*
G75*
D01*
G03X286090Y480559I6590J14640*
G01*
D02*
G37*
%LPD*%
G36*
X408000Y648346D02*
G75*
D01*
G02X408000Y649654I72J654*
G01*
X408000Y649654D01*
X408000Y658000D01*
X362000Y658000D01*
X362000Y612000D01*
X408000Y612000D01*
X408000Y644342D01*
X407163Y644342D01*
G75*
D01*
G02X407163Y645658I0J658*
G01*
X407163Y645658D01*
X408000Y645658D01*
X408000Y648346D01*
D02*
G37*
%LPC*%
G36*
X363995Y617000D02*
G75*
D01*
G02X363995Y617000I3005J0*
G01*
D02*
G37*
G36*
X375995Y617000D02*
G75*
D01*
G02X375995Y617000I3005J0*
G01*
D02*
G37*
G36*
X387995Y617000D02*
G75*
D01*
G02X387995Y617000I3005J0*
G01*
D02*
G37*
G36*
X399995Y617000D02*
G75*
D01*
G02X399995Y617000I3005J0*
G01*
D02*
G37*
G36*
X363995Y641000D02*
G75*
D01*
G02X363995Y641000I3005J0*
G01*
D02*
G37*
G36*
X375995Y641000D02*
G75*
D01*
G02X375995Y641000I3005J0*
G01*
D02*
G37*
G36*
X375995Y629000D02*
G75*
D01*
G02X375995Y629000I3005J0*
G01*
D02*
G37*
G36*
X363995Y629000D02*
G75*
D01*
G02X363995Y629000I3005J0*
G01*
D02*
G37*
G36*
X387995Y641000D02*
G75*
D01*
G02X387995Y641000I3005J0*
G01*
D02*
G37*
G36*
X387995Y629000D02*
G75*
D01*
G02X387995Y629000I3005J0*
G01*
D02*
G37*
G36*
X399995Y641000D02*
G75*
D01*
G02X399995Y641000I3005J0*
G01*
D02*
G37*
G36*
X399995Y629000D02*
G75*
D01*
G02X399995Y629000I3005J0*
G01*
D02*
G37*
G36*
X375995Y653000D02*
G75*
D01*
G02X375995Y653000I3005J0*
G01*
D02*
G37*
G36*
X363995Y653000D02*
G75*
D01*
G02X363995Y653000I3005J0*
G01*
D02*
G37*
G36*
X387995Y653000D02*
G75*
D01*
G02X387995Y653000I3005J0*
G01*
D02*
G37*
G36*
X399995Y653000D02*
G75*
D01*
G02X399995Y653000I3005J0*
G01*
D02*
G37*
%LPD*%
G36*
X367365Y581563D02*
G74*
D01*
G03X368389Y580500I4633J3439*
G01*
G74*
D01*
G03X367365Y579437I3609J4501*
G01*
X367365Y579437D01*
X353300Y579437D01*
G75*
D01*
G03X352239Y579269I0J-3437*
G01*
G74*
D01*
G03X350870Y578430I1061J3268*
G01*
X350870Y578430D01*
X341373Y568933D01*
X338493Y568933D01*
X351123Y581563D01*
X367365Y581563D01*
D02*
G37*
G36*
X291442Y602028D02*
G75*
D01*
G02X292764Y602567I-441J2972*
G01*
X292764Y602567D01*
X295006Y600325D01*
G74*
D01*
G02X295425Y599906I206J625*
G01*
X295425Y599906D01*
X298363Y596968D01*
G74*
D01*
G02X298558Y596500I463J468*
G01*
X298558Y596500D01*
X298558Y595859D01*
X299472Y595859D01*
X299472Y613859D01*
X281472Y613859D01*
X281472Y603458D01*
X284400Y603458D01*
G75*
D01*
G02X284400Y602142I0J-658*
G01*
X284400Y602142D01*
X281472Y602142D01*
X281472Y595859D01*
X297242Y595859D01*
X297242Y596227D01*
X291442Y602028D01*
D02*
G37*
G36*
X331413Y670501D02*
G75*
D01*
G03X330429Y665499I4587J-3500*
G01*
X330429Y665499D01*
X327501Y665499D01*
X327501Y663052D01*
X322499Y663052D01*
X322499Y665499D01*
X320052Y665499D01*
X320052Y666500D01*
G74*
D01*
G03X318037Y668995I2552J0*
G01*
X318037Y668995D01*
X318037Y670177D01*
X318361Y670501D01*
X322499Y670501D01*
X322499Y674639D01*
X322808Y674948D01*
X327501Y674948D01*
X327501Y670501D01*
X331413Y670501D01*
D02*
G37*
G36*
X299409Y583268D02*
X299409Y583268D01*
X299409Y587922D01*
X302024Y587922D01*
X302024Y586774D01*
G74*
D01*
G02X303900Y585002I2923J4974*
G01*
X303900Y585002D01*
X306176Y587278D01*
X303433Y590021D01*
G75*
D01*
G02X302427Y592454I2430J2429*
G01*
X302427Y592454D01*
X302427Y593307D01*
X302024Y593307D01*
X302024Y590796D01*
X299409Y590796D01*
X299409Y593314D01*
X297024Y593314D01*
X297024Y587184D01*
G74*
D01*
G02X297054Y587195I2001J5412*
G01*
X297054Y587195D01*
X297054Y583846D01*
X296814Y583846D01*
G74*
D01*
G02X296535Y583356I2343J1010*
G01*
X296535Y583356D01*
X296535Y582307D01*
X296472Y582307D01*
G75*
D01*
G02X296437Y582307I-17J2552*
G01*
X296437Y582307D01*
X296437Y581923D01*
X299058Y579302D01*
X300442Y579302D01*
X301971Y580831D01*
G75*
D01*
G02X302521Y583623I2354J987*
G01*
X302521Y583623D01*
X302744Y583846D01*
X301814Y583846D01*
G74*
D01*
G02X300430Y582494I2341J1013*
G01*
G75*
D01*
G02X299409Y583268I-1330J-694*
G01*
D02*
G37*
G36*
X403849Y692413D02*
G75*
D01*
G03X403909Y692414I-27J3437*
G01*
G74*
D01*
G03X404801Y692548I60J3435*
G01*
X404801Y692548D01*
X405449Y691900D01*
X405449Y684996D01*
X402957Y682504D01*
G75*
D01*
G03X402229Y684623I-2531J315*
G01*
X402229Y684623D01*
X397987Y688865D01*
G74*
D01*
G03X397737Y689084I1802J1805*
G01*
G74*
D01*
G03X398987Y689771I555J2491*
G01*
X398987Y689771D01*
X401630Y692413D01*
X403849Y692413D01*
D02*
G37*
G36*
X319750Y601698D02*
X319750Y601698D01*
X316562Y601698D01*
X319123Y599137D01*
X326696Y599137D01*
X327189Y599630D01*
G74*
D01*
G02X328030Y600247I2429J2430*
G01*
G74*
D01*
G02X329770Y601910I4769J3248*
G01*
G74*
D01*
G02X328750Y601698I1018J2340*
G01*
X328750Y601698D01*
X322750Y601698D01*
G75*
D01*
G02X321250Y602185I-1J2552*
G01*
G74*
D01*
G02X319750Y601698I1499J2065*
G01*
D02*
G37*
G36*
X438500Y524315D02*
G75*
D01*
G02X440000Y524802I1499J-2065*
G01*
X440000Y524802D01*
X440321Y524802D01*
G74*
D01*
G02X439801Y525534I4429J3697*
G01*
G75*
D01*
G02X437437Y525805I-800J3466*
G01*
X437437Y525805D01*
X437437Y524765D01*
G74*
D01*
G02X438500Y524315I438J2514*
G01*
D02*
G37*
G36*
X332052Y672040D02*
G74*
D01*
G03X332678Y671718I2947J4960*
G01*
G74*
D01*
G03X332052Y671208I3323J4717*
G01*
X332052Y671208D01*
X332052Y672040D01*
D02*
G37*
G36*
X276815Y572750D02*
G74*
D01*
G02X277000Y572455I2064J1500*
G01*
G74*
D01*
G02X277185Y572750I2249J1205*
G01*
G74*
D01*
G02X277000Y573045I2064J1500*
G01*
G74*
D01*
G02X276815Y572750I2249J1205*
G01*
D02*
G37*
G36*
X594316Y595830D02*
G74*
D01*
G02X594634Y595438I4318J3828*
G01*
G74*
D01*
G03X594627Y595830I183884J3088*
G01*
X594627Y595830D01*
X594316Y595830D01*
D02*
G37*
G54D11*
X291442Y602028D02*
G75*
D01*
G02X292764Y602567I-441J2972*
G01*
X295006Y600325D01*
G74*
D01*
G02X295425Y599906I206J625*
G01*
X298363Y596968D01*
G74*
D01*
G02X298558Y596500I463J468*
G01*
X298558Y595859D01*
X299472Y595859D01*
X299472Y613859D01*
X281472Y613859D01*
X281472Y603458D01*
X284400Y603458D01*
G75*
D01*
G02X284400Y602142I0J-658*
G01*
X281472Y602142D01*
X281472Y595859D01*
X297242Y595859D01*
X297242Y596227D01*
X291442Y602028D01*
X363995Y617000D02*
G75*
D01*
G02X363995Y617000I3005J0*
G01*
X375995Y617000D02*
G75*
D01*
G02X375995Y617000I3005J0*
G01*
X387995Y617000D02*
G75*
D01*
G02X387995Y617000I3005J0*
G01*
X399995Y617000D02*
G75*
D01*
G02X399995Y617000I3005J0*
G01*
X363995Y641000D02*
G75*
D01*
G02X363995Y641000I3005J0*
G01*
X375995Y641000D02*
G75*
D01*
G02X375995Y641000I3005J0*
G01*
X375995Y629000D02*
G75*
D01*
G02X375995Y629000I3005J0*
G01*
X363995Y629000D02*
G75*
D01*
G02X363995Y629000I3005J0*
G01*
X387995Y641000D02*
G75*
D01*
G02X387995Y641000I3005J0*
G01*
X387995Y629000D02*
G75*
D01*
G02X387995Y629000I3005J0*
G01*
X399995Y641000D02*
G75*
D01*
G02X399995Y641000I3005J0*
G01*
X399995Y629000D02*
G75*
D01*
G02X399995Y629000I3005J0*
G01*
X375995Y653000D02*
G75*
D01*
G02X375995Y653000I3005J0*
G01*
X363995Y653000D02*
G75*
D01*
G02X363995Y653000I3005J0*
G01*
X387995Y653000D02*
G75*
D01*
G02X387995Y653000I3005J0*
G01*
X399995Y653000D02*
G75*
D01*
G02X399995Y653000I3005J0*
G01*
X408000Y648346D02*
G75*
D01*
G02X408000Y649654I72J654*
G01*
X408000Y658000D01*
X362000Y658000D01*
X362000Y612000D01*
X408000Y612000D01*
X408000Y644342D01*
X407163Y644342D01*
G75*
D01*
G02X407163Y645658I0J658*
G01*
X408000Y645658D01*
X408000Y648346D01*
X224255Y592300D02*
G75*
D01*
G02X224255Y592300I186495J0*
G01*
G54D12*
X462802Y572750D02*
X462802Y575072D01*
X453928Y575072D01*
X453928Y570198D01*
X460250Y570198D01*
G75*
D01*
G03X462802Y572750I0J2552*
G01*
X462802Y582750D02*
G74*
D01*
G03X460250Y585302I2552J0*
G01*
X453928Y585302D01*
X453928Y580428D01*
X462802Y580428D01*
X462802Y582750D01*
X448000Y621698D02*
G75*
D01*
G03X450552Y624250I0J2552*
G01*
X450552Y625281D01*
X446969Y625281D01*
X446969Y621698D01*
X448000Y621698D01*
X457395Y632954D02*
X454046Y632954D01*
X454046Y629605D01*
G74*
D01*
G03X457395Y632954I2045J5394*
G01*
X446969Y632175D02*
X446969Y629219D01*
X450552Y629219D01*
X450552Y630250D01*
G74*
D01*
G03X449954Y631892I2552J0*
G01*
X449954Y632954D01*
X446605Y632954D01*
G74*
D01*
G03X446969Y632175I5394J2046*
G01*
X450500Y635000D02*
G75*
D01*
G03X450500Y635000I1500J0*
G01*
X446605Y637046D02*
X449954Y637046D01*
X449954Y640395D01*
G74*
D01*
G03X446605Y637046I2045J5394*
G01*
X454046Y640395D02*
X454046Y637046D01*
X457395Y637046D01*
G74*
D01*
G03X454046Y640395I5394J2045*
G01*
X430448Y604500D02*
G75*
D01*
G03X433000Y601948I2552J0*
G01*
X434031Y601948D01*
X434031Y605531D01*
X430448Y605531D01*
X430448Y604500D01*
X441552Y604500D02*
X441552Y605531D01*
X437969Y605531D01*
X437969Y601948D01*
X439000Y601948D01*
G75*
D01*
G03X441552Y604500I0J2552*
G01*
X445395Y594954D02*
X442046Y594954D01*
X442046Y591605D01*
G74*
D01*
G03X445395Y594954I2045J5394*
G01*
X442046Y602395D02*
X442046Y599046D01*
X445395Y599046D01*
G74*
D01*
G03X442046Y602395I5394J2045*
G01*
X437954Y591605D02*
X437954Y594954D01*
X434605Y594954D01*
G74*
D01*
G03X437954Y591605I5394J2045*
G01*
X442250Y585302D02*
G75*
D01*
G03X439698Y582750I0J-2552*
G01*
X439698Y580428D01*
X448572Y580428D01*
X448572Y585302D01*
X442250Y585302D01*
X434605Y599046D02*
X437954Y599046D01*
X437954Y602395D01*
G74*
D01*
G03X434605Y599046I2045J5394*
G01*
X438500Y597000D02*
G75*
D01*
G03X438500Y597000I1500J0*
G01*
X439698Y572750D02*
G75*
D01*
G03X442250Y570198I2552J0*
G01*
X448572Y570198D01*
X448572Y575072D01*
X439698Y575072D01*
X439698Y572750D01*
X457395Y553954D02*
X454046Y553954D01*
X454046Y550605D01*
G74*
D01*
G03X457395Y553954I2045J5394*
G01*
X448052Y553954D02*
G75*
D01*
G03X448052Y554000I-2552J23*
G01*
X448052Y555031D01*
X444469Y555031D01*
X444469Y551448D01*
X445500Y551448D01*
G74*
D01*
G03X447490Y552401I1J2552*
G01*
G74*
D01*
G03X449954Y550605I4510J3599*
G01*
X449954Y553954D01*
X448052Y553954D01*
X450500Y556000D02*
G75*
D01*
G03X450500Y556000I1500J0*
G01*
X447052Y558969D02*
G74*
D01*
G03X446605Y558046I4949J2967*
G01*
X449954Y558046D01*
X449954Y561395D01*
G74*
D01*
G03X448044Y560201I2044J5395*
G01*
G74*
D01*
G03X445500Y562552I2543J200*
G01*
X444469Y562552D01*
X444469Y558969D01*
X447052Y558969D01*
X454046Y561395D02*
X454046Y558046D01*
X457395Y558046D01*
G74*
D01*
G03X454046Y561395I5394J2045*
G01*
X545500Y704000D02*
G75*
D01*
G03X545500Y704000I1500J0*
G01*
X541605Y706046D02*
X544954Y706046D01*
X544954Y709395D01*
G74*
D01*
G03X541605Y706046I2045J5394*
G01*
X523605Y706046D02*
X526954Y706046D01*
X526954Y709395D01*
G74*
D01*
G03X523605Y706046I2045J5394*
G01*
X531046Y709395D02*
X531046Y706046D01*
X534395Y706046D01*
G74*
D01*
G03X531046Y709395I5394J2045*
G01*
X527500Y704000D02*
G75*
D01*
G03X527500Y704000I1500J0*
G01*
X482954Y653605D02*
X482954Y656954D01*
X479605Y656954D01*
G74*
D01*
G03X482954Y653605I5394J2045*
G01*
X468500Y659000D02*
G75*
D01*
G03X468500Y659000I1500J0*
G01*
X503954Y653605D02*
X503954Y656954D01*
X500605Y656954D01*
G74*
D01*
G03X503954Y653605I5394J2045*
G01*
X467954Y653605D02*
X467954Y656954D01*
X464605Y656954D01*
G74*
D01*
G03X467954Y653605I5394J2045*
G01*
X475395Y656954D02*
X472046Y656954D01*
X472046Y653605D01*
G74*
D01*
G03X475395Y656954I2045J5394*
G01*
X483500Y659000D02*
G75*
D01*
G03X483500Y659000I1500J0*
G01*
X490395Y656954D02*
X487046Y656954D01*
X487046Y653605D01*
G74*
D01*
G03X490395Y656954I2045J5394*
G01*
X504500Y659000D02*
G75*
D01*
G03X504500Y659000I1500J0*
G01*
X516954Y658605D02*
X516954Y661954D01*
X513605Y661954D01*
G74*
D01*
G03X516954Y658605I5394J2045*
G01*
X479605Y661046D02*
X482954Y661046D01*
X482954Y664395D01*
G74*
D01*
G03X479605Y661046I2045J5394*
G01*
X472046Y664395D02*
X472046Y661046D01*
X475395Y661046D01*
G74*
D01*
G03X472046Y664395I5394J2045*
G01*
X464605Y661046D02*
X467954Y661046D01*
X467954Y664395D01*
G74*
D01*
G03X464605Y661046I2045J5394*
G01*
X487046Y664395D02*
X487046Y661046D01*
X490395Y661046D01*
G74*
D01*
G03X487046Y664395I5394J2045*
G01*
X517500Y678000D02*
G75*
D01*
G03X517500Y678000I1500J0*
G01*
X517500Y664000D02*
G75*
D01*
G03X517500Y664000I1500J0*
G01*
X516954Y672605D02*
X516954Y675954D01*
X513605Y675954D01*
G74*
D01*
G03X516954Y672605I5394J2045*
G01*
X508046Y664395D02*
X508046Y661046D01*
X511395Y661046D01*
G74*
D01*
G03X508046Y664395I5394J2045*
G01*
X500605Y661046D02*
X503954Y661046D01*
X503954Y664395D01*
G74*
D01*
G03X500605Y661046I2045J5394*
G01*
X513605Y666046D02*
X516954Y666046D01*
X516954Y669395D01*
G74*
D01*
G03X513605Y666046I2045J5394*
G01*
X517500Y694000D02*
G75*
D01*
G03X517500Y694000I1500J0*
G01*
X516954Y688605D02*
X516954Y691954D01*
X513605Y691954D01*
G74*
D01*
G03X516954Y688605I5394J2045*
G01*
X513605Y696046D02*
X516954Y696046D01*
X516954Y699395D01*
G74*
D01*
G03X513605Y696046I2045J5394*
G01*
X513605Y680046D02*
X516954Y680046D01*
X516954Y683395D01*
G74*
D01*
G03X513605Y680046I2045J5394*
G01*
X549046Y709395D02*
X549046Y706046D01*
X552395Y706046D01*
G74*
D01*
G03X549046Y709395I5394J2045*
G01*
X513605Y620046D02*
X516954Y620046D01*
X516954Y623395D01*
G74*
D01*
G03X513605Y620046I2045J5394*
G01*
X516954Y629605D02*
X516954Y632954D01*
X513605Y632954D01*
G74*
D01*
G03X516954Y629605I5394J2045*
G01*
X511052Y635250D02*
X511052Y636281D01*
X507469Y636281D01*
X507469Y632698D01*
X508046Y632698D01*
X508046Y630046D01*
X511395Y630046D01*
G74*
D01*
G03X509206Y632797I5394J2046*
G01*
G75*
D01*
G03X511052Y635250I-706J2452*
G01*
X511395Y625954D02*
X508046Y625954D01*
X508046Y622605D01*
G74*
D01*
G03X511395Y625954I2045J5394*
G01*
X503954Y622605D02*
X503954Y625954D01*
X500605Y625954D01*
G74*
D01*
G03X503954Y622605I5394J2045*
G01*
X504500Y628000D02*
G75*
D01*
G03X504500Y628000I1500J0*
G01*
X513605Y637046D02*
X516954Y637046D01*
X516954Y640395D01*
G74*
D01*
G03X513605Y637046I2045J5394*
G01*
X517500Y635000D02*
G75*
D01*
G03X517500Y635000I1500J0*
G01*
X490395Y632954D02*
X487046Y632954D01*
X487046Y629605D01*
G74*
D01*
G03X490395Y632954I2045J5394*
G01*
X483500Y635000D02*
G75*
D01*
G03X483500Y635000I1500J0*
G01*
X487046Y640395D02*
X487046Y637046D01*
X490395Y637046D01*
G74*
D01*
G03X487046Y640395I5394J2045*
G01*
X503531Y633215D02*
X503531Y636281D01*
X499948Y636281D01*
X499948Y635250D01*
G75*
D01*
G03X502500Y632698I2552J0*
G01*
X502650Y632698D01*
G74*
D01*
G03X500605Y630046I3350J4698*
G01*
X503954Y630046D01*
X503954Y633395D01*
G74*
D01*
G03X503531Y633215I2046J5394*
G01*
X475395Y632954D02*
X472046Y632954D01*
X472046Y629605D01*
G74*
D01*
G03X475395Y632954I2045J5394*
G01*
X467954Y629605D02*
X467954Y632954D01*
X464605Y632954D01*
G74*
D01*
G03X467954Y629605I5394J2045*
G01*
X468500Y635000D02*
G75*
D01*
G03X468500Y635000I1500J0*
G01*
X464605Y637046D02*
X467954Y637046D01*
X467954Y640395D01*
G74*
D01*
G03X464605Y637046I2045J5394*
G01*
X472046Y640395D02*
X472046Y637046D01*
X475395Y637046D01*
G74*
D01*
G03X472046Y640395I5394J2045*
G01*
X479605Y637046D02*
X482954Y637046D01*
X482954Y640395D01*
G74*
D01*
G03X479605Y637046I2045J5394*
G01*
X482954Y629605D02*
X482954Y632954D01*
X479605Y632954D01*
G74*
D01*
G03X482954Y629605I5394J2045*
G01*
X513605Y606046D02*
X516954Y606046D01*
X516954Y609395D01*
G74*
D01*
G03X513605Y606046I2045J5394*
G01*
X516954Y612605D02*
X516954Y615954D01*
X513605Y615954D01*
G74*
D01*
G03X516954Y612605I5394J2045*
G01*
X517500Y604000D02*
G75*
D01*
G03X517500Y604000I1500J0*
G01*
X517500Y618000D02*
G75*
D01*
G03X517500Y618000I1500J0*
G01*
X587954Y586605D02*
X587954Y589954D01*
X584605Y589954D01*
G74*
D01*
G03X587954Y586605I5394J2045*
G01*
X588500Y592000D02*
G75*
D01*
G03X588500Y592000I1500J0*
G01*
X576395Y589954D02*
X573046Y589954D01*
X573046Y586605D01*
G74*
D01*
G03X576395Y589954I2045J5394*
G01*
X568954Y586605D02*
X568954Y589954D01*
X565605Y589954D01*
G74*
D01*
G03X568954Y586605I5394J2045*
G01*
X569500Y592000D02*
G75*
D01*
G03X569500Y592000I1500J0*
G01*
X554395Y589954D02*
X551046Y589954D01*
X551046Y586605D01*
G74*
D01*
G03X554395Y589954I2045J5394*
G01*
X546954Y586605D02*
X546954Y589954D01*
X543605Y589954D01*
G74*
D01*
G03X546954Y586605I5394J2045*
G01*
X547500Y592000D02*
G75*
D01*
G03X547500Y592000I1500J0*
G01*
X534395Y589954D02*
X531046Y589954D01*
X531046Y586605D01*
G74*
D01*
G03X534395Y589954I2045J5394*
G01*
X526954Y586605D02*
X526954Y589954D01*
X523605Y589954D01*
G74*
D01*
G03X526954Y586605I5394J2045*
G01*
X527500Y592000D02*
G75*
D01*
G03X527500Y592000I1500J0*
G01*
X516954Y598605D02*
X516954Y601954D01*
X513605Y601954D01*
G74*
D01*
G03X516954Y598605I5394J2045*
G01*
X474395Y574954D02*
X471046Y574954D01*
X471046Y571605D01*
G74*
D01*
G03X474395Y574954I2045J5394*
G01*
X466954Y571605D02*
X466954Y574954D01*
X463605Y574954D01*
G74*
D01*
G03X466954Y571605I5394J2045*
G01*
X467500Y577000D02*
G75*
D01*
G03X467500Y577000I1500J0*
G01*
X463605Y579046D02*
X466954Y579046D01*
X466954Y582395D01*
G74*
D01*
G03X463605Y579046I2045J5394*
G01*
X471046Y582395D02*
X471046Y579046D01*
X474395Y579046D01*
G74*
D01*
G03X471046Y582395I5394J2045*
G01*
X545605Y547046D02*
X548954Y547046D01*
X548954Y550395D01*
G74*
D01*
G03X545605Y547046I2045J5394*
G01*
X553046Y550395D02*
X553046Y547046D01*
X556395Y547046D01*
G74*
D01*
G03X553046Y550395I5394J2045*
G01*
X549500Y545000D02*
G75*
D01*
G03X549500Y545000I1500J0*
G01*
X556395Y542954D02*
X553046Y542954D01*
X553046Y539605D01*
G74*
D01*
G03X556395Y542954I2045J5394*
G01*
X548954Y539605D02*
X548954Y542954D01*
X545605Y542954D01*
G74*
D01*
G03X548954Y539605I5394J2045*
G01*
X501605Y513046D02*
X504954Y513046D01*
X504954Y516395D01*
G74*
D01*
G03X501605Y513046I2045J5394*
G01*
X509046Y516395D02*
X509046Y513046D01*
X512395Y513046D01*
G74*
D01*
G03X509046Y516395I5394J2045*
G01*
X512395Y508954D02*
X509046Y508954D01*
X509046Y505605D01*
G74*
D01*
G03X512395Y508954I2045J5394*
G01*
X504954Y505605D02*
X504954Y508954D01*
X501605Y508954D01*
G74*
D01*
G03X504954Y505605I5394J2045*
G01*
X505500Y511000D02*
G75*
D01*
G03X505500Y511000I1500J0*
G01*
X436229Y728623D02*
X435812Y729040D01*
X433590Y726818D01*
X435812Y724596D01*
X436229Y725013D01*
G75*
D01*
G03X436229Y728623I-1803J1805*
G01*
X431605Y722046D02*
X434954Y722046D01*
X434954Y725395D01*
G74*
D01*
G03X431605Y722046I2045J5394*
G01*
X428377Y720771D02*
G75*
D01*
G03X431987Y720771I1805J1803*
G01*
X432404Y721188D01*
X430182Y723410D01*
X427960Y721188D01*
X428377Y720771D01*
X439046Y725395D02*
X439046Y722046D01*
X442395Y722046D01*
G74*
D01*
G03X439046Y725395I5394J2045*
G01*
X388395Y693954D02*
X385046Y693954D01*
X385046Y690605D01*
G74*
D01*
G03X388395Y693954I2045J5394*
G01*
X423954Y688605D02*
X423954Y691954D01*
X420605Y691954D01*
G74*
D01*
G03X423954Y688605I5394J2045*
G01*
X397174Y723583D02*
X395170Y721578D01*
X398272Y718476D01*
X402082Y722285D01*
X400784Y723583D01*
G75*
D01*
G03X397174Y723583I-1805J-1804*
G01*
X384605Y723046D02*
X387954Y723046D01*
X387954Y726395D01*
G74*
D01*
G03X384605Y723046I2045J5394*
G01*
X392046Y726395D02*
X392046Y723046D01*
X395395Y723046D01*
G74*
D01*
G03X392046Y726395I5394J2045*
G01*
X372552Y728000D02*
G74*
D01*
G03X370590Y730483I2552J0*
G01*
G74*
D01*
G03X372395Y732954I3589J4517*
G01*
X369046Y732954D01*
X369046Y730552D01*
X368969Y730552D01*
X368969Y726969D01*
X372552Y726969D01*
X372552Y728000D01*
X365500Y735000D02*
G75*
D01*
G03X365500Y735000I1500J0*
G01*
X361605Y737046D02*
X364954Y737046D01*
X364954Y740395D01*
G74*
D01*
G03X361605Y737046I2045J5394*
G01*
X369046Y740395D02*
X369046Y737046D01*
X372395Y737046D01*
G74*
D01*
G03X369046Y740395I5394J2045*
G01*
X307448Y728250D02*
X307448Y727219D01*
X311031Y727219D01*
X311031Y730802D01*
X310954Y730802D01*
X310954Y732954D01*
X307605Y732954D01*
G74*
D01*
G03X309187Y730669I5394J2045*
G01*
G74*
D01*
G03X307448Y728250I812J2418*
G01*
X311500Y735000D02*
G75*
D01*
G03X311500Y735000I1500J0*
G01*
X307605Y737046D02*
X310954Y737046D01*
X310954Y740395D01*
G74*
D01*
G03X307605Y737046I2045J5394*
G01*
X315046Y740395D02*
X315046Y737046D01*
X318395Y737046D01*
G74*
D01*
G03X315046Y740395I5394J2045*
G01*
X431769Y717565D02*
X429618Y715414D01*
X432720Y712312D01*
X434725Y714317D01*
G75*
D01*
G03X434954Y717664I-1803J1805*
G01*
X434954Y717954D01*
X434697Y717954D01*
X433427Y719224D01*
X432157Y717954D01*
X431605Y717954D01*
G74*
D01*
G03X431769Y717565I5394J2045*
G01*
X442395Y717954D02*
X439046Y717954D01*
X439046Y714605D01*
G74*
D01*
G03X442395Y717954I2045J5394*
G01*
X435500Y720000D02*
G75*
D01*
G03X435500Y720000I1500J0*
G01*
X392623Y708229D02*
G75*
D01*
G03X389013Y708229I-1805J-1803*
G01*
X388596Y707812D01*
X390818Y705590D01*
X393040Y707812D01*
X392623Y708229D01*
X395395Y718954D02*
X392046Y718954D01*
X392046Y715605D01*
G74*
D01*
G03X395395Y718954I2045J5394*
G01*
X387275Y713683D02*
G75*
D01*
G03X387275Y710074I1803J-1804*
G01*
X388573Y708776D01*
X392382Y712586D01*
X389280Y715688D01*
X387275Y713683D01*
X387954Y715605D02*
X387954Y718954D01*
X384605Y718954D01*
G74*
D01*
G03X387954Y715605I5394J2045*
G01*
X388500Y721000D02*
G75*
D01*
G03X388500Y721000I1500J0*
G01*
X428052Y685500D02*
G74*
D01*
G03X425500Y688052I2552J0*
G01*
X424469Y688052D01*
X424469Y684469D01*
X428052Y684469D01*
X428052Y685500D01*
X428046Y699395D02*
X428046Y696046D01*
X431395Y696046D01*
G74*
D01*
G03X428046Y699395I5394J2045*
G01*
X431395Y691954D02*
X428046Y691954D01*
X428046Y688605D01*
G74*
D01*
G03X431395Y691954I2045J5394*
G01*
X424500Y694000D02*
G75*
D01*
G03X424500Y694000I1500J0*
G01*
X416948Y685500D02*
X416948Y684469D01*
X420531Y684469D01*
X420531Y688052D01*
X419500Y688052D01*
G75*
D01*
G03X416948Y685500I0J-2552*
G01*
X381500Y696000D02*
G75*
D01*
G03X381500Y696000I1500J0*
G01*
X388395Y698046D02*
G74*
D01*
G03X386097Y700868I5394J2046*
G01*
X387410Y702182D01*
X385188Y704404D01*
X384771Y703987D01*
G75*
D01*
G03X384771Y700377I1803J-1805*
G01*
X385046Y700102D01*
X385046Y698046D01*
X388395Y698046D01*
X347046Y699395D02*
X347046Y696046D01*
X350395Y696046D01*
G74*
D01*
G03X347046Y699395I5394J2045*
G01*
X347501Y688800D02*
X347501Y684501D01*
X352052Y684501D01*
X352052Y686500D01*
G74*
D01*
G03X349500Y689052I2552J0*
G01*
X347969Y689052D01*
G74*
D01*
G03X350395Y691954I2969J4947*
G01*
X347046Y691954D01*
X347046Y688605D01*
G74*
D01*
G03X347501Y688800I2043J5395*
G01*
X343500Y694000D02*
G75*
D01*
G03X343500Y694000I1500J0*
G01*
X339605Y696046D02*
X342954Y696046D01*
X342954Y699395D01*
G74*
D01*
G03X339605Y696046I2045J5394*
G01*
X342499Y688800D02*
G74*
D01*
G03X342954Y688605I2498J5201*
G01*
X342954Y691954D01*
X339605Y691954D01*
G74*
D01*
G03X342031Y689052I5395J2045*
G01*
X340500Y689052D01*
G75*
D01*
G03X337948Y686500I0J-2552*
G01*
X337948Y684501D01*
X342499Y684501D01*
X342499Y688800D01*
X284046Y694395D02*
X284046Y691046D01*
X287395Y691046D01*
G74*
D01*
G03X284046Y694395I5394J2045*
G01*
X287395Y686954D02*
X284046Y686954D01*
X284046Y683605D01*
G74*
D01*
G03X287395Y686954I2045J5394*
G01*
X280500Y689000D02*
G75*
D01*
G03X280500Y689000I1500J0*
G01*
X276605Y691046D02*
X279954Y691046D01*
X279954Y694395D01*
G74*
D01*
G03X276605Y691046I2045J5394*
G01*
X279954Y683605D02*
X279954Y686954D01*
X276605Y686954D01*
G74*
D01*
G03X279954Y683605I5394J2045*
G01*
X446605Y661046D02*
X449954Y661046D01*
X449954Y664395D01*
G74*
D01*
G03X446605Y661046I2045J5394*
G01*
X454046Y664395D02*
X454046Y661046D01*
X457395Y661046D01*
G74*
D01*
G03X454046Y664395I5394J2045*
G01*
X333500Y677000D02*
G75*
D01*
G03X333500Y677000I1500J0*
G01*
X457395Y656954D02*
X454046Y656954D01*
X454046Y653605D01*
G74*
D01*
G03X457395Y656954I2045J5394*
G01*
X449954Y653605D02*
X449954Y656954D01*
X446605Y656954D01*
G74*
D01*
G03X449954Y653605I5394J2045*
G01*
X450500Y659000D02*
G75*
D01*
G03X450500Y659000I1500J0*
G01*
X434500Y657000D02*
G75*
D01*
G03X434500Y657000I1500J0*
G01*
X430605Y659046D02*
X433954Y659046D01*
X433954Y662395D01*
G74*
D01*
G03X430605Y659046I2045J5394*
G01*
X438046Y662395D02*
X438046Y659046D01*
X441395Y659046D01*
G74*
D01*
G03X438046Y662395I5394J2045*
G01*
X383771Y687377D02*
X384188Y686960D01*
X386410Y689182D01*
X384188Y691404D01*
X383771Y690987D01*
G75*
D01*
G03X383771Y687377I1803J-1805*
G01*
X285046Y655395D02*
X285046Y652046D01*
X288395Y652046D01*
G74*
D01*
G03X285046Y655395I5394J2045*
G01*
X288395Y647954D02*
X285046Y647954D01*
X285046Y644605D01*
G74*
D01*
G03X288395Y647954I2045J5394*
G01*
X281500Y650000D02*
G75*
D01*
G03X281500Y650000I1500J0*
G01*
X277605Y652046D02*
X280954Y652046D01*
X280954Y655395D01*
G74*
D01*
G03X277605Y652046I2045J5394*
G01*
X280954Y644605D02*
X280954Y647954D01*
X277605Y647954D01*
G74*
D01*
G03X280954Y644605I5394J2045*
G01*
X279954Y554605D02*
X279954Y557954D01*
X276605Y557954D01*
G74*
D01*
G03X279954Y554605I5394J2045*
G01*
X272293Y542337D02*
X270839Y542337D01*
G75*
D01*
G03X270926Y535463I-15639J-3635*
G01*
X272441Y535463D01*
G75*
D01*
G03X272293Y542337I4559J3537*
G01*
X287395Y557954D02*
X284046Y557954D01*
X284046Y554605D01*
G74*
D01*
G03X287395Y557954I2045J5394*
G01*
X331302Y619250D02*
G74*
D01*
G03X328750Y621802I2552J0*
G01*
X327719Y621802D01*
X327719Y618219D01*
X331302Y618219D01*
X331302Y619250D01*
X344046Y602172D02*
X344046Y600046D01*
X347395Y600046D01*
G74*
D01*
G03X345008Y602924I5394J2045*
G01*
G75*
D01*
G03X345552Y604500I-2008J1575*
G01*
X345552Y605531D01*
X341969Y605531D01*
X341969Y601948D01*
X343000Y601948D01*
G74*
D01*
G03X344046Y602172I0J2552*
G01*
X322750Y621802D02*
G75*
D01*
G03X321250Y621315I-1J-2552*
G01*
G74*
D01*
G03X319750Y621802I1499J2065*
G01*
X318719Y621802D01*
X318719Y618219D01*
X323781Y618219D01*
X323781Y621802D01*
X322750Y621802D01*
X311198Y619250D02*
X311198Y618219D01*
X314781Y618219D01*
X314781Y621802D01*
X313750Y621802D01*
G75*
D01*
G03X311198Y619250I0J-2552*
G01*
X241521Y616873D02*
G75*
D01*
G03X241521Y613263I1803J-1805*
G01*
X241938Y612846D01*
X244160Y615068D01*
X241938Y617290D01*
X241521Y616873D01*
X248021Y606763D02*
X248438Y606346D01*
X250660Y608568D01*
X249790Y609438D01*
X248438Y610790D01*
X247568Y611660D01*
X245346Y609438D01*
X245763Y609021D01*
G74*
D01*
G03X247288Y608288I1805J1803*
G01*
G74*
D01*
G03X248021Y606763I2537J281*
G01*
X347395Y595954D02*
X344046Y595954D01*
X344046Y592605D01*
G74*
D01*
G03X347395Y595954I2045J5394*
G01*
X340500Y598000D02*
G75*
D01*
G03X340500Y598000I1500J0*
G01*
X351605Y595046D02*
X354954Y595046D01*
X354954Y598395D01*
G74*
D01*
G03X351605Y595046I2045J5394*
G01*
X355500Y593000D02*
G75*
D01*
G03X355500Y593000I1500J0*
G01*
X360358Y595046D02*
G74*
D01*
G03X361740Y594461I1642J1954*
G01*
X361740Y595046D01*
X362395Y595046D01*
G74*
D01*
G03X361740Y596290I5394J2046*
G01*
X361740Y601740D01*
X359448Y601740D01*
X359448Y598225D01*
G74*
D01*
G03X359046Y598395I2447J5226*
G01*
X359046Y595046D01*
X360358Y595046D01*
X252250Y591698D02*
X253281Y591698D01*
X253281Y595281D01*
X249698Y595281D01*
X249698Y594250D01*
G75*
D01*
G03X252250Y591698I2552J0*
G01*
X251994Y602789D02*
G74*
D01*
G03X249698Y600250I255J2538*
G01*
X249698Y599219D01*
X253281Y599219D01*
X253281Y601897D01*
G75*
D01*
G03X255873Y602521I787J2428*
G01*
X256290Y602938D01*
X254068Y605160D01*
X251846Y602938D01*
X251994Y602789D01*
X284219Y565326D02*
G74*
D01*
G03X284046Y565395I2223J5323*
G01*
X284046Y562046D01*
X287395Y562046D01*
G74*
D01*
G03X286791Y563215I5394J2046*
G01*
G75*
D01*
G03X287802Y565250I-1541J2034*
G01*
X287802Y566281D01*
X284219Y566281D01*
X284219Y565326D01*
X305302Y561750D02*
X305302Y562781D01*
X301719Y562781D01*
X301719Y559198D01*
X302750Y559198D01*
G75*
D01*
G03X305302Y561750I0J2552*
G01*
X280500Y560000D02*
G75*
D01*
G03X280500Y560000I1500J0*
G01*
X448052Y523768D02*
G74*
D01*
G03X450145Y526454I3302J4732*
G01*
X446796Y526454D01*
X446796Y524675D01*
G74*
D01*
G03X446000Y524802I795J2425*
G01*
X444969Y524802D01*
X444969Y521219D01*
X448552Y521219D01*
X448552Y522250D01*
G74*
D01*
G03X448052Y523768I2552J1*
G01*
X443250Y528500D02*
G75*
D01*
G03X443250Y528500I1500J0*
G01*
X405046Y536395D02*
X405046Y533046D01*
X408395Y533046D01*
G74*
D01*
G03X405046Y536395I5394J2045*
G01*
X407439Y527314D02*
G74*
D01*
G03X408395Y528954I4438J3686*
G01*
X405046Y528954D01*
X405046Y527553D01*
G74*
D01*
G03X401378Y526714I255J9553*
G01*
X405300Y522792D01*
X409222Y526714D01*
G74*
D01*
G03X407439Y527314I3924J8712*
G01*
X401500Y531000D02*
G75*
D01*
G03X401500Y531000I1500J0*
G01*
X397605Y533046D02*
X400954Y533046D01*
X400954Y536395D01*
G74*
D01*
G03X397605Y533046I2045J5394*
G01*
X400954Y525605D02*
X400954Y528954D01*
X397605Y528954D01*
G74*
D01*
G03X400954Y525605I5394J2045*
G01*
X368850Y568933D02*
X362850Y568933D01*
G75*
D01*
G03X360067Y566150I0J-2783*
G01*
X360067Y540750D01*
G75*
D01*
G03X362850Y537967I2783J0*
G01*
X368850Y537967D01*
G75*
D01*
G03X371633Y540750I0J2783*
G01*
X371633Y566150D01*
G74*
D01*
G03X368850Y568933I2783J0*
G01*
X381550Y568933D02*
X375550Y568933D01*
G75*
D01*
G03X372767Y566150I0J-2783*
G01*
X372767Y540750D01*
G75*
D01*
G03X375550Y537967I2783J0*
G01*
X381550Y537967D01*
G75*
D01*
G03X384333Y540750I0J2783*
G01*
X384333Y566150D01*
G74*
D01*
G03X381550Y568933I2783J0*
G01*
X446000Y513698D02*
G75*
D01*
G03X448552Y516250I0J2552*
G01*
X448552Y517281D01*
X444969Y517281D01*
X444969Y513698D01*
X446000Y513698D01*
X409222Y509286D02*
X405300Y513208D01*
X401378Y509286D01*
G75*
D01*
G03X409222Y509286I3922J8713*
G01*
X402300Y518000D02*
G75*
D01*
G03X402300Y518000I3000J0*
G01*
X381550Y527533D02*
X380601Y527533D01*
X380601Y514101D01*
X384333Y514101D01*
X384333Y524750D01*
G74*
D01*
G03X381550Y527533I2783J0*
G01*
X396586Y521922D02*
G75*
D01*
G03X396586Y514078I8713J-3922*
G01*
X400508Y518000D01*
X396586Y521922D01*
X375550Y527533D02*
G75*
D01*
G03X372767Y524750I0J-2783*
G01*
X372767Y514101D01*
X376499Y514101D01*
X376499Y527533D01*
X375550Y527533D01*
X346233Y524750D02*
G74*
D01*
G03X343450Y527533I2783J0*
G01*
X342501Y527533D01*
X342501Y514101D01*
X346233Y514101D01*
X346233Y524750D01*
X350150Y527533D02*
G75*
D01*
G03X347367Y524750I0J-2783*
G01*
X347367Y514101D01*
X351099Y514101D01*
X351099Y527533D01*
X350150Y527533D01*
X358933Y524750D02*
G74*
D01*
G03X356150Y527533I2783J0*
G01*
X355201Y527533D01*
X355201Y514101D01*
X358933Y514101D01*
X358933Y524750D01*
X337450Y527533D02*
G75*
D01*
G03X334667Y524750I0J-2783*
G01*
X334667Y514101D01*
X338399Y514101D01*
X338399Y527533D01*
X337450Y527533D01*
X272910Y509841D02*
X279500Y503252D01*
X286090Y509841D01*
G75*
D01*
G03X272910Y509841I-6590J-14640*
G01*
X380046Y496395D02*
X380046Y493046D01*
X383395Y493046D01*
G74*
D01*
G03X380046Y496395I5394J2045*
G01*
X383395Y488954D02*
X380046Y488954D01*
X380046Y485605D01*
G74*
D01*
G03X383395Y488954I2045J5394*
G01*
X381550Y496567D02*
G75*
D01*
G03X384333Y499350I0J2783*
G01*
X384333Y509999D01*
X380601Y509999D01*
X380601Y496567D01*
X381550Y496567D01*
X372605Y493046D02*
X375954Y493046D01*
X375954Y496395D01*
G74*
D01*
G03X372605Y493046I2045J5394*
G01*
X375954Y485605D02*
X375954Y488954D01*
X372605Y488954D01*
G74*
D01*
G03X375954Y485605I5394J2045*
G01*
X376500Y491000D02*
G75*
D01*
G03X376500Y491000I1500J0*
G01*
X372767Y499350D02*
G75*
D01*
G03X375550Y496567I2783J0*
G01*
X376499Y496567D01*
X376499Y509999D01*
X372767Y509999D01*
X372767Y499350D01*
X345395Y489954D02*
X342046Y489954D01*
X342046Y486605D01*
G74*
D01*
G03X345395Y489954I2045J5394*
G01*
X358395Y489954D02*
X355046Y489954D01*
X355046Y486605D01*
G74*
D01*
G03X358395Y489954I2045J5394*
G01*
X350954Y486605D02*
X350954Y489954D01*
X347605Y489954D01*
G74*
D01*
G03X350954Y486605I5394J2045*
G01*
X351500Y492000D02*
G75*
D01*
G03X351500Y492000I1500J0*
G01*
X343526Y496568D02*
G75*
D01*
G03X346233Y499350I-76J2782*
G01*
X346233Y509999D01*
X342501Y509999D01*
X342501Y497200D01*
G74*
D01*
G03X342046Y497395I2498J5201*
G01*
X342046Y494046D01*
X345395Y494046D01*
G74*
D01*
G03X343526Y496568I5395J2044*
G01*
X356498Y496588D02*
G75*
D01*
G03X358933Y499350I-348J2761*
G01*
X358933Y509999D01*
X355201Y509999D01*
X355201Y497334D01*
G74*
D01*
G03X355046Y497395I2190J5338*
G01*
X355046Y494046D01*
X358395Y494046D01*
G74*
D01*
G03X356498Y496588I5394J2046*
G01*
X347605Y494046D02*
X350954Y494046D01*
X350954Y496567D01*
X351099Y496567D01*
X351099Y509999D01*
X347367Y509999D01*
X347367Y499350D01*
G75*
D01*
G03X349557Y496630I2783J-1*
G01*
G74*
D01*
G03X347605Y494046I3442J4630*
G01*
X337954Y486605D02*
X337954Y489954D01*
X334605Y489954D01*
G74*
D01*
G03X337954Y486605I5394J2045*
G01*
X360531Y588437D02*
G74*
D01*
G03X362395Y590954I3530J4563*
G01*
X359046Y590954D01*
X359046Y588437D01*
X354954Y588437D01*
X354954Y590954D01*
X351605Y590954D01*
G74*
D01*
G03X353469Y588437I5394J2046*
G01*
X349700Y588437D01*
G75*
D01*
G03X348993Y588363I2J-3437*
G01*
G74*
D01*
G03X347270Y587430I707J3363*
G01*
X328773Y568933D01*
X324750Y568933D01*
G75*
D01*
G03X321967Y566150I0J-2783*
G01*
X321967Y540750D01*
G75*
D01*
G03X324169Y538028I2783J0*
G01*
G75*
D01*
G03X323563Y528365I2831J-5028*
G01*
X323563Y527268D01*
G74*
D01*
G03X321967Y524750I1187J2517*
G01*
X321967Y499350D01*
G75*
D01*
G03X324750Y496567I2783J0*
G01*
X330750Y496567D01*
G75*
D01*
G03X333533Y499350I0J2783*
G01*
X333533Y524750D01*
G74*
D01*
G03X330750Y527533I2783J0*
G01*
X330437Y527533D01*
X330437Y528365D01*
G75*
D01*
G03X329937Y537967I-3436J4635*
G01*
X330750Y537967D01*
G75*
D01*
G03X333533Y540750I0J2783*
G01*
X333533Y563973D01*
X334667Y565107D01*
X334667Y540750D01*
G75*
D01*
G03X337450Y537967I2783J0*
G01*
X343450Y537967D01*
G75*
D01*
G03X346233Y540750I0J2783*
G01*
X346233Y564073D01*
X347367Y565207D01*
X347367Y540750D01*
G75*
D01*
G03X350150Y537967I2783J0*
G01*
X356150Y537967D01*
G75*
D01*
G03X358933Y540750I0J2783*
G01*
X358933Y566150D01*
G74*
D01*
G03X356150Y568933I2783J0*
G01*
X351093Y568933D01*
X354723Y572563D01*
X367365Y572563D01*
G75*
D01*
G03X375611Y580500I4635J3437*
G01*
G75*
D01*
G03X367365Y588437I-3617J4495*
G01*
X360531Y588437D01*
X334605Y494046D02*
X337954Y494046D01*
X337954Y496567D01*
X338399Y496567D01*
X338399Y509999D01*
X334667Y509999D01*
X334667Y499350D01*
G75*
D01*
G03X336636Y496688I2783J-1*
G01*
G74*
D01*
G03X334605Y494046I3364J4688*
G01*
X338500Y492000D02*
G75*
D01*
G03X338500Y492000I1500J0*
G01*
X294141Y501790D02*
X287552Y495200D01*
X294141Y488610D01*
G75*
D01*
G03X294141Y501790I-14640J6590*
G01*
X264859Y501790D02*
G75*
D01*
G03X264859Y488610I14640J-6590*
G01*
X271448Y495200D01*
X264859Y501790D01*
X275000Y495200D02*
G75*
D01*
G03X275000Y495200I4500J0*
G01*
X426605Y476046D02*
X429954Y476046D01*
X429954Y479395D01*
G74*
D01*
G03X426605Y476046I2045J5394*
G01*
X434046Y479395D02*
X434046Y476046D01*
X437395Y476046D01*
G74*
D01*
G03X434046Y479395I5394J2045*
G01*
X437395Y471954D02*
X434046Y471954D01*
X434046Y468605D01*
G74*
D01*
G03X437395Y471954I2045J5394*
G01*
X429954Y468605D02*
X429954Y471954D01*
X426605Y471954D01*
G74*
D01*
G03X429954Y468605I5394J2045*
G01*
X430500Y474000D02*
G75*
D01*
G03X430500Y474000I1500J0*
G01*
X286090Y480559D02*
X279500Y487148D01*
X272910Y480559D01*
G75*
D01*
G03X286090Y480559I6590J14640*
G01*
X436948Y643250D02*
G75*
D01*
G03X436987Y642802I2552J-4*
G01*
X434513Y642802D01*
G75*
D01*
G03X434552Y643250I-2513J444*
G01*
X434552Y651250D01*
G74*
D01*
G03X434402Y652114I2552J2*
G01*
X434402Y653800D01*
G74*
D01*
G03X433954Y653743I97J2549*
G01*
X433954Y654954D01*
X430605Y654954D01*
G74*
D01*
G03X431197Y653802I5395J2044*
G01*
X429500Y653802D01*
G75*
D01*
G03X426948Y651250I0J-2552*
G01*
X426948Y649305D01*
G74*
D01*
G03X426870Y649230I2342J2514*
G01*
X425380Y647740D01*
X424867Y647740D01*
G74*
D01*
G03X423000Y648552I1867J1740*
G01*
X418260Y648552D01*
X418260Y645448D01*
X423000Y645448D01*
G74*
D01*
G03X423089Y645449I16J2552*
G01*
X422192Y644552D01*
X411000Y644552D01*
G75*
D01*
G03X410545Y644511I1J-2552*
G01*
X410545Y645489D01*
G75*
D01*
G03X411000Y645448I456J2510*
G01*
X415740Y645448D01*
X415740Y648552D01*
X411000Y648552D01*
G75*
D01*
G03X410545Y648511I1J-2552*
G01*
X410545Y649489D01*
G75*
D01*
G03X411000Y649448I456J2510*
G01*
X423000Y649448D01*
G74*
D01*
G03X424867Y650260I0J2552*
G01*
X425539Y650260D01*
G74*
D01*
G03X425348Y651000I2539J261*
G01*
G75*
D01*
G03X425552Y652000I-2348J1000*
G01*
X425552Y654000D01*
G74*
D01*
G03X425348Y655000I2552J0*
G01*
G75*
D01*
G03X425552Y656000I-2348J1000*
G01*
X425552Y658000D01*
G74*
D01*
G03X423552Y660492I2552J0*
G01*
X425125Y662065D01*
G75*
D01*
G03X426137Y664500I-2424J2435*
G01*
X426137Y668028D01*
G75*
D01*
G03X428052Y670500I-637J2471*
G01*
X428052Y676500D01*
G74*
D01*
G03X427565Y678000I2552J1*
G01*
G75*
D01*
G03X428052Y679500I-2065J1499*
G01*
X428052Y680531D01*
X424469Y680531D01*
X424469Y679052D01*
X420531Y679052D01*
X420531Y680531D01*
X416948Y680531D01*
X416948Y679500D01*
G75*
D01*
G03X417435Y678000I2552J-1*
G01*
G74*
D01*
G03X416984Y676926I2065J1499*
G01*
G74*
D01*
G03X415060Y678200I4083J4076*
G01*
X415275Y678415D01*
G75*
D01*
G03X416287Y680850I-2424J2435*
G01*
X416287Y691587D01*
X420746Y696046D01*
X423954Y696046D01*
X423954Y699395D01*
G74*
D01*
G03X423908Y699378I1977J5420*
G01*
G74*
D01*
G03X424365Y701089I2979J1712*
G01*
X424365Y704052D01*
G74*
D01*
G03X424826Y704417I1343J2170*
G01*
X426830Y706422D01*
X423728Y709524D01*
X422431Y708227D01*
X416541Y714117D01*
X417838Y715414D01*
X415517Y717736D01*
X421407Y723625D01*
X423728Y721304D01*
X427537Y725114D01*
X426304Y726347D01*
X426774Y726818D01*
X426040Y727552D01*
X429448Y730960D01*
X430182Y730226D01*
X432404Y732448D01*
X431987Y732865D01*
G74*
D01*
G03X430581Y733581I1804J1804*
G01*
G74*
D01*
G03X429865Y734987I2520J398*
G01*
X425623Y739229D01*
G75*
D01*
G03X422013Y739229I-1805J-1803*
G01*
X419420Y736637D01*
X419200Y736637D01*
G75*
D01*
G03X417955Y736403I1J-3437*
G01*
G74*
D01*
G03X416899Y735752I1245J3202*
G01*
X414926Y737725D01*
G75*
D01*
G03X411317Y737725I-1804J-1805*
G01*
X401417Y727826D01*
G75*
D01*
G03X401417Y724216I1804J-1805*
G01*
X408249Y717384D01*
X408249Y716118D01*
X407971Y716395D01*
X404162Y712586D01*
X406483Y710264D01*
X400593Y704375D01*
X398272Y706696D01*
X394463Y702886D01*
X394696Y702653D01*
X394226Y702182D01*
X394960Y701448D01*
X391552Y698040D01*
X390818Y698774D01*
X388596Y696552D01*
X389013Y696135D01*
G74*
D01*
G03X389263Y695916I1802J1805*
G01*
G74*
D01*
G03X388013Y695229I555J2491*
G01*
X387596Y694812D01*
X389818Y692590D01*
X391188Y693960D01*
X394596Y690552D01*
X393226Y689182D01*
X393960Y688448D01*
X390552Y685040D01*
X389818Y685774D01*
X387596Y683552D01*
X388013Y683135D01*
G74*
D01*
G03X389419Y682419I1804J1804*
G01*
G74*
D01*
G03X390135Y681013I2520J398*
G01*
X394377Y676771D01*
G74*
D01*
G03X395563Y676099I1805J1803*
G01*
X395563Y675552D01*
X394000Y675552D01*
G75*
D01*
G03X393000Y675348I0J-2552*
G01*
G74*
D01*
G03X392000Y675552I1000J2348*
G01*
X390000Y675552D01*
G75*
D01*
G03X389000Y675348I0J-2552*
G01*
G74*
D01*
G03X388000Y675552I1000J2348*
G01*
X386000Y675552D01*
G75*
D01*
G03X385000Y675348I0J-2552*
G01*
G74*
D01*
G03X384000Y675552I1000J2348*
G01*
X382000Y675552D01*
G75*
D01*
G03X381000Y675348I0J-2552*
G01*
G74*
D01*
G03X380000Y675552I1000J2348*
G01*
X378437Y675552D01*
X378437Y692469D01*
G74*
D01*
G03X380954Y690605I4563J3530*
G01*
X380954Y693954D01*
X378437Y693954D01*
X378437Y698046D01*
X380954Y698046D01*
X380954Y701395D01*
G74*
D01*
G03X378413Y699500I2046J5394*
G01*
G74*
D01*
G03X377425Y701535I3413J400*
G01*
X368512Y710448D01*
X370000Y710448D01*
G75*
D01*
G03X372552Y713000I0J2552*
G01*
X372552Y719000D01*
G74*
D01*
G03X372065Y720500I2552J1*
G01*
G75*
D01*
G03X372552Y722000I-2065J1499*
G01*
X372552Y723031D01*
X368969Y723031D01*
X368969Y721552D01*
X365031Y721552D01*
X365031Y723031D01*
X364828Y723031D01*
X364828Y726969D01*
X365031Y726969D01*
X365031Y730552D01*
X364954Y730552D01*
X364954Y732954D01*
X361605Y732954D01*
G74*
D01*
G03X361679Y732768I5397J2039*
G01*
G74*
D01*
G03X361000Y732828I675J3768*
G01*
X349000Y732828D01*
G75*
D01*
G03X345172Y729000I0J-3828*
G01*
X345172Y713000D01*
G75*
D01*
G03X345181Y712737I3828J-1*
G01*
X336123Y712737D01*
X334828Y714032D01*
X334828Y729000D01*
G74*
D01*
G03X331000Y732828I3828J0*
G01*
X319000Y732828D01*
G75*
D01*
G03X318321Y732768I-4J-3828*
G01*
G74*
D01*
G03X318395Y732954I5323J2226*
G01*
X315046Y732954D01*
X315046Y730802D01*
X314969Y730802D01*
X314969Y727219D01*
X315172Y727219D01*
X315172Y723281D01*
X314969Y723281D01*
X314969Y721802D01*
X311031Y721802D01*
X311031Y723281D01*
X307448Y723281D01*
X307448Y722250D01*
G75*
D01*
G03X307935Y720750I2552J-1*
G01*
G74*
D01*
G03X307448Y719250I2065J1499*
G01*
X307448Y713250D01*
G75*
D01*
G03X310000Y710698I2552J0*
G01*
X315941Y710698D01*
G75*
D01*
G03X319000Y709172I3058J2302*
G01*
X329968Y709172D01*
X332270Y706870D01*
G74*
D01*
G03X333743Y705999I2430J2429*
G01*
G75*
D01*
G03X334700Y705863I957J3300*
G01*
X359396Y705863D01*
X367563Y697696D01*
X367563Y675552D01*
X366000Y675552D01*
G75*
D01*
G03X365000Y675348I0J-2552*
G01*
G74*
D01*
G03X364000Y675552I1000J2348*
G01*
X362000Y675552D01*
G75*
D01*
G03X359448Y673000I0J-2552*
G01*
X359448Y661000D01*
G75*
D01*
G03X359496Y660504I2552J-3*
G01*
G74*
D01*
G03X359000Y660552I493J2504*
G01*
X356307Y660552D01*
G74*
D01*
G03X355325Y662535I3406J452*
G01*
X352052Y665808D01*
X352052Y672500D01*
G74*
D01*
G03X350014Y675000I2552J0*
G01*
G75*
D01*
G03X352052Y677500I-514J2500*
G01*
X352052Y679499D01*
X347501Y679499D01*
X347501Y675052D01*
X342499Y675052D01*
X342499Y679499D01*
X340201Y679499D01*
G74*
D01*
G03X337046Y682395I5201J2499*
G01*
X337046Y679046D01*
X337948Y679046D01*
X337948Y677500D01*
G75*
D01*
G03X339986Y675000I2552J0*
G01*
G74*
D01*
G03X339798Y674954I512J2500*
G01*
X337046Y674954D01*
X337046Y672674D01*
G75*
D01*
G03X332954Y671900I-1046J-5673*
G01*
X332954Y674954D01*
X330202Y674954D01*
G74*
D01*
G03X330014Y675000I700J2454*
G01*
G75*
D01*
G03X332052Y677500I-514J2500*
G01*
X332052Y679046D01*
X332954Y679046D01*
X332954Y682395D01*
G74*
D01*
G03X332052Y681960I2046J5394*
G01*
X332052Y686500D01*
G74*
D01*
G03X329500Y689052I2552J0*
G01*
X328337Y689052D01*
X328337Y689293D01*
G75*
D01*
G03X321463Y689441I-3337J4706*
G01*
X321463Y689052D01*
X320500Y689052D01*
G75*
D01*
G03X317948Y686500I0J-2552*
G01*
X317948Y679808D01*
X312170Y674030D01*
G75*
D01*
G03X311163Y671593I2429J-2430*
G01*
X311163Y669030D01*
G74*
D01*
G03X308948Y666500I337J2530*
G01*
X308948Y660500D01*
G75*
D01*
G03X309435Y659000I2552J-1*
G01*
G74*
D01*
G03X308948Y657500I2065J1499*
G01*
X308948Y651500D01*
G75*
D01*
G03X311500Y648948I2552J0*
G01*
X317500Y648948D01*
G74*
D01*
G03X319000Y649435I1J2552*
G01*
G75*
D01*
G03X320500Y648948I1499J2065*
G01*
X329500Y648948D01*
G74*
D01*
G03X332000Y650986I0J2552*
G01*
G75*
D01*
G03X334500Y648948I2500J514*
G01*
X343500Y648948D01*
G74*
D01*
G03X344448Y649130I2J2552*
G01*
X344448Y648000D01*
G75*
D01*
G03X344652Y647000I2552J0*
G01*
G74*
D01*
G03X344448Y646000I2348J1000*
G01*
X344448Y644000D01*
G75*
D01*
G03X344652Y643000I2552J0*
G01*
G74*
D01*
G03X344448Y642000I2348J1000*
G01*
X344448Y640000D01*
G75*
D01*
G03X344652Y639000I2552J0*
G01*
G74*
D01*
G03X344448Y638000I2348J1000*
G01*
X344448Y636437D01*
X331423Y636437D01*
X330707Y637153D01*
G75*
D01*
G03X325847Y632293I-5707J847*
G01*
X327570Y630570D01*
G75*
D01*
G03X330005Y629563I2430J2429*
G01*
X335744Y629563D01*
G75*
D01*
G03X334818Y620824I3254J-4763*
G01*
G74*
D01*
G03X334448Y619500I2182J1323*
G01*
X334448Y615908D01*
X331243Y612703D01*
G75*
D01*
G03X331302Y613250I-2493J546*
G01*
X331302Y614281D01*
X327719Y614281D01*
X327719Y612802D01*
X323781Y612802D01*
X323781Y614281D01*
X318719Y614281D01*
X318719Y612802D01*
X314781Y612802D01*
X314781Y614281D01*
X312989Y614281D01*
G74*
D01*
G03X310472Y616411I2517J422*
G01*
X302024Y616411D01*
X302024Y624859D01*
G74*
D01*
G03X299472Y627411I2552J0*
G01*
X297612Y627411D01*
G75*
D01*
G03X287185Y631196I-4671J3388*
G01*
G74*
D01*
G03X286697Y631348I1263J3195*
G01*
G75*
D01*
G03X285918Y631437I-777J-3347*
G01*
X277779Y631437D01*
X275237Y633979D01*
G74*
D01*
G03X273712Y634711I1804J1804*
G01*
G74*
D01*
G03X272979Y636237I2537J279*
G01*
X268737Y640479D01*
G75*
D01*
G03X265127Y640479I-1805J-1803*
G01*
X260885Y636237D01*
G74*
D01*
G03X260169Y634831I1804J1804*
G01*
G74*
D01*
G03X258763Y634115I398J2520*
G01*
X254521Y629873D01*
G74*
D01*
G03X253778Y628222I1803J1804*
G01*
G74*
D01*
G03X252770Y627947I153J2546*
G01*
G75*
D01*
G03X247267Y622236I-5770J53*
G01*
G74*
D01*
G03X247169Y621831I2422J800*
G01*
G74*
D01*
G03X245763Y621115I398J2520*
G01*
X245346Y620698D01*
X247568Y618476D01*
X248302Y619210D01*
X251710Y615802D01*
X250976Y615068D01*
X254068Y611976D01*
X254802Y612710D01*
X258210Y609302D01*
X257476Y608568D01*
X259698Y606346D01*
X260115Y606763D01*
G74*
D01*
G03X260333Y607012I1806J1801*
G01*
G75*
D01*
G03X268242Y603796I5417J1988*
G01*
X268969Y603796D01*
G75*
D01*
G03X270472Y603307I1502J2063*
G01*
X278927Y603307D01*
X278927Y601411D01*
X270472Y601411D01*
G75*
D01*
G03X269595Y601256I-1J-2552*
G01*
G74*
D01*
G03X267250Y602802I2345J1005*
G01*
X261250Y602802D01*
G75*
D01*
G03X259750Y602315I-1J-2552*
G01*
G74*
D01*
G03X258250Y602802I1499J2065*
G01*
X257219Y602802D01*
X257219Y599219D01*
X258698Y599219D01*
X258698Y595281D01*
X257219Y595281D01*
X257219Y592190D01*
G74*
D01*
G03X255677Y589250I2031J2940*
G01*
X255677Y588581D01*
X259919Y588581D01*
X259919Y592072D01*
G75*
D01*
G03X261250Y591698I1330J2178*
G01*
X264581Y591698D01*
X264581Y588581D01*
X268823Y588581D01*
X268823Y589250D01*
G74*
D01*
G03X267796Y591757I3573J0*
G01*
G74*
D01*
G03X269669Y593436I546J2493*
G01*
G75*
D01*
G03X270472Y593307I801J2423*
G01*
X278919Y593307D01*
X278919Y592559D01*
G74*
D01*
G03X278872Y592540I1264J3195*
G01*
G74*
D01*
G03X277742Y591789I1299J3181*
G01*
X269370Y583418D01*
G74*
D01*
G03X268882Y582802I2432J2428*
G01*
X268795Y582802D01*
G75*
D01*
G03X268823Y583250I-3545J446*
G01*
X268823Y583919D01*
X264581Y583919D01*
X264581Y583823D01*
X259919Y583823D01*
X259919Y583919D01*
X255677Y583919D01*
X255677Y583250D01*
G75*
D01*
G03X256007Y581750I3573J0*
G01*
G74*
D01*
G03X255677Y580250I3243J1500*
G01*
X255677Y574250D01*
G75*
D01*
G03X255685Y574005I3573J-6*
G01*
G74*
D01*
G03X255143Y574319I1986J2804*
G01*
G75*
D01*
G03X254436Y565605I-13142J-3319*
G01*
G75*
D01*
G03X256807Y564663I2364J2495*
G01*
X266266Y564663D01*
G74*
D01*
G03X267563Y562990I2484J586*
G01*
X267563Y560635D01*
G75*
D01*
G03X274437Y560635I3437J-4635*
G01*
X274437Y562698D01*
X274750Y562698D01*
G74*
D01*
G03X277000Y564045I0J2552*
G01*
G74*
D01*
G03X277404Y563488I2249J1206*
G01*
G74*
D01*
G03X276605Y562046I4595J3488*
G01*
X279954Y562046D01*
X279954Y562698D01*
X280281Y562698D01*
X280281Y566281D01*
X277302Y566281D01*
X277302Y570219D01*
X280281Y570219D01*
X280281Y571698D01*
X284219Y571698D01*
X284219Y570219D01*
X287802Y570219D01*
X287802Y571250D01*
G74*
D01*
G03X287315Y572750I2552J1*
G01*
G75*
D01*
G03X287802Y574250I-2065J1499*
G01*
X287802Y577942D01*
X289640Y579780D01*
G74*
D01*
G03X290570Y578070I3360J719*
G01*
X294198Y574442D01*
X294198Y573158D01*
X291970Y570930D01*
G75*
D01*
G03X290963Y568492I2429J-2430*
G01*
X290963Y563923D01*
G75*
D01*
G03X290864Y563047I3337J-821*
G01*
G74*
D01*
G03X290863Y563000I3435J97*
G01*
X290863Y559567D01*
G75*
D01*
G03X297572Y555199I1087J-5667*
G01*
G75*
D01*
G03X297737Y556250I-3271J1052*
G01*
X297737Y559198D01*
X297781Y559198D01*
X297781Y562585D01*
G75*
D01*
G03X297837Y563200I-3380J618*
G01*
X297837Y567077D01*
X298958Y568198D01*
X301719Y568198D01*
X301719Y566719D01*
X305302Y566719D01*
X305302Y567750D01*
G74*
D01*
G03X304815Y569250I2552J1*
G01*
G75*
D01*
G03X305302Y570750I-2065J1499*
G01*
X305302Y574442D01*
X306697Y575837D01*
X306763Y575771D01*
G75*
D01*
G03X310373Y575771I1805J1803*
G01*
X314615Y580013D01*
G74*
D01*
G03X315331Y581418I1804J1804*
G01*
G74*
D01*
G03X316737Y582135I400J2521*
G01*
X320979Y586377D01*
G75*
D01*
G03X320979Y589987I-1803J1805*
G01*
X318703Y592263D01*
X328119Y592263D01*
G74*
D01*
G03X329247Y592454I2J3437*
G01*
G75*
D01*
G03X337772Y594073I3553J4545*
G01*
G74*
D01*
G03X339954Y592605I4227J3927*
G01*
X339954Y595954D01*
X338474Y595954D01*
G75*
D01*
G03X337700Y600046I-5673J1046*
G01*
X339954Y600046D01*
X339954Y603395D01*
G74*
D01*
G03X338031Y602188I2045J5394*
G01*
X338031Y605531D01*
X334448Y605531D01*
X334448Y604500D01*
G75*
D01*
G03X337000Y601948I2552J0*
G01*
X337792Y601948D01*
G74*
D01*
G03X337028Y600927I4210J3946*
G01*
G75*
D01*
G03X330208Y602155I-4228J-3927*
G01*
G74*
D01*
G03X331274Y603871I1458J2095*
G01*
G74*
D01*
G03X333085Y604825I623J3379*
G01*
X337729Y609469D01*
X338031Y609469D01*
X338031Y609771D01*
X339208Y610948D01*
X340692Y610948D01*
X341070Y610570D01*
G74*
D01*
G03X341969Y609923I2430J2429*
G01*
X341969Y609469D01*
X345552Y609469D01*
X345552Y609563D01*
X346240Y609563D01*
G75*
D01*
G03X347000Y609448I757J2437*
G01*
X359000Y609448D01*
G74*
D01*
G03X359496Y609496I3J2552*
G01*
G74*
D01*
G03X359448Y609000I2504J493*
G01*
X359448Y604260D01*
X361740Y604260D01*
X361740Y609455D01*
X363489Y609455D01*
G74*
D01*
G03X363448Y609000I2510J456*
G01*
X363448Y597000D01*
G75*
D01*
G03X364260Y595133I2552J0*
G01*
X364260Y594461D01*
G74*
D01*
G03X365000Y594652I261J2539*
G01*
G75*
D01*
G03X366000Y594448I1000J2348*
G01*
X368000Y594448D01*
G74*
D01*
G03X369000Y594652I0J2552*
G01*
G75*
D01*
G03X370000Y594448I1000J2348*
G01*
X372000Y594448D01*
G74*
D01*
G03X373000Y594652I0J2552*
G01*
G75*
D01*
G03X374000Y594448I1000J2348*
G01*
X376000Y594448D01*
G74*
D01*
G03X377000Y594652I0J2552*
G01*
G75*
D01*
G03X378000Y594448I1000J2348*
G01*
X380000Y594448D01*
G74*
D01*
G03X381000Y594652I0J2552*
G01*
G75*
D01*
G03X382000Y594448I1000J2348*
G01*
X384000Y594448D01*
G74*
D01*
G03X385000Y594652I0J2552*
G01*
G75*
D01*
G03X386000Y594448I1000J2348*
G01*
X388000Y594448D01*
G74*
D01*
G03X389000Y594652I0J2552*
G01*
G75*
D01*
G03X390000Y594448I1000J2348*
G01*
X391563Y594448D01*
X391563Y572635D01*
G75*
D01*
G03X398437Y572635I3437J-4635*
G01*
X398437Y575603D01*
X398770Y575270D01*
G75*
D01*
G03X401203Y574263I2430J2429*
G01*
X413698Y574263D01*
X413698Y572750D01*
G75*
D01*
G03X416250Y570198I2552J0*
G01*
X422237Y570198D01*
G74*
D01*
G03X422820Y569420I3013J1651*
G01*
X429789Y562451D01*
G74*
D01*
G03X427985Y560437I710J2451*
G01*
G74*
D01*
G03X425570Y559430I16J3437*
G01*
X421442Y555302D01*
X417750Y555302D01*
G75*
D01*
G03X415198Y552750I0J-2552*
G01*
X415198Y546750D01*
G75*
D01*
G03X415685Y545250I2552J-1*
G01*
G74*
D01*
G03X415198Y543750I2065J1499*
G01*
X415198Y540058D01*
X413820Y538680D01*
G75*
D01*
G03X412813Y536240I2429J-2430*
G01*
X412813Y535765D01*
G74*
D01*
G03X410698Y533250I437J2514*
G01*
X410698Y527250D01*
G75*
D01*
G03X413250Y524698I2552J0*
G01*
X414884Y524698D01*
G74*
D01*
G03X412436Y520344I6816J6698*
G01*
X410092Y518000D01*
X412436Y515656D01*
G75*
D01*
G03X430284Y513800I9264J2341*
G01*
G75*
D01*
G03X431000Y513698I714J2450*
G01*
X437000Y513698D01*
G74*
D01*
G03X438500Y514185I1J2552*
G01*
G75*
D01*
G03X440000Y513698I1499J2065*
G01*
X441031Y513698D01*
X441031Y517281D01*
X439552Y517281D01*
X439552Y521219D01*
X441031Y521219D01*
X441031Y524088D01*
G74*
D01*
G03X442704Y523105I3718J4412*
G01*
X442704Y526454D01*
X441484Y526454D01*
G75*
D01*
G03X442557Y529000I-2484J2546*
G01*
X442557Y530546D01*
X442704Y530546D01*
X442704Y530687D01*
G75*
D01*
G03X444000Y530443I1295J3313*
G01*
X449000Y530443D01*
G74*
D01*
G03X449851Y530546I1J3557*
G01*
X450145Y530546D01*
G74*
D01*
G03X450138Y530563I5338J2188*
G01*
X450448Y530563D01*
X450448Y528250D01*
G75*
D01*
G03X452563Y525735I2552J-1*
G01*
X452563Y517635D01*
G75*
D01*
G03X459437Y517635I3437J-4635*
G01*
X459437Y525735D01*
G74*
D01*
G03X461402Y527386I437J2514*
G01*
G75*
D01*
G03X469737Y535310I4496J3616*
G01*
X469737Y537200D01*
G74*
D01*
G03X468725Y539635I3437J1*
G01*
X465935Y542425D01*
G74*
D01*
G03X463729Y543429I2435J2424*
G01*
G75*
D01*
G03X463498Y543437I-234J-3428*
G01*
X461545Y543437D01*
G74*
D01*
G03X459000Y545802I2544J186*
G01*
X453000Y545802D01*
G75*
D01*
G03X452148Y545656I-1J-2552*
G01*
G74*
D01*
G03X449000Y547557I3147J1655*
G01*
X447761Y547557D01*
X447761Y545261D01*
X451429Y545261D01*
G74*
D01*
G03X450448Y543250I1570J2011*
G01*
X450448Y542739D01*
X447761Y542739D01*
X447761Y542557D01*
X445239Y542557D01*
X445239Y542739D01*
X442437Y542739D01*
X442437Y543082D01*
G75*
D01*
G03X442557Y544000I-3437J916*
G01*
X442557Y545261D01*
X445239Y545261D01*
X445239Y547557D01*
X444000Y547557D01*
G75*
D01*
G03X442557Y547251I0J-3557*
G01*
X442557Y549000D01*
G74*
D01*
G03X442437Y549918I3557J2*
G01*
X442437Y551400D01*
G74*
D01*
G03X441425Y553835I3437J1*
G01*
X440531Y554729D01*
X440531Y555031D01*
X440229Y555031D01*
X439052Y556208D01*
X439052Y558969D01*
X440531Y558969D01*
X440531Y562552D01*
X439500Y562552D01*
G75*
D01*
G03X438000Y562065I-1J-2552*
G01*
G74*
D01*
G03X436937Y562515I1501J2064*
G01*
X436937Y563600D01*
G74*
D01*
G03X435925Y566035I3437J1*
G01*
X431762Y570198D01*
X434250Y570198D01*
G75*
D01*
G03X436802Y572750I0J2552*
G01*
X436802Y582750D01*
G74*
D01*
G03X434250Y585302I2552J0*
G01*
X416250Y585302D01*
G75*
D01*
G03X413698Y582750I0J-2552*
G01*
X413698Y581137D01*
X402623Y581137D01*
X402437Y581323D01*
X402437Y587233D01*
G75*
D01*
G03X412688Y592525I5081J2732*
G01*
G75*
D01*
G03X415374Y602986I3312J4725*
G01*
X412935Y605425D01*
G74*
D01*
G03X410552Y606436I2435J2425*
G01*
X410552Y609000D01*
G74*
D01*
G03X410504Y609496I2552J3*
G01*
G75*
D01*
G03X411000Y609448I493J2504*
G01*
X423000Y609448D01*
G75*
D01*
G03X425552Y612000I0J2552*
G01*
X425552Y614000D01*
G74*
D01*
G03X425348Y615000I2552J0*
G01*
G75*
D01*
G03X425552Y616000I-2348J1000*
G01*
X425552Y618000D01*
G74*
D01*
G03X425348Y619000I2552J0*
G01*
G75*
D01*
G03X425552Y620000I-2348J1000*
G01*
X425552Y622000D01*
G74*
D01*
G03X425460Y622680I2552J1*
G01*
X430448Y617692D01*
X430448Y613500D01*
G75*
D01*
G03X430935Y612000I2552J-1*
G01*
G74*
D01*
G03X430448Y610500I2065J1499*
G01*
X430448Y609469D01*
X434031Y609469D01*
X434031Y610948D01*
X437969Y610948D01*
X437969Y609469D01*
X441552Y609469D01*
X441552Y610500D01*
G74*
D01*
G03X441065Y612000I2552J1*
G01*
G75*
D01*
G03X441552Y613500I-2065J1499*
G01*
X441552Y619500D01*
G74*
D01*
G03X439935Y621875I2552J0*
G01*
G74*
D01*
G03X440500Y622185I935J2374*
G01*
G75*
D01*
G03X442000Y621698I1499J2065*
G01*
X443031Y621698D01*
X443031Y625281D01*
X441552Y625281D01*
X441552Y629219D01*
X443031Y629219D01*
X443031Y629915D01*
G75*
D01*
G03X444552Y632250I-1031J2334*
G01*
X444552Y634902D01*
X442098Y634902D01*
X442098Y632802D01*
X442000Y632802D01*
G75*
D01*
G03X440500Y632315I-1J-2552*
G01*
G74*
D01*
G03X439552Y632742I1500J2065*
G01*
X439552Y640250D01*
G74*
D01*
G03X439513Y640698I2552J4*
G01*
X442000Y640698D01*
G74*
D01*
G03X442098Y640700I3J2552*
G01*
X442098Y637598D01*
X444552Y637598D01*
X444552Y640250D01*
G74*
D01*
G03X444488Y640819I2552J1*
G01*
X485950Y640819D01*
G74*
D01*
G03X489193Y641705I1J6381*
G01*
G74*
D01*
G03X490500Y642185I193J2545*
G01*
G74*
D01*
G03X491807Y641705I1500J2065*
G01*
G75*
D01*
G03X495050Y640819I3244J5494*
G01*
X499948Y640819D01*
X499948Y640219D01*
X503531Y640219D01*
X503531Y640819D01*
X505625Y640819D01*
G74*
D01*
G03X506750Y640919I0J6381*
G01*
X507469Y640919D01*
X507469Y640219D01*
X511052Y640219D01*
X511052Y640919D01*
X516265Y640919D01*
G74*
D01*
G03X519321Y641699I1J6381*
G01*
G74*
D01*
G03X520750Y642185I70J2550*
G01*
G75*
D01*
G03X522250Y641698I1499J2065*
G01*
X522630Y641698D01*
X522630Y639485D01*
G74*
D01*
G03X521046Y640395I3630J4484*
G01*
X521046Y637046D01*
X522630Y637046D01*
X522630Y632954D01*
X521046Y632954D01*
X521046Y629605D01*
G74*
D01*
G03X522630Y630515I2046J5394*
G01*
X522630Y622485D01*
G74*
D01*
G03X521046Y623395I3630J4484*
G01*
X521046Y620046D01*
X522630Y620046D01*
X522630Y615954D01*
X521046Y615954D01*
X521046Y612605D01*
G74*
D01*
G03X522630Y613515I2046J5394*
G01*
X522630Y608485D01*
G74*
D01*
G03X521046Y609395I3630J4484*
G01*
X521046Y606046D01*
X522630Y606046D01*
X522630Y601954D01*
X521046Y601954D01*
X521046Y598605D01*
G74*
D01*
G03X522630Y599515I2046J5394*
G01*
X522630Y596574D01*
X523374Y595830D01*
X524684Y595830D01*
G74*
D01*
G03X523605Y594046I4316J3829*
G01*
X526954Y594046D01*
X526954Y595830D01*
X531046Y595830D01*
X531046Y594046D01*
X534395Y594046D01*
G74*
D01*
G03X533316Y595830I5395J2044*
G01*
X544684Y595830D01*
G74*
D01*
G03X543605Y594046I4316J3829*
G01*
X546954Y594046D01*
X546954Y595830D01*
X551046Y595830D01*
X551046Y594046D01*
X554395Y594046D01*
G74*
D01*
G03X553316Y595830I5395J2044*
G01*
X566684Y595830D01*
G74*
D01*
G03X565605Y594046I4316J3829*
G01*
X568954Y594046D01*
X568954Y595830D01*
X573046Y595830D01*
X573046Y594046D01*
X576395Y594046D01*
G74*
D01*
G03X575316Y595830I5395J2044*
G01*
X585684Y595830D01*
G74*
D01*
G03X584605Y594046I4316J3829*
G01*
X587954Y594046D01*
X587954Y595830D01*
X592046Y595830D01*
X592046Y594046D01*
X594652Y594046D01*
G75*
D01*
G02X594646Y589954I-183901J-1776*
G01*
X592046Y589954D01*
X592046Y586605D01*
G74*
D01*
G03X594622Y588546I2045J5394*
G01*
G75*
D01*
G02X357627Y416229I-183872J3753*
G01*
G75*
D01*
G03X334806Y424802I-3227J26070*
G01*
G75*
D01*
G02X460756Y769282I75935J167501*
G01*
G75*
D01*
G03X485335Y760408I4944J-24782*
G01*
G74*
D01*
G02X559194Y700870I74585J168107*
G01*
X551847Y700870D01*
G74*
D01*
G03X552395Y701954I4846J3130*
G01*
X549046Y701954D01*
X549046Y700870D01*
X544954Y700870D01*
X544954Y701954D01*
X541605Y701954D01*
G74*
D01*
G03X542153Y700870I5394J2046*
G01*
X533847Y700870D01*
G74*
D01*
G03X534395Y701954I4846J3130*
G01*
X531046Y701954D01*
X531046Y700870D01*
X526954Y700870D01*
X526954Y701954D01*
X523605Y701954D01*
G74*
D01*
G03X524153Y700870I5394J2046*
G01*
X523374Y700870D01*
X522630Y700126D01*
X522630Y698485D01*
G74*
D01*
G03X521046Y699395I3630J4484*
G01*
X521046Y696046D01*
X522630Y696046D01*
X522630Y691954D01*
X521046Y691954D01*
X521046Y688605D01*
G74*
D01*
G03X522630Y689515I2046J5394*
G01*
X522630Y682485D01*
G74*
D01*
G03X521046Y683395I3630J4484*
G01*
X521046Y680046D01*
X522630Y680046D01*
X522630Y675954D01*
X521046Y675954D01*
X521046Y672605D01*
G74*
D01*
G03X522630Y673515I2046J5394*
G01*
X522630Y668485D01*
G74*
D01*
G03X521046Y669395I3630J4484*
G01*
X521046Y666046D01*
X522630Y666046D01*
X522630Y661954D01*
X521046Y661954D01*
X521046Y658605D01*
G74*
D01*
G03X522630Y659515I2046J5394*
G01*
X522630Y652802D01*
X522250Y652802D01*
G75*
D01*
G03X520750Y652315I-1J-2552*
G01*
G74*
D01*
G03X519520Y652788I1500J2065*
G01*
G74*
D01*
G03X516265Y653681I3255J5487*
G01*
X508236Y653681D01*
G74*
D01*
G03X511395Y656954I2235J5318*
G01*
X508046Y656954D01*
X508046Y653681D01*
X505550Y653681D01*
G75*
D01*
G03X504425Y653581I0J-6381*
G01*
X495050Y653581D01*
G75*
D01*
G03X491996Y652802I1J-6381*
G01*
G74*
D01*
G03X490500Y652315I3J2552*
G01*
G74*
D01*
G03X489004Y652802I1499J2065*
G01*
G74*
D01*
G03X485950Y653581I3055J5601*
G01*
X443500Y653581D01*
G75*
D01*
G03X443072Y653566I9J-6381*
G01*
G74*
D01*
G03X442000Y653802I1072J2316*
G01*
X440803Y653802D01*
G74*
D01*
G03X441395Y654954I4804J3197*
G01*
X438046Y654954D01*
X438046Y653578D01*
G74*
D01*
G03X437098Y653800I1045J2328*
G01*
X437098Y652114D01*
G74*
D01*
G03X436948Y651250I2402J862*
G01*
X436948Y643250D01*
X438500Y524315D02*
G75*
D01*
G02X440000Y524802I1499J-2065*
G01*
X440321Y524802D01*
G74*
D01*
G02X439801Y525534I4429J3697*
G01*
G75*
D01*
G02X437437Y525805I-800J3466*
G01*
X437437Y524765D01*
G74*
D01*
G02X438500Y524315I438J2514*
G01*
X276815Y572750D02*
G74*
D01*
G02X277000Y572455I2064J1500*
G01*
G74*
D01*
G02X277185Y572750I2249J1205*
G01*
G74*
D01*
G02X277000Y573045I2064J1500*
G01*
G74*
D01*
G02X276815Y572750I2249J1205*
G01*
X299409Y583268D02*
X299409Y587922D01*
X302024Y587922D01*
X302024Y586774D01*
G74*
D01*
G02X303900Y585002I2923J4974*
G01*
X306176Y587278D01*
X303433Y590021D01*
G75*
D01*
G02X302427Y592454I2430J2429*
G01*
X302427Y593307D01*
X302024Y593307D01*
X302024Y590796D01*
X299409Y590796D01*
X299409Y593314D01*
X297024Y593314D01*
X297024Y587184D01*
G74*
D01*
G02X297054Y587195I2001J5412*
G01*
X297054Y583846D01*
X296814Y583846D01*
G74*
D01*
G02X296535Y583356I2343J1010*
G01*
X296535Y582307D01*
X296472Y582307D01*
G75*
D01*
G02X296437Y582307I-17J2552*
G01*
X296437Y581923D01*
X299058Y579302D01*
X300442Y579302D01*
X301971Y580831D01*
G75*
D01*
G02X302521Y583623I2354J987*
G01*
X302744Y583846D01*
X301814Y583846D01*
G74*
D01*
G02X300430Y582494I2341J1013*
G01*
G75*
D01*
G02X299409Y583268I-1330J-694*
G01*
X367365Y581563D02*
G74*
D01*
G03X368389Y580500I4633J3439*
G01*
G74*
D01*
G03X367365Y579437I3609J4501*
G01*
X353300Y579437D01*
G75*
D01*
G03X352239Y579269I0J-3437*
G01*
G74*
D01*
G03X350870Y578430I1061J3268*
G01*
X341373Y568933D01*
X338493Y568933D01*
X351123Y581563D01*
X367365Y581563D01*
X319750Y601698D02*
X316562Y601698D01*
X319123Y599137D01*
X326696Y599137D01*
X327189Y599630D01*
G74*
D01*
G02X328030Y600247I2429J2430*
G01*
G74*
D01*
G02X329770Y601910I4769J3248*
G01*
G74*
D01*
G02X328750Y601698I1018J2340*
G01*
X322750Y601698D01*
G75*
D01*
G02X321250Y602185I-1J2552*
G01*
G74*
D01*
G02X319750Y601698I1499J2065*
G01*
X594316Y595830D02*
G74*
D01*
G02X594634Y595438I4318J3828*
G01*
G74*
D01*
G03X594627Y595830I183884J3088*
G01*
X594316Y595830D01*
X331413Y670501D02*
G75*
D01*
G03X330429Y665499I4587J-3500*
G01*
X327501Y665499D01*
X327501Y663052D01*
X322499Y663052D01*
X322499Y665499D01*
X320052Y665499D01*
X320052Y666500D01*
G74*
D01*
G03X318037Y668995I2552J0*
G01*
X318037Y670177D01*
X318361Y670501D01*
X322499Y670501D01*
X322499Y674639D01*
X322808Y674948D01*
X327501Y674948D01*
X327501Y670501D01*
X331413Y670501D01*
X332052Y672040D02*
G74*
D01*
G03X332678Y671718I2947J4960*
G01*
G74*
D01*
G03X332052Y671208I3323J4717*
G01*
X332052Y672040D01*
X403849Y692413D02*
G75*
D01*
G03X403909Y692414I-27J3437*
G01*
G74*
D01*
G03X404801Y692548I60J3435*
G01*
X405449Y691900D01*
X405449Y684996D01*
X402957Y682504D01*
G75*
D01*
G03X402229Y684623I-2531J315*
G01*
X397987Y688865D01*
G74*
D01*
G03X397737Y689084I1802J1805*
G01*
G74*
D01*
G03X398987Y689771I555J2491*
G01*
X401630Y692413D01*
X403849Y692413D01*
G54D13*
X420750Y540750D02*
X425250Y540750D01*
X416250Y536250D02*
X420925Y540925D01*
X416250Y530250D02*
X416250Y536250D01*
X439000Y531500D02*
X439000Y551400D01*
X425250Y540750D02*
X431000Y546500D01*
X431100Y536100D02*
X431100Y538700D01*
X433900Y531529D02*
X433900Y531500D01*
X425300Y530300D02*
X425300Y530350D01*
X425300Y530250D02*
X425300Y530300D01*
X424000Y529000D02*
X431100Y536100D01*
X456000Y540250D02*
X454750Y539000D01*
X446450Y539000D01*
X463500Y540000D02*
X455975Y540000D01*
X456000Y531250D02*
X453250Y534000D01*
X446450Y534000D01*
X420750Y549750D02*
X428000Y557000D01*
X433500Y556900D02*
X433500Y563600D01*
X433500Y556900D02*
X439000Y551400D01*
X428000Y557000D02*
X433500Y557000D01*
X431000Y546500D02*
X431100Y546400D01*
X433950Y546400D01*
X280172Y589359D02*
X271800Y580988D01*
X271800Y577300D01*
X262300Y577200D02*
X272050Y577200D01*
X271700Y577200D02*
X271700Y577000D01*
X271800Y577300D02*
X271700Y577200D01*
X282250Y577250D02*
X288000Y583000D01*
X282350Y568250D02*
X288000Y573900D01*
X353300Y576000D02*
X340500Y563200D01*
X349700Y585000D02*
X328500Y563800D01*
X372000Y576000D02*
X353300Y576000D01*
X401200Y577700D02*
X425000Y577700D01*
X399000Y579900D02*
X401200Y577700D01*
X399000Y603000D02*
X399000Y579900D01*
X425250Y571850D02*
X433500Y563600D01*
X425250Y571850D02*
X425250Y577750D01*
X280172Y589359D02*
X282972Y589359D01*
X264250Y597250D02*
X264400Y597400D01*
X275506Y597400D01*
X297972Y589359D02*
X297900Y589431D01*
X294800Y599600D02*
X294800Y599700D01*
X297900Y596500D02*
X291100Y603300D01*
X288000Y583000D02*
X288000Y589394D01*
X297900Y589431D02*
X297900Y596500D01*
X340200Y598000D02*
X340200Y597941D01*
X340000Y607500D02*
X340000Y598200D01*
X340200Y598000D01*
X362750Y593000D02*
X357300Y593000D01*
X372000Y585000D02*
X349700Y585000D01*
X357000Y592700D02*
X355650Y592700D01*
X357300Y593000D02*
X357000Y592700D01*
X363000Y593250D02*
X363000Y603000D01*
X363000Y593250D02*
X362750Y593000D01*
X410500Y603000D02*
X416075Y597425D01*
X403000Y603000D02*
X403000Y594600D01*
X416075Y597425D02*
X416075Y597200D01*
X403000Y594600D02*
X407300Y590300D01*
X407300Y590100D01*
X260568Y628068D02*
X254400Y621900D01*
X254118Y621900D01*
X253932Y621432D02*
X253791Y621573D01*
X253091Y621573D02*
X248000Y626664D01*
X253091Y621573D02*
X253791Y621573D01*
X267068Y621568D02*
X260300Y614800D01*
X267100Y621568D02*
X267100Y621600D01*
X267100Y615031D02*
X267100Y621568D01*
X275412Y602800D02*
X284400Y602800D01*
X269772Y612359D02*
X274972Y612359D01*
X269772Y612359D02*
X267100Y615031D01*
X274813Y607200D02*
X274972Y607359D01*
X274972Y602359D02*
X275412Y602800D01*
X265750Y609000D02*
X265950Y608800D01*
X273000Y608000D02*
X273600Y607400D01*
X269100Y608800D02*
X269900Y608000D01*
X269800Y608000D02*
X273000Y608000D01*
X265950Y608800D02*
X269100Y608800D01*
X287922Y620409D02*
X287922Y626001D01*
X287972Y620359D02*
X287922Y620409D01*
X292972Y620359D02*
X293222Y620609D01*
X292972Y620359D02*
X292972Y631272D01*
X410500Y603000D02*
X407000Y603000D01*
X436000Y617000D02*
X424000Y629000D01*
X436000Y617000D02*
X436000Y616500D01*
X248000Y626664D02*
X248000Y627900D01*
X285923Y628000D02*
X273364Y628000D01*
X273264Y628100D02*
X273082Y628100D01*
X266932Y634432D02*
X273364Y628000D01*
X287922Y626001D02*
X285923Y628000D01*
X292972Y631272D02*
X293900Y632200D01*
X325000Y638000D02*
X330000Y633000D01*
X349900Y633000D01*
X424000Y629000D02*
X417300Y629000D01*
X417000Y641000D02*
X423500Y641000D01*
X417000Y637000D02*
X425500Y637000D01*
X417300Y629000D02*
X417000Y628700D01*
X423500Y641000D02*
X429300Y646800D01*
X425500Y637000D02*
X427570Y634930D01*
X430570Y634930D01*
X315800Y655800D02*
X324900Y655800D01*
X314500Y654500D02*
X315800Y655800D01*
X342000Y653000D02*
X353000Y653000D01*
X339000Y656000D02*
X342000Y653000D01*
X353000Y653000D02*
X353100Y653000D01*
X417000Y658800D02*
X417000Y652950D01*
X422700Y664500D02*
X417000Y658800D01*
X407163Y645000D02*
X417000Y645000D01*
X417000Y649000D02*
X408075Y649000D01*
X429300Y646800D02*
X430600Y646800D01*
X314600Y671600D02*
X322500Y679500D01*
X314600Y663400D02*
X314500Y663500D01*
X314600Y663600D01*
X314600Y671600D01*
X325000Y682000D02*
X324900Y682100D01*
X324900Y693900D01*
X322500Y679500D02*
X323300Y679500D01*
X338600Y675600D02*
X343900Y680900D01*
X332600Y675600D02*
X338600Y675600D01*
X325000Y668000D02*
X332600Y675600D01*
X345000Y694050D02*
X345000Y682000D01*
X343900Y680900D02*
X344400Y680900D01*
X371000Y699119D02*
X371000Y667200D01*
X375000Y699100D02*
X375000Y669300D01*
X396182Y682818D02*
X399000Y680000D01*
X399000Y666600D01*
X412850Y680850D02*
X407000Y675000D01*
X412850Y693010D02*
X412850Y680850D01*
X408886Y683572D02*
X403000Y677686D01*
X422500Y673500D02*
X421900Y672900D01*
X412850Y672900D01*
X421000Y681000D02*
X422900Y682900D01*
X407000Y675000D02*
X407000Y667000D01*
X403000Y677686D02*
X403000Y667000D01*
X422700Y673300D02*
X422700Y664500D01*
X422700Y673300D02*
X422500Y673500D01*
X360819Y709300D02*
X371000Y699119D01*
X360500Y713600D02*
X375000Y699100D01*
X398769Y696769D02*
X398231Y696769D01*
X397000Y698000D01*
X397500Y695500D02*
X398231Y695500D01*
X398581Y695850D02*
X398231Y695500D01*
X398581Y695850D02*
X403850Y695850D01*
X390818Y702182D02*
X387836Y699200D01*
X386200Y699200D01*
X383000Y696000D01*
X397182Y695818D02*
X397500Y695500D01*
X383000Y696000D02*
X383200Y695800D01*
X389700Y689300D01*
X420928Y701089D02*
X412850Y693010D01*
X420928Y704870D02*
X420928Y701089D01*
X409586Y701272D02*
X408814Y700500D01*
X402500Y700500D01*
X409086Y700500D02*
X409086Y700772D01*
X408886Y683572D02*
X408886Y700300D01*
X409086Y700500D01*
X407500Y699500D02*
X403850Y695850D01*
X407500Y699500D02*
X407500Y700000D01*
X425550Y693900D02*
X425900Y693900D01*
X426000Y694000D02*
X425900Y693900D01*
X429300Y697300D02*
X426000Y694000D01*
X422500Y683300D02*
X422500Y690850D01*
X422500Y683300D02*
X422900Y682900D01*
X422500Y690850D02*
X425550Y693900D01*
X313050Y716200D02*
X322000Y716200D01*
X334700Y709300D02*
X325000Y719000D01*
X325000Y721000D01*
X360819Y709300D02*
X334700Y709300D01*
X366500Y715500D02*
X356250Y715500D01*
X355000Y721000D02*
X360500Y715500D01*
X360500Y713600D02*
X360500Y715500D01*
X367000Y716000D02*
X366500Y715500D01*
X398272Y712586D02*
X390158Y720700D01*
X389850Y720700D01*
X390800Y706600D02*
X394700Y710500D01*
X394700Y711000D01*
X390800Y702200D02*
X390800Y706600D01*
X411686Y725999D02*
X411686Y714112D01*
X420928Y704870D01*
X430200Y722200D02*
X427300Y719300D01*
X427300Y718900D01*
X430182Y726818D02*
X437300Y719700D01*
X438088Y719700D01*
X423800Y714900D02*
X423493Y714900D01*
X429300Y709400D02*
X423800Y714900D01*
X313000Y734900D02*
X313000Y725250D01*
X367000Y725000D02*
X366800Y725200D01*
X366800Y735059D01*
X419200Y733200D02*
X416400Y730400D01*
X423800Y733200D02*
X419200Y733200D01*
X416400Y730400D02*
X414650Y730400D01*
X411686Y725999D02*
X412386Y726699D01*
X430200Y726800D02*
X430200Y722200D01*
X444000Y597000D02*
X447000Y594000D01*
X440000Y597000D02*
X444000Y597000D01*
X447000Y577750D02*
X451250Y577750D01*
X447000Y594000D02*
X447000Y577750D01*
X434000Y531500D02*
X434000Y519250D01*
X436000Y627250D02*
X435900Y627350D01*
X435900Y633600D01*
X436000Y627250D02*
X429710Y627250D01*
X425160Y631800D01*
X425100Y631800D02*
X423900Y633000D01*
X421700Y633000D01*
X456000Y531100D02*
X456000Y513000D01*
X352900Y660100D02*
X352900Y657100D01*
X345000Y668000D02*
X352900Y660100D01*
X345000Y668000D02*
X344000Y667000D01*
X327000Y520200D02*
X327000Y533000D01*
X344000Y667000D02*
X334850Y667000D01*
X307900Y581900D02*
X308725Y581900D01*
X293000Y580500D02*
X293000Y586600D01*
X299750Y573750D02*
X307900Y581900D01*
X299750Y573750D02*
X293000Y580500D01*
X294400Y568500D02*
X299200Y573300D01*
X352900Y613000D02*
X353000Y612900D01*
X353250Y612900D01*
X294400Y563200D02*
X294400Y568500D01*
X294300Y563100D02*
X294400Y563200D01*
X305863Y597251D02*
X305814Y597300D01*
X343500Y613000D02*
X352900Y613000D01*
X339000Y617500D02*
X339000Y624800D01*
X305863Y592451D02*
X305863Y597251D01*
X343500Y613000D02*
X339000Y617500D01*
X310132Y588182D02*
X314932Y588182D01*
X310132Y588182D02*
X305863Y592451D01*
X330650Y607250D02*
X339300Y615900D01*
X325750Y607250D02*
X330650Y607250D01*
X316600Y607400D02*
X308200Y607400D01*
X316750Y607250D02*
X316600Y607400D01*
X316800Y607300D02*
X325850Y607300D01*
X305972Y602100D02*
X305900Y602100D01*
X305717Y602283D01*
X255200Y538700D02*
X255400Y538900D01*
X277200Y538900D01*
X308800Y602200D02*
X311200Y602200D01*
X317700Y595700D02*
X311200Y602200D01*
X328119Y595700D02*
X317700Y595700D01*
X328119Y595700D02*
X329619Y597200D01*
X329500Y597000D02*
X332800Y597000D01*
X421700Y518000D02*
X421500Y518200D01*
X421500Y526650D01*
X423150Y528300D01*
X423450Y528300D01*
X466300Y537200D02*
X466300Y533450D01*
X466300Y537200D02*
X463500Y540000D01*
X466300Y533450D02*
X467200Y532550D01*
X271750Y568250D02*
X271000Y567500D01*
X271000Y556100D01*
X291950Y553900D02*
X294300Y556250D01*
X294300Y563000D01*
X546000Y647250D02*
X545750Y647000D01*
X242000Y571000D02*
X242200Y571200D01*
X253700Y571200D01*
X256800Y568100D01*
X271950Y568100D01*
X395000Y603000D02*
X395000Y568400D01*
X395100Y568300D01*
G54D14*
X485950Y647200D02*
X443500Y647200D01*
X495050Y647200D02*
X505625Y647200D01*
X505550Y647300D02*
X516265Y647300D01*
X545750Y647000D02*
X529200Y647000D01*
G54D15*
X221485Y403035D02*
X221485Y440888D01*
X221485Y403035D02*
X259338Y403035D01*
X600015Y403035D02*
X562162Y403035D01*
X600015Y403035D02*
X600015Y440888D01*
X600015Y781565D02*
X600015Y743712D01*
X600015Y781565D02*
X562162Y781565D01*
X221485Y781565D02*
X259338Y781565D01*
X221485Y781565D02*
X221485Y743712D01*
X171485Y403035D02*
X71485Y403035D01*
X121485Y353035D02*
X121485Y453035D01*
X83985Y403035D02*
G75*
D01*
G02X83985Y403035I37500J0*
G01*
X650015Y403035D02*
X750015Y403035D01*
X700015Y353035D02*
X700015Y453035D01*
X662515Y403035D02*
G75*
D01*
G02X662515Y403035I37500J0*
G01*
X687515Y403035D02*
G75*
D01*
G02X687515Y403035I12500J0*
G01*
X171485Y781565D02*
X71485Y781565D01*
X121485Y731565D02*
X121485Y831565D01*
X83985Y781565D02*
G75*
D01*
G02X83985Y781565I37500J0*
G01*
X96485Y781565D02*
G75*
D01*
G02X96485Y781565I25000J0*
G01*
X108985Y781565D02*
G75*
D01*
G02X108985Y781565I12500J0*
G01*
X221485Y403035D02*
X221485Y440888D01*
X221485Y403035D02*
X259338Y403035D01*
X600015Y403035D02*
X562162Y403035D01*
X600015Y403035D02*
X600015Y440888D01*
X600015Y781565D02*
X600015Y743712D01*
X600015Y781565D02*
X562162Y781565D01*
X221485Y781565D02*
X259338Y781565D01*
X221485Y781565D02*
X221485Y743712D01*
X171485Y403035D02*
X71485Y403035D01*
X121485Y353035D02*
X121485Y453035D01*
X83985Y403035D02*
G75*
D01*
G02X83985Y403035I37500J0*
G01*
X650015Y403035D02*
X750015Y403035D01*
X700015Y353035D02*
X700015Y453035D01*
X662515Y403035D02*
G75*
D01*
G02X662515Y403035I37500J0*
G01*
X687515Y403035D02*
G75*
D01*
G02X687515Y403035I12500J0*
G01*
X171485Y781565D02*
X71485Y781565D01*
X121485Y731565D02*
X121485Y831565D01*
X83985Y781565D02*
G75*
D01*
G02X83985Y781565I37500J0*
G01*
X96485Y781565D02*
G75*
D01*
G02X96485Y781565I25000J0*
G01*
X108985Y781565D02*
G75*
D01*
G02X108985Y781565I12500J0*
G01*
G54D16*
X434000Y519250D03*
X443000Y519250D03*
X420750Y540750D03*
X420750Y549750D03*
X456000Y540250D03*
X456000Y531250D03*
X271750Y577250D03*
X271750Y568250D03*
X282250Y568250D03*
X282250Y577250D03*
X299750Y573750D03*
X299750Y564750D03*
X442500Y557000D03*
X433500Y557000D03*
X255250Y597250D03*
X264250Y597250D03*
X340000Y616500D03*
X340000Y607500D03*
X316750Y607250D03*
X316750Y616250D03*
X325750Y607250D03*
X325750Y616250D03*
X436000Y616500D03*
X436000Y607500D03*
X314500Y654500D03*
X314500Y663500D03*
X422500Y682500D03*
X422500Y673500D03*
X367000Y716000D03*
X367000Y725000D03*
X516250Y647250D03*
X525250Y647250D03*
X486000Y647250D03*
X495000Y647250D03*
X505500Y638250D03*
X505500Y647250D03*
X416250Y530250D03*
X425250Y530250D03*
X436000Y627250D03*
X445000Y627250D03*
X262250Y577250D03*
X262250Y586250D03*
X313000Y716250D03*
X313000Y725250D03*
G54D17*
X327000Y533000D03*
X444750Y528500D03*
X372000Y576000D03*
X357000Y593000D03*
X372000Y585000D03*
X416000Y597250D03*
X407500Y590000D03*
X440000Y597000D03*
X265750Y609000D03*
X291000Y605000D03*
X247000Y628000D03*
X292941Y630800D03*
X339000Y624800D03*
X325000Y638000D03*
X336000Y667000D03*
X412900Y672850D03*
X325000Y694000D03*
X345000Y694000D03*
X383000Y696000D03*
X426000Y694000D03*
X390000Y721000D03*
X437000Y720000D03*
X313000Y735000D03*
X367000Y735000D03*
X529000Y592000D03*
X549000Y592000D03*
X571000Y592000D03*
X590000Y592000D03*
X519000Y618000D03*
X519000Y604000D03*
X519000Y664000D03*
X519000Y694000D03*
X519000Y678000D03*
X529000Y704000D03*
X547000Y704000D03*
X551000Y545000D03*
X283000Y650000D03*
X282000Y689000D03*
X506000Y659000D03*
X470000Y659000D03*
X436000Y657000D03*
X452000Y635000D03*
X470000Y635000D03*
X485000Y635000D03*
X519000Y635000D03*
X506000Y628000D03*
X485000Y659000D03*
X335000Y677000D03*
X469000Y577000D03*
X403000Y531000D03*
X340000Y492000D03*
X378000Y491000D03*
X353000Y492000D03*
X507000Y511000D03*
X432000Y474000D03*
X452000Y556000D03*
X395000Y568000D03*
X456000Y513000D03*
X277000Y539000D03*
X342000Y598000D03*
X332800Y597000D03*
X465900Y531000D03*
X271000Y556000D03*
X291950Y553900D03*
X282000Y560000D03*
X452000Y659000D03*
X299100Y581800D03*
X379000Y653000D03*
X391000Y653000D03*
X367000Y653000D03*
X403000Y653000D03*
X367000Y641000D03*
X379000Y641000D03*
X391000Y641000D03*
X403000Y641000D03*
X367000Y629000D03*
X379000Y629000D03*
X391000Y629000D03*
X403000Y629000D03*
X367000Y617000D03*
X379000Y617000D03*
X391000Y617000D03*
X403000Y617000D03*
G54D18*
X425250Y577750D03*
X451250Y577750D03*
G54D19*
X308568Y581818D03*
X314932Y588182D03*
X253932Y621432D03*
X247568Y615068D03*
X267068Y621568D03*
X273432Y627932D03*
X260568Y628068D03*
X266932Y634432D03*
X396182Y682818D03*
X389818Y689182D03*
X397182Y695818D03*
X390818Y702182D03*
X260432Y614932D03*
X254068Y608568D03*
X423818Y733182D03*
X430182Y726818D03*
G54D20*
X325000Y656000D03*
X339000Y656000D03*
X325000Y682000D03*
X325000Y668000D03*
X345000Y682000D03*
X345000Y668000D03*
G54D21*
X410293Y701979D03*
X408879Y700565D03*
X397565Y711879D03*
X398979Y713293D03*
X424435Y716121D03*
X423021Y714707D03*
X411707Y726021D03*
X413121Y727435D03*
G54D22*
X325000Y721000D03*
X355000Y721000D03*
G54D23*
X327750Y512050D03*
X353150Y512050D03*
X340450Y512050D03*
X378550Y512050D03*
X327750Y553450D03*
X340450Y553450D03*
X353150Y553450D03*
X365850Y553450D03*
X378550Y553450D03*
G54D24*
X274972Y597359D03*
X305972Y597359D03*
X274972Y602359D03*
X274972Y607359D03*
X274972Y612359D03*
X305972Y602359D03*
X305972Y612359D03*
X305972Y607359D03*
G54D25*
X282972Y589359D03*
X287972Y589359D03*
X292972Y589359D03*
X297972Y589359D03*
X282972Y620359D03*
X287972Y620359D03*
X292972Y620359D03*
X297972Y620359D03*
G54D26*
X255200Y538700D03*
X279500Y495200D03*
G54D27*
X440750Y636250D03*
X430750Y636250D03*
X435750Y636250D03*
X440750Y647250D03*
X435750Y647250D03*
X430750Y647250D03*
G54D28*
X546000Y647250D03*
X576000Y647250D03*
G54D29*
X242000Y571000D03*
G54D30*
X405300Y518000D03*
X421700Y518000D03*
G54D31*
X431500Y539000D03*
X446500Y539000D03*
X446500Y534000D03*
X446500Y544000D03*
G54D32*
X439000Y531500D03*
X434000Y531500D03*
X439000Y546500D03*
X434000Y546500D03*
G54D33*
X363000Y603000D03*
X367000Y603000D03*
X371000Y603000D03*
X375000Y603000D03*
X379000Y603000D03*
X383000Y603000D03*
X387000Y603000D03*
X391000Y603000D03*
X395000Y603000D03*
X399000Y603000D03*
X403000Y603000D03*
X407000Y603000D03*
X379000Y667000D03*
X363000Y667000D03*
X367000Y667000D03*
X371000Y667000D03*
X375000Y667000D03*
X399000Y667000D03*
X383000Y667000D03*
X387000Y667000D03*
X391000Y667000D03*
X395000Y667000D03*
X403000Y667000D03*
X407000Y667000D03*
G54D34*
X353000Y613000D03*
X353000Y617000D03*
X417000Y613000D03*
X417000Y617000D03*
X353000Y633000D03*
X353000Y629000D03*
X353000Y625000D03*
X353000Y621000D03*
X353000Y637000D03*
X417000Y633000D03*
X417000Y629000D03*
X417000Y625000D03*
X417000Y621000D03*
X417000Y637000D03*
X353000Y653000D03*
X353000Y649000D03*
X353000Y645000D03*
X353000Y641000D03*
X353000Y657000D03*
X417000Y653000D03*
X417000Y649000D03*
X417000Y645000D03*
X417000Y641000D03*
X417000Y657000D03*

M02*
