M48
METRIC,TZ
VER,1
FMAT,2
DETECT,ON
ATC,ON
T1C0.3000
T2C3.0000
T3C0.9000
T4C0.6000
%
T1
X32.7000Y53.3000
X44.4750Y52.8500
X37.2000Y57.6000
X35.7000Y59.3000
X37.2000Y58.5000
X41.6000Y59.7250
X40.7500Y59.0000
X44.0000Y59.7000
X26.5750Y60.9000
X29.1000Y60.5000
X24.7000Y62.8000
X29.2941Y63.0800
X33.9000Y62.4800
X32.5000Y63.8000
X33.6000Y66.7000
X41.2900Y67.2850
X32.5000Y69.4000
X34.5000
X38.3000Y69.6000
X42.6000Y69.4000
X39.0000Y72.1000
X43.7000Y72.0000
X31.3000Y73.5000
X36.7000
X52.9000Y59.2000
X54.9000
X57.1000
X59.0000
X51.9000Y61.8000
Y60.4000
Y66.4000
Y69.4000
Y67.8000
X52.9000Y70.4000
X54.7000
X55.1000Y54.5000
X28.3000Y65.0000
X28.2000Y68.9000
X50.6000Y65.9000
X47.0000
X43.6000Y65.7000
X45.2000Y63.5000
X47.0000
X48.5000
X51.9000
X50.6000Y62.8000
X48.5000Y65.9000
X33.5000Y67.7000
X46.9000Y57.7000
X40.3000Y53.1000
X34.0000Y49.2000
X37.8000Y49.1000
X35.3000Y49.2000
X50.7000Y51.1000
X43.2000Y47.4000
X45.2000Y55.6000
X39.5000Y56.8000
X45.6000Y51.3000
X27.7000Y53.9000
X34.2000Y59.8000
X33.2800Y59.7000
X46.5900Y53.1000
X27.1000Y55.6000
X29.1950Y55.3900
X28.2000Y56.0000
X45.2000Y65.9000
X29.9100Y58.1800
X37.9000Y65.3000
X39.1000
X36.7000
X40.3000
X36.7000Y64.1000
X37.9000
X39.1000
X40.3000
X36.7000Y62.9000
X37.9000
X39.1000
X40.3000
X36.7000Y61.7000
X37.9000
X39.1000
X40.3000
T2
X46.5700Y74.4500
X35.4400Y44.2300
T3
X25.5200Y53.8700
X27.9500Y49.5200
T4
X24.2000Y57.1000
X40.5300Y51.8000
X42.1700
M30
