G04 Generated by Ultiboard 13.0 *
%FSLAX34Y34*%
%MOMM*%

%ADD10C,0.0001*%
%ADD11C,0.2540*%
%ADD12C,0.1300*%
%ADD13C,0.1500*%
%ADD14C,0.0010*%
%ADD15C,0.6000*%
%ADD16C,2.5000*%
%ADD17C,2.0000*%
%ADD18C,1.2000*%


G04 ColorRGB 0000FF for the following layer *
%LNCopper Bottom*%
%LPD*%
G54D10*
G36*
X522430Y639640D02*
X522430Y639640D01*
X522430Y659360D01*
G74*
D01*
G02X521046Y658605I3429J4640*
G01*
X521046Y658605D01*
X521046Y661954D01*
X522430Y661954D01*
X522430Y666046D01*
X521046Y666046D01*
X521046Y669395D01*
G74*
D01*
G02X522430Y668640I2045J5394*
G01*
X522430Y668640D01*
X522430Y673360D01*
G74*
D01*
G02X521046Y672605I3429J4640*
G01*
X521046Y672605D01*
X521046Y675954D01*
X522430Y675954D01*
X522430Y680046D01*
X521046Y680046D01*
X521046Y683395D01*
G74*
D01*
G02X522430Y682640I2045J5394*
G01*
X522430Y682640D01*
X522430Y689360D01*
G74*
D01*
G02X521046Y688605I3429J4640*
G01*
X521046Y688605D01*
X521046Y691954D01*
X522430Y691954D01*
X522430Y696046D01*
X521046Y696046D01*
X521046Y699395D01*
G74*
D01*
G02X522430Y698640I2045J5394*
G01*
X522430Y698640D01*
X522430Y700126D01*
X523174Y700870D01*
X524153Y700870D01*
G74*
D01*
G02X523605Y701954I4846J3130*
G01*
X523605Y701954D01*
X526954Y701954D01*
X526954Y700870D01*
X531046Y700870D01*
X531046Y701954D01*
X534395Y701954D01*
G74*
D01*
G02X533847Y700870I5394J2046*
G01*
X533847Y700870D01*
X542153Y700870D01*
G74*
D01*
G02X541605Y701954I4846J3130*
G01*
X541605Y701954D01*
X544954Y701954D01*
X544954Y700870D01*
X549046Y700870D01*
X549046Y701954D01*
X552395Y701954D01*
G74*
D01*
G02X551847Y700870I5394J2046*
G01*
X551847Y700870D01*
X558909Y700870D01*
G74*
D01*
G03X485644Y760018I148158J108570*
G01*
G75*
D01*
G02X460269Y769180I-19944J-15516*
G01*
G75*
D01*
G03X334439Y425222I-49526J-176877*
G01*
G75*
D01*
G02X358179Y416303I19961J17077*
G01*
G75*
D01*
G03X594386Y588251I52572J175996*
G01*
G74*
D01*
G02X592046Y586605I4385J3748*
G01*
X592046Y586605D01*
X592046Y589954D01*
X594416Y589954D01*
G75*
D01*
G03X594422Y594046I-183665J2315*
G01*
X594422Y594046D01*
X592046Y594046D01*
X592046Y595930D01*
X587954Y595930D01*
X587954Y594046D01*
X584605Y594046D01*
G74*
D01*
G02X585775Y595930I5394J2045*
G01*
X585775Y595930D01*
X575225Y595930D01*
G74*
D01*
G02X576395Y594046I4225J3929*
G01*
X576395Y594046D01*
X573046Y594046D01*
X573046Y595930D01*
X568954Y595930D01*
X568954Y594046D01*
X565605Y594046D01*
G74*
D01*
G02X566775Y595930I5394J2045*
G01*
X566775Y595930D01*
X553225Y595930D01*
G74*
D01*
G02X554395Y594046I4225J3929*
G01*
X554395Y594046D01*
X551046Y594046D01*
X551046Y595930D01*
X546954Y595930D01*
X546954Y594046D01*
X543605Y594046D01*
G74*
D01*
G02X544775Y595930I5394J2045*
G01*
X544775Y595930D01*
X533225Y595930D01*
G74*
D01*
G02X534395Y594046I4225J3929*
G01*
X534395Y594046D01*
X531046Y594046D01*
X531046Y595930D01*
X526954Y595930D01*
X526954Y594046D01*
X523605Y594046D01*
G74*
D01*
G02X524775Y595930I5394J2045*
G01*
X524775Y595930D01*
X523174Y595930D01*
X522430Y596674D01*
X522430Y599360D01*
G74*
D01*
G02X521046Y598605I3429J4640*
G01*
X521046Y598605D01*
X521046Y601954D01*
X522430Y601954D01*
X522430Y606046D01*
X521046Y606046D01*
X521046Y609395D01*
G74*
D01*
G02X522430Y608640I2045J5394*
G01*
X522430Y608640D01*
X522430Y613360D01*
G74*
D01*
G02X521046Y612605I3429J4640*
G01*
X521046Y612605D01*
X521046Y615954D01*
X522430Y615954D01*
X522430Y620046D01*
X521046Y620046D01*
X521046Y623395D01*
G74*
D01*
G02X522430Y622640I2045J5394*
G01*
X522430Y622640D01*
X522430Y630360D01*
G74*
D01*
G02X521046Y629605I3429J4640*
G01*
X521046Y629605D01*
X521046Y632954D01*
X522430Y632954D01*
X522430Y637046D01*
X521046Y637046D01*
X521046Y640395D01*
G74*
D01*
G02X522430Y639640I2045J5394*
G01*
D02*
G37*
%LPC*%
G36*
X339537Y630545D02*
G75*
D01*
G02X338153Y619093I-529J-5746*
G01*
X338153Y619093D01*
X330437Y611377D01*
X330437Y602264D01*
G75*
D01*
G02X337028Y600927I2363J-5264*
G01*
G74*
D01*
G02X339954Y603395I4972J2926*
G01*
X339954Y603395D01*
X339954Y600046D01*
X337700Y600046D01*
G75*
D01*
G02X338474Y595954I-4899J-3046*
G01*
X338474Y595954D01*
X339954Y595954D01*
X339954Y592605D01*
G74*
D01*
G02X337772Y594073I2045J5395*
G01*
G74*
D01*
G02X336687Y592735I4973J2924*
G01*
X336687Y592735D01*
X336687Y531967D01*
G75*
D01*
G02X335675Y529532I-3437J1*
G01*
X335675Y529532D01*
X331568Y525425D01*
G74*
D01*
G02X329133Y524413I2435J2424*
G01*
X329133Y524413D01*
X288157Y524413D01*
G75*
D01*
G02X285720Y525420I-6J3437*
G01*
X285720Y525420D01*
X277847Y533293D01*
G75*
D01*
G02X271254Y538470I-848J5706*
G01*
G75*
D01*
G02X271242Y539371I-16053J237*
G01*
G75*
D01*
G02X282707Y538153I5756J-389*
G01*
X282707Y538153D01*
X289573Y531287D01*
X321490Y531287D01*
G75*
D01*
G02X323563Y537635I5510J1713*
G01*
X323563Y537635D01*
X323563Y612789D01*
G75*
D01*
G02X324570Y615230I3437J10*
G01*
X324570Y615230D01*
X333293Y623953D01*
G75*
D01*
G02X333329Y625867I5706J850*
G01*
G75*
D01*
G02X332663Y627905I2770J2033*
G01*
X332663Y627905D01*
X332663Y662293D01*
G75*
D01*
G02X332678Y671718I3335J4707*
G01*
G74*
D01*
G02X329605Y674954I2321J5281*
G01*
X329605Y674954D01*
X332954Y674954D01*
X332954Y671900D01*
G75*
D01*
G02X337046Y672674I3046J-4899*
G01*
X337046Y672674D01*
X337046Y674954D01*
X340395Y674954D01*
G74*
D01*
G02X338322Y672282I5394J2045*
G01*
G75*
D01*
G02X339537Y662441I-2320J-5282*
G01*
X339537Y662441D01*
X339537Y630545D01*
D02*
G37*
G36*
X320520Y634363D02*
X320520Y634363D01*
X307223Y634363D01*
X301235Y628375D01*
G74*
D01*
G02X299316Y627402I2435J2424*
G01*
G75*
D01*
G02X298796Y627363I-516J3397*
G01*
X298796Y627363D01*
X297576Y627363D01*
G75*
D01*
G02X297490Y634350I-4635J3437*
G01*
X297490Y634350D01*
X303370Y640230D01*
G74*
D01*
G02X304678Y641048I2429J2430*
G01*
G75*
D01*
G02X305800Y641237I1124J-3247*
G01*
X305800Y641237D01*
X320223Y641237D01*
G75*
D01*
G02X320520Y634363I4776J-3237*
G01*
D02*
G37*
G36*
X465053Y525293D02*
X465053Y525293D01*
X464587Y524827D01*
X464587Y510867D01*
G75*
D01*
G02X463575Y508432I-3437J1*
G01*
X463575Y508432D01*
X460568Y505425D01*
G74*
D01*
G02X458133Y504413I2435J2424*
G01*
X458133Y504413D01*
X431855Y504413D01*
G75*
D01*
G02X429420Y505420I-4J3437*
G01*
X429420Y505420D01*
X425575Y509265D01*
G75*
D01*
G02X412436Y515656I-3876J8734*
G01*
X412436Y515656D01*
X410092Y518000D01*
X412436Y520344D01*
G75*
D01*
G02X430435Y514125I9260J-2355*
G01*
X430435Y514125D01*
X433273Y511287D01*
X446853Y511287D01*
X395847Y562293D01*
G75*
D01*
G02X391469Y572563I-849J5706*
G01*
X391469Y572563D01*
X376635Y572563D01*
G75*
D01*
G02X368389Y580500I-4635J3437*
G01*
G75*
D01*
G02X376635Y588437I3617J4495*
G01*
X376635Y588437D01*
X401077Y588437D01*
X401793Y589153D01*
G75*
D01*
G02X409580Y595382I5706J848*
G01*
G74*
D01*
G02X410278Y596388I3127J1424*
G01*
X410278Y596388D01*
X410293Y596403D01*
G75*
D01*
G02X416145Y591482I5707J846*
G01*
X416145Y591482D01*
X416145Y587925D01*
G75*
D01*
G02X415133Y585490I-3437J1*
G01*
X415133Y585490D01*
X412068Y582425D01*
G74*
D01*
G02X410608Y581555I2434J2425*
G01*
G75*
D01*
G02X409628Y581413I-978J3294*
G01*
X409628Y581413D01*
X408623Y581413D01*
X400785Y573575D01*
G74*
D01*
G02X399217Y572675I2434J2425*
G01*
G74*
D01*
G02X398525Y572568I868J3324*
G01*
G75*
D01*
G02X400707Y567153I-3524J-4567*
G01*
X400707Y567153D01*
X441406Y526454D01*
X442704Y526454D01*
X442704Y525156D01*
X451390Y516470D01*
G75*
D01*
G02X457713Y518510I4610J-3470*
G01*
X457713Y518510D01*
X457713Y526244D01*
G75*
D01*
G02X458720Y528680I3437J5*
G01*
X458720Y528680D01*
X460193Y530153D01*
G75*
D01*
G02X465053Y525293I5707J847*
G01*
D02*
G37*
G36*
X545500Y704000D02*
G75*
D01*
G02X545500Y704000I1500J0*
G01*
D02*
G37*
G36*
X482954Y653605D02*
G74*
D01*
G02X479605Y656954I2045J5394*
G01*
X479605Y656954D01*
X482954Y656954D01*
X482954Y653605D01*
D02*
G37*
G36*
X468500Y659000D02*
G75*
D01*
G02X468500Y659000I1500J0*
G01*
D02*
G37*
G36*
X475395Y656954D02*
G74*
D01*
G02X472046Y653605I5394J2045*
G01*
X472046Y653605D01*
X472046Y656954D01*
X475395Y656954D01*
D02*
G37*
G36*
X467954Y653605D02*
G74*
D01*
G02X464605Y656954I2045J5394*
G01*
X464605Y656954D01*
X467954Y656954D01*
X467954Y653605D01*
D02*
G37*
G36*
X483500Y659000D02*
G75*
D01*
G02X483500Y659000I1500J0*
G01*
D02*
G37*
G36*
X490395Y656954D02*
G74*
D01*
G02X487046Y653605I5394J2045*
G01*
X487046Y653605D01*
X487046Y656954D01*
X490395Y656954D01*
D02*
G37*
G36*
X516954Y658605D02*
G74*
D01*
G02X513605Y661954I2045J5394*
G01*
X513605Y661954D01*
X516954Y661954D01*
X516954Y658605D01*
D02*
G37*
G36*
X504500Y659000D02*
G75*
D01*
G02X504500Y659000I1500J0*
G01*
D02*
G37*
G36*
X511395Y656954D02*
G74*
D01*
G02X508046Y653605I5394J2045*
G01*
X508046Y653605D01*
X508046Y656954D01*
X511395Y656954D01*
D02*
G37*
G36*
X503954Y653605D02*
G74*
D01*
G02X500605Y656954I2045J5394*
G01*
X500605Y656954D01*
X503954Y656954D01*
X503954Y653605D01*
D02*
G37*
G36*
X479605Y661046D02*
G74*
D01*
G02X482954Y664395I5394J2045*
G01*
X482954Y664395D01*
X482954Y661046D01*
X479605Y661046D01*
D02*
G37*
G36*
X464605Y661046D02*
G74*
D01*
G02X467954Y664395I5394J2045*
G01*
X467954Y664395D01*
X467954Y661046D01*
X464605Y661046D01*
D02*
G37*
G36*
X472046Y664395D02*
G74*
D01*
G02X475395Y661046I2045J5394*
G01*
X475395Y661046D01*
X472046Y661046D01*
X472046Y664395D01*
D02*
G37*
G36*
X487046Y664395D02*
G74*
D01*
G02X490395Y661046I2045J5394*
G01*
X490395Y661046D01*
X487046Y661046D01*
X487046Y664395D01*
D02*
G37*
G36*
X517500Y664000D02*
G75*
D01*
G02X517500Y664000I1500J0*
G01*
D02*
G37*
G36*
X517500Y678000D02*
G75*
D01*
G02X517500Y678000I1500J0*
G01*
D02*
G37*
G36*
X513605Y666046D02*
G74*
D01*
G02X516954Y669395I5394J2045*
G01*
X516954Y669395D01*
X516954Y666046D01*
X513605Y666046D01*
D02*
G37*
G36*
X500605Y661046D02*
G74*
D01*
G02X503954Y664395I5394J2045*
G01*
X503954Y664395D01*
X503954Y661046D01*
X500605Y661046D01*
D02*
G37*
G36*
X508046Y664395D02*
G74*
D01*
G02X511395Y661046I2045J5394*
G01*
X511395Y661046D01*
X508046Y661046D01*
X508046Y664395D01*
D02*
G37*
G36*
X516954Y672605D02*
G74*
D01*
G02X513605Y675954I2045J5394*
G01*
X513605Y675954D01*
X516954Y675954D01*
X516954Y672605D01*
D02*
G37*
G36*
X517500Y694000D02*
G75*
D01*
G02X517500Y694000I1500J0*
G01*
D02*
G37*
G36*
X513605Y680046D02*
G74*
D01*
G02X516954Y683395I5394J2045*
G01*
X516954Y683395D01*
X516954Y680046D01*
X513605Y680046D01*
D02*
G37*
G36*
X513605Y696046D02*
G74*
D01*
G02X516954Y699395I5394J2045*
G01*
X516954Y699395D01*
X516954Y696046D01*
X513605Y696046D01*
D02*
G37*
G36*
X516954Y688605D02*
G74*
D01*
G02X513605Y691954I2045J5394*
G01*
X513605Y691954D01*
X516954Y691954D01*
X516954Y688605D01*
D02*
G37*
G36*
X523605Y706046D02*
G74*
D01*
G02X526954Y709395I5394J2045*
G01*
X526954Y709395D01*
X526954Y706046D01*
X523605Y706046D01*
D02*
G37*
G36*
X531046Y709395D02*
G74*
D01*
G02X534395Y706046I2045J5394*
G01*
X534395Y706046D01*
X531046Y706046D01*
X531046Y709395D01*
D02*
G37*
G36*
X527500Y704000D02*
G75*
D01*
G02X527500Y704000I1500J0*
G01*
D02*
G37*
G36*
X541605Y706046D02*
G74*
D01*
G02X544954Y709395I5394J2045*
G01*
X544954Y709395D01*
X544954Y706046D01*
X541605Y706046D01*
D02*
G37*
G36*
X549046Y709395D02*
G74*
D01*
G02X552395Y706046I2045J5394*
G01*
X552395Y706046D01*
X549046Y706046D01*
X549046Y709395D01*
D02*
G37*
G36*
X431605Y722046D02*
G74*
D01*
G02X434954Y725395I5394J2045*
G01*
X434954Y725395D01*
X434954Y722046D01*
X431605Y722046D01*
D02*
G37*
G36*
X384605Y723046D02*
G74*
D01*
G02X387954Y726395I5394J2045*
G01*
X387954Y726395D01*
X387954Y723046D01*
X384605Y723046D01*
D02*
G37*
G36*
X392046Y726395D02*
G74*
D01*
G02X395395Y723046I2045J5394*
G01*
X395395Y723046D01*
X392046Y723046D01*
X392046Y726395D01*
D02*
G37*
G36*
X372395Y732954D02*
G74*
D01*
G02X369046Y729605I5394J2045*
G01*
X369046Y729605D01*
X369046Y732954D01*
X372395Y732954D01*
D02*
G37*
G36*
X364954Y729605D02*
G74*
D01*
G02X361605Y732954I2045J5394*
G01*
X361605Y732954D01*
X364954Y732954D01*
X364954Y729605D01*
D02*
G37*
G36*
X365500Y735000D02*
G75*
D01*
G02X365500Y735000I1500J0*
G01*
D02*
G37*
G36*
X361605Y737046D02*
G74*
D01*
G02X364954Y740395I5394J2045*
G01*
X364954Y740395D01*
X364954Y737046D01*
X361605Y737046D01*
D02*
G37*
G36*
X369046Y740395D02*
G74*
D01*
G02X372395Y737046I2045J5394*
G01*
X372395Y737046D01*
X369046Y737046D01*
X369046Y740395D01*
D02*
G37*
G36*
X318395Y732954D02*
G74*
D01*
G02X315046Y729605I5394J2045*
G01*
X315046Y729605D01*
X315046Y732954D01*
X318395Y732954D01*
D02*
G37*
G36*
X310954Y729605D02*
G74*
D01*
G02X307605Y732954I2045J5394*
G01*
X307605Y732954D01*
X310954Y732954D01*
X310954Y729605D01*
D02*
G37*
G36*
X311500Y735000D02*
G75*
D01*
G02X311500Y735000I1500J0*
G01*
D02*
G37*
G36*
X307605Y737046D02*
G74*
D01*
G02X310954Y740395I5394J2045*
G01*
X310954Y740395D01*
X310954Y737046D01*
X307605Y737046D01*
D02*
G37*
G36*
X315046Y740395D02*
G74*
D01*
G02X318395Y737046I2045J5394*
G01*
X318395Y737046D01*
X315046Y737046D01*
X315046Y740395D01*
D02*
G37*
G36*
X280954Y644605D02*
G74*
D01*
G02X277605Y647954I2045J5394*
G01*
X277605Y647954D01*
X280954Y647954D01*
X280954Y644605D01*
D02*
G37*
G36*
X277605Y652046D02*
G74*
D01*
G02X280954Y655395I5394J2045*
G01*
X280954Y655395D01*
X280954Y652046D01*
X277605Y652046D01*
D02*
G37*
G36*
X281500Y650000D02*
G75*
D01*
G02X281500Y650000I1500J0*
G01*
D02*
G37*
G36*
X288395Y647954D02*
G74*
D01*
G02X285046Y644605I5394J2045*
G01*
X285046Y644605D01*
X285046Y647954D01*
X288395Y647954D01*
D02*
G37*
G36*
X285046Y655395D02*
G74*
D01*
G02X288395Y652046I2045J5394*
G01*
X288395Y652046D01*
X285046Y652046D01*
X285046Y655395D01*
D02*
G37*
G36*
X377500Y653000D02*
G75*
D01*
G02X377500Y653000I1500J0*
G01*
D02*
G37*
G36*
X365500Y653000D02*
G75*
D01*
G02X365500Y653000I1500J0*
G01*
D02*
G37*
G36*
X364954Y647605D02*
G74*
D01*
G02X361605Y650954I2045J5394*
G01*
X361605Y650954D01*
X364954Y650954D01*
X364954Y647605D01*
D02*
G37*
G36*
X372395Y650954D02*
G74*
D01*
G02X369046Y647605I5394J2045*
G01*
X369046Y647605D01*
X369046Y650954D01*
X372395Y650954D01*
D02*
G37*
G36*
X369046Y658395D02*
G74*
D01*
G02X372395Y655046I2045J5394*
G01*
X372395Y655046D01*
X369046Y655046D01*
X369046Y658395D01*
D02*
G37*
G36*
X361605Y655046D02*
G74*
D01*
G02X364954Y658395I5394J2045*
G01*
X364954Y658395D01*
X364954Y655046D01*
X361605Y655046D01*
D02*
G37*
G36*
X376954Y647605D02*
G74*
D01*
G02X373605Y650954I2045J5394*
G01*
X373605Y650954D01*
X376954Y650954D01*
X376954Y647605D01*
D02*
G37*
G36*
X373605Y655046D02*
G74*
D01*
G02X376954Y658395I5394J2045*
G01*
X376954Y658395D01*
X376954Y655046D01*
X373605Y655046D01*
D02*
G37*
G36*
X373605Y643046D02*
G74*
D01*
G02X376954Y646395I5394J2045*
G01*
X376954Y646395D01*
X376954Y643046D01*
X373605Y643046D01*
D02*
G37*
G36*
X369046Y646395D02*
G74*
D01*
G02X372395Y643046I2045J5394*
G01*
X372395Y643046D01*
X369046Y643046D01*
X369046Y646395D01*
D02*
G37*
G36*
X361605Y643046D02*
G74*
D01*
G02X364954Y646395I5394J2045*
G01*
X364954Y646395D01*
X364954Y643046D01*
X361605Y643046D01*
D02*
G37*
G36*
X400954Y647605D02*
G74*
D01*
G02X397605Y650954I2045J5394*
G01*
X397605Y650954D01*
X400954Y650954D01*
X400954Y647605D01*
D02*
G37*
G36*
X397605Y655046D02*
G74*
D01*
G02X400954Y658395I5394J2045*
G01*
X400954Y658395D01*
X400954Y655046D01*
X397605Y655046D01*
D02*
G37*
G36*
X397605Y643046D02*
G74*
D01*
G02X400954Y646395I5394J2045*
G01*
X400954Y646395D01*
X400954Y643046D01*
X397605Y643046D01*
D02*
G37*
G36*
X389500Y653000D02*
G75*
D01*
G02X389500Y653000I1500J0*
G01*
D02*
G37*
G36*
X388954Y647605D02*
G74*
D01*
G02X385605Y650954I2045J5394*
G01*
X385605Y650954D01*
X388954Y650954D01*
X388954Y647605D01*
D02*
G37*
G36*
X396395Y650954D02*
G74*
D01*
G02X393046Y647605I5394J2045*
G01*
X393046Y647605D01*
X393046Y650954D01*
X396395Y650954D01*
D02*
G37*
G36*
X393046Y658395D02*
G74*
D01*
G02X396395Y655046I2045J5394*
G01*
X396395Y655046D01*
X393046Y655046D01*
X393046Y658395D01*
D02*
G37*
G36*
X385605Y655046D02*
G74*
D01*
G02X388954Y658395I5394J2045*
G01*
X388954Y658395D01*
X388954Y655046D01*
X385605Y655046D01*
D02*
G37*
G36*
X384395Y650954D02*
G74*
D01*
G02X381046Y647605I5394J2045*
G01*
X381046Y647605D01*
X381046Y650954D01*
X384395Y650954D01*
D02*
G37*
G36*
X381046Y658395D02*
G74*
D01*
G02X384395Y655046I2045J5394*
G01*
X384395Y655046D01*
X381046Y655046D01*
X381046Y658395D01*
D02*
G37*
G36*
X393046Y646395D02*
G74*
D01*
G02X396395Y643046I2045J5394*
G01*
X396395Y643046D01*
X393046Y643046D01*
X393046Y646395D01*
D02*
G37*
G36*
X385605Y643046D02*
G74*
D01*
G02X388954Y646395I5394J2045*
G01*
X388954Y646395D01*
X388954Y643046D01*
X385605Y643046D01*
D02*
G37*
G36*
X381046Y646395D02*
G74*
D01*
G02X384395Y643046I2045J5394*
G01*
X384395Y643046D01*
X381046Y643046D01*
X381046Y646395D01*
D02*
G37*
G36*
X401500Y653000D02*
G75*
D01*
G02X401500Y653000I1500J0*
G01*
D02*
G37*
G36*
X408395Y650954D02*
G74*
D01*
G02X405046Y647605I5394J2045*
G01*
X405046Y647605D01*
X405046Y650954D01*
X408395Y650954D01*
D02*
G37*
G36*
X405046Y658395D02*
G74*
D01*
G02X408395Y655046I2045J5394*
G01*
X408395Y655046D01*
X405046Y655046D01*
X405046Y658395D01*
D02*
G37*
G36*
X405046Y646395D02*
G74*
D01*
G02X408395Y643046I2045J5394*
G01*
X408395Y643046D01*
X405046Y643046D01*
X405046Y646395D01*
D02*
G37*
G36*
X441395Y654954D02*
G74*
D01*
G02X438046Y651605I5394J2045*
G01*
X438046Y651605D01*
X438046Y654954D01*
X441395Y654954D01*
D02*
G37*
G36*
X438046Y662395D02*
G74*
D01*
G02X441395Y659046I2045J5394*
G01*
X441395Y659046D01*
X438046Y659046D01*
X438046Y662395D01*
D02*
G37*
G36*
X430605Y659046D02*
G74*
D01*
G02X433954Y662395I5394J2045*
G01*
X433954Y662395D01*
X433954Y659046D01*
X430605Y659046D01*
D02*
G37*
G36*
X434500Y657000D02*
G75*
D01*
G02X434500Y657000I1500J0*
G01*
D02*
G37*
G36*
X433954Y651605D02*
G74*
D01*
G02X430605Y654954I2045J5394*
G01*
X430605Y654954D01*
X433954Y654954D01*
X433954Y651605D01*
D02*
G37*
G36*
X450500Y659000D02*
G75*
D01*
G02X450500Y659000I1500J0*
G01*
D02*
G37*
G36*
X449954Y653605D02*
G74*
D01*
G02X446605Y656954I2045J5394*
G01*
X446605Y656954D01*
X449954Y656954D01*
X449954Y653605D01*
D02*
G37*
G36*
X457395Y656954D02*
G74*
D01*
G02X454046Y653605I5394J2045*
G01*
X454046Y653605D01*
X454046Y656954D01*
X457395Y656954D01*
D02*
G37*
G36*
X337046Y682395D02*
G74*
D01*
G02X340395Y679046I2045J5394*
G01*
X340395Y679046D01*
X337046Y679046D01*
X337046Y682395D01*
D02*
G37*
G36*
X329605Y679046D02*
G74*
D01*
G02X332954Y682395I5394J2045*
G01*
X332954Y682395D01*
X332954Y679046D01*
X329605Y679046D01*
D02*
G37*
G36*
X333500Y677000D02*
G75*
D01*
G02X333500Y677000I1500J0*
G01*
D02*
G37*
G36*
X408765Y676875D02*
X408765Y676875D01*
X387594Y698046D01*
X385046Y698046D01*
X385046Y698063D01*
X380954Y698063D01*
X380954Y698046D01*
X377605Y698046D01*
G74*
D01*
G02X377612Y698063I5338J2188*
G01*
X377612Y698063D01*
X349096Y698063D01*
G74*
D01*
G02X350395Y696046I4095J4064*
G01*
X350395Y696046D01*
X347046Y696046D01*
X347046Y698063D01*
X342954Y698063D01*
X342954Y696046D01*
X339605Y696046D01*
G74*
D01*
G02X340904Y698063I5394J2047*
G01*
X340904Y698063D01*
X333923Y698063D01*
X330707Y694847D01*
G75*
D01*
G02X325847Y699707I-5707J-847*
G01*
X325847Y699707D01*
X330070Y703930D01*
G75*
D01*
G02X332507Y704937I2430J-2429*
G01*
X332507Y704937D01*
X389000Y704937D01*
G74*
D01*
G02X391435Y703925I1J3437*
G01*
X391435Y703925D01*
X415325Y680035D01*
G74*
D01*
G02X416337Y677600I2424J2435*
G01*
X416337Y677600D01*
X416337Y677485D01*
G75*
D01*
G02X408765Y676875I-3437J-4634*
G01*
D02*
G37*
G36*
X388395Y693954D02*
G74*
D01*
G02X385046Y690605I5394J2045*
G01*
X385046Y690605D01*
X385046Y693954D01*
X388395Y693954D01*
D02*
G37*
G36*
X454046Y664395D02*
G74*
D01*
G02X457395Y661046I2045J5394*
G01*
X457395Y661046D01*
X454046Y661046D01*
X454046Y664395D01*
D02*
G37*
G36*
X446605Y661046D02*
G74*
D01*
G02X449954Y664395I5394J2045*
G01*
X449954Y664395D01*
X449954Y661046D01*
X446605Y661046D01*
D02*
G37*
G36*
X279954Y683605D02*
G74*
D01*
G02X276605Y686954I2045J5394*
G01*
X276605Y686954D01*
X279954Y686954D01*
X279954Y683605D01*
D02*
G37*
G36*
X276605Y691046D02*
G74*
D01*
G02X279954Y694395I5394J2045*
G01*
X279954Y694395D01*
X279954Y691046D01*
X276605Y691046D01*
D02*
G37*
G36*
X280500Y689000D02*
G75*
D01*
G02X280500Y689000I1500J0*
G01*
D02*
G37*
G36*
X287395Y686954D02*
G74*
D01*
G02X284046Y683605I5394J2045*
G01*
X284046Y683605D01*
X284046Y686954D01*
X287395Y686954D01*
D02*
G37*
G36*
X284046Y694395D02*
G74*
D01*
G02X287395Y691046I2045J5394*
G01*
X287395Y691046D01*
X284046Y691046D01*
X284046Y694395D01*
D02*
G37*
G36*
X342954Y688605D02*
G74*
D01*
G02X339605Y691954I2045J5394*
G01*
X339605Y691954D01*
X342954Y691954D01*
X342954Y688605D01*
D02*
G37*
G36*
X343500Y694000D02*
G75*
D01*
G02X343500Y694000I1500J0*
G01*
D02*
G37*
G36*
X350395Y691954D02*
G74*
D01*
G02X347046Y688605I5394J2045*
G01*
X347046Y688605D01*
X347046Y691954D01*
X350395Y691954D01*
D02*
G37*
G36*
X380954Y690605D02*
G74*
D01*
G02X377605Y693954I2045J5394*
G01*
X377605Y693954D01*
X380954Y693954D01*
X380954Y690605D01*
D02*
G37*
G36*
X381500Y696000D02*
G75*
D01*
G02X381500Y696000I1500J0*
G01*
D02*
G37*
G36*
X424500Y694000D02*
G75*
D01*
G02X424500Y694000I1500J0*
G01*
D02*
G37*
G36*
X423954Y688605D02*
G74*
D01*
G02X420605Y691954I2045J5394*
G01*
X420605Y691954D01*
X423954Y691954D01*
X423954Y688605D01*
D02*
G37*
G36*
X431395Y691954D02*
G74*
D01*
G02X428046Y688605I5394J2045*
G01*
X428046Y688605D01*
X428046Y691954D01*
X431395Y691954D01*
D02*
G37*
G36*
X428046Y699395D02*
G74*
D01*
G02X431395Y696046I2045J5394*
G01*
X431395Y696046D01*
X428046Y696046D01*
X428046Y699395D01*
D02*
G37*
G36*
X420605Y696046D02*
G74*
D01*
G02X423954Y699395I5394J2045*
G01*
X423954Y699395D01*
X423954Y696046D01*
X420605Y696046D01*
D02*
G37*
G36*
X388500Y721000D02*
G75*
D01*
G02X388500Y721000I1500J0*
G01*
D02*
G37*
G36*
X387954Y715605D02*
G74*
D01*
G02X384605Y718954I2045J5394*
G01*
X384605Y718954D01*
X387954Y718954D01*
X387954Y715605D01*
D02*
G37*
G36*
X395395Y718954D02*
G74*
D01*
G02X392046Y715605I5394J2045*
G01*
X392046Y715605D01*
X392046Y718954D01*
X395395Y718954D01*
D02*
G37*
G36*
X435500Y720000D02*
G75*
D01*
G02X435500Y720000I1500J0*
G01*
D02*
G37*
G36*
X442395Y717954D02*
G74*
D01*
G02X439046Y714605I5394J2045*
G01*
X439046Y714605D01*
X439046Y717954D01*
X442395Y717954D01*
D02*
G37*
G36*
X434954Y714605D02*
G74*
D01*
G02X431605Y717954I2045J5394*
G01*
X431605Y717954D01*
X434954Y717954D01*
X434954Y714605D01*
D02*
G37*
G36*
X439046Y725395D02*
G74*
D01*
G02X442395Y722046I2045J5394*
G01*
X442395Y722046D01*
X439046Y722046D01*
X439046Y725395D01*
D02*
G37*
G36*
X513605Y620046D02*
G74*
D01*
G02X516954Y623395I5394J2045*
G01*
X516954Y623395D01*
X516954Y620046D01*
X513605Y620046D01*
D02*
G37*
G36*
X516954Y629605D02*
G74*
D01*
G02X513605Y632954I2045J5394*
G01*
X513605Y632954D01*
X516954Y632954D01*
X516954Y629605D01*
D02*
G37*
G36*
X500605Y630046D02*
G74*
D01*
G02X503954Y633395I5394J2045*
G01*
X503954Y633395D01*
X503954Y630046D01*
X500605Y630046D01*
D02*
G37*
G36*
X508046Y633395D02*
G74*
D01*
G02X511395Y630046I2045J5394*
G01*
X511395Y630046D01*
X508046Y630046D01*
X508046Y633395D01*
D02*
G37*
G36*
X511395Y625954D02*
G74*
D01*
G02X508046Y622605I5394J2045*
G01*
X508046Y622605D01*
X508046Y625954D01*
X511395Y625954D01*
D02*
G37*
G36*
X503954Y622605D02*
G74*
D01*
G02X500605Y625954I2045J5394*
G01*
X500605Y625954D01*
X503954Y625954D01*
X503954Y622605D01*
D02*
G37*
G36*
X504500Y628000D02*
G75*
D01*
G02X504500Y628000I1500J0*
G01*
D02*
G37*
G36*
X513605Y637046D02*
G74*
D01*
G02X516954Y640395I5394J2045*
G01*
X516954Y640395D01*
X516954Y637046D01*
X513605Y637046D01*
D02*
G37*
G36*
X517500Y635000D02*
G75*
D01*
G02X517500Y635000I1500J0*
G01*
D02*
G37*
G36*
X490395Y632954D02*
G74*
D01*
G02X487046Y629605I5394J2045*
G01*
X487046Y629605D01*
X487046Y632954D01*
X490395Y632954D01*
D02*
G37*
G36*
X483500Y635000D02*
G75*
D01*
G02X483500Y635000I1500J0*
G01*
D02*
G37*
G36*
X487046Y640395D02*
G74*
D01*
G02X490395Y637046I2045J5394*
G01*
X490395Y637046D01*
X487046Y637046D01*
X487046Y640395D01*
D02*
G37*
G36*
X475395Y632954D02*
G74*
D01*
G02X472046Y629605I5394J2045*
G01*
X472046Y629605D01*
X472046Y632954D01*
X475395Y632954D01*
D02*
G37*
G36*
X467954Y629605D02*
G74*
D01*
G02X464605Y632954I2045J5394*
G01*
X464605Y632954D01*
X467954Y632954D01*
X467954Y629605D01*
D02*
G37*
G36*
X468500Y635000D02*
G75*
D01*
G02X468500Y635000I1500J0*
G01*
D02*
G37*
G36*
X464605Y637046D02*
G74*
D01*
G02X467954Y640395I5394J2045*
G01*
X467954Y640395D01*
X467954Y637046D01*
X464605Y637046D01*
D02*
G37*
G36*
X472046Y640395D02*
G74*
D01*
G02X475395Y637046I2045J5394*
G01*
X475395Y637046D01*
X472046Y637046D01*
X472046Y640395D01*
D02*
G37*
G36*
X479605Y637046D02*
G74*
D01*
G02X482954Y640395I5394J2045*
G01*
X482954Y640395D01*
X482954Y637046D01*
X479605Y637046D01*
D02*
G37*
G36*
X482954Y629605D02*
G74*
D01*
G02X479605Y632954I2045J5394*
G01*
X479605Y632954D01*
X482954Y632954D01*
X482954Y629605D01*
D02*
G37*
G36*
X513605Y606046D02*
G74*
D01*
G02X516954Y609395I5394J2045*
G01*
X516954Y609395D01*
X516954Y606046D01*
X513605Y606046D01*
D02*
G37*
G36*
X516954Y612605D02*
G74*
D01*
G02X513605Y615954I2045J5394*
G01*
X513605Y615954D01*
X516954Y615954D01*
X516954Y612605D01*
D02*
G37*
G36*
X517500Y604000D02*
G75*
D01*
G02X517500Y604000I1500J0*
G01*
D02*
G37*
G36*
X517500Y618000D02*
G75*
D01*
G02X517500Y618000I1500J0*
G01*
D02*
G37*
G36*
X505500Y511000D02*
G75*
D01*
G02X505500Y511000I1500J0*
G01*
D02*
G37*
G36*
X504954Y505605D02*
G74*
D01*
G02X501605Y508954I2045J5394*
G01*
X501605Y508954D01*
X504954Y508954D01*
X504954Y505605D01*
D02*
G37*
G36*
X512395Y508954D02*
G74*
D01*
G02X509046Y505605I5394J2045*
G01*
X509046Y505605D01*
X509046Y508954D01*
X512395Y508954D01*
D02*
G37*
G36*
X509046Y516395D02*
G74*
D01*
G02X512395Y513046I2045J5394*
G01*
X512395Y513046D01*
X509046Y513046D01*
X509046Y516395D01*
D02*
G37*
G36*
X501605Y513046D02*
G74*
D01*
G02X504954Y516395I5394J2045*
G01*
X504954Y516395D01*
X504954Y513046D01*
X501605Y513046D01*
D02*
G37*
G36*
X548954Y539605D02*
G74*
D01*
G02X545605Y542954I2045J5394*
G01*
X545605Y542954D01*
X548954Y542954D01*
X548954Y539605D01*
D02*
G37*
G36*
X556395Y542954D02*
G74*
D01*
G02X553046Y539605I5394J2045*
G01*
X553046Y539605D01*
X553046Y542954D01*
X556395Y542954D01*
D02*
G37*
G36*
X549500Y545000D02*
G75*
D01*
G02X549500Y545000I1500J0*
G01*
D02*
G37*
G36*
X553046Y550395D02*
G74*
D01*
G02X556395Y547046I2045J5394*
G01*
X556395Y547046D01*
X553046Y547046D01*
X553046Y550395D01*
D02*
G37*
G36*
X545605Y547046D02*
G74*
D01*
G02X548954Y550395I5394J2045*
G01*
X548954Y550395D01*
X548954Y547046D01*
X545605Y547046D01*
D02*
G37*
G36*
X471046Y582395D02*
G74*
D01*
G02X474395Y579046I2045J5394*
G01*
X474395Y579046D01*
X471046Y579046D01*
X471046Y582395D01*
D02*
G37*
G36*
X463605Y579046D02*
G74*
D01*
G02X466954Y582395I5394J2045*
G01*
X466954Y582395D01*
X466954Y579046D01*
X463605Y579046D01*
D02*
G37*
G36*
X467500Y577000D02*
G75*
D01*
G02X467500Y577000I1500J0*
G01*
D02*
G37*
G36*
X466954Y571605D02*
G74*
D01*
G02X463605Y574954I2045J5394*
G01*
X463605Y574954D01*
X466954Y574954D01*
X466954Y571605D01*
D02*
G37*
G36*
X474395Y574954D02*
G74*
D01*
G02X471046Y571605I5394J2045*
G01*
X471046Y571605D01*
X471046Y574954D01*
X474395Y574954D01*
D02*
G37*
G36*
X516954Y598605D02*
G74*
D01*
G02X513605Y601954I2045J5394*
G01*
X513605Y601954D01*
X516954Y601954D01*
X516954Y598605D01*
D02*
G37*
G36*
X527500Y592000D02*
G75*
D01*
G02X527500Y592000I1500J0*
G01*
D02*
G37*
G36*
X526954Y586605D02*
G74*
D01*
G02X523605Y589954I2045J5394*
G01*
X523605Y589954D01*
X526954Y589954D01*
X526954Y586605D01*
D02*
G37*
G36*
X534395Y589954D02*
G74*
D01*
G02X531046Y586605I5394J2045*
G01*
X531046Y586605D01*
X531046Y589954D01*
X534395Y589954D01*
D02*
G37*
G36*
X547500Y592000D02*
G75*
D01*
G02X547500Y592000I1500J0*
G01*
D02*
G37*
G36*
X546954Y586605D02*
G74*
D01*
G02X543605Y589954I2045J5394*
G01*
X543605Y589954D01*
X546954Y589954D01*
X546954Y586605D01*
D02*
G37*
G36*
X554395Y589954D02*
G74*
D01*
G02X551046Y586605I5394J2045*
G01*
X551046Y586605D01*
X551046Y589954D01*
X554395Y589954D01*
D02*
G37*
G36*
X569500Y592000D02*
G75*
D01*
G02X569500Y592000I1500J0*
G01*
D02*
G37*
G36*
X568954Y586605D02*
G74*
D01*
G02X565605Y589954I2045J5394*
G01*
X565605Y589954D01*
X568954Y589954D01*
X568954Y586605D01*
D02*
G37*
G36*
X576395Y589954D02*
G74*
D01*
G02X573046Y586605I5394J2045*
G01*
X573046Y586605D01*
X573046Y589954D01*
X576395Y589954D01*
D02*
G37*
G36*
X588500Y592000D02*
G75*
D01*
G02X588500Y592000I1500J0*
G01*
D02*
G37*
G36*
X587954Y586605D02*
G74*
D01*
G02X584605Y589954I2045J5394*
G01*
X584605Y589954D01*
X587954Y589954D01*
X587954Y586605D01*
D02*
G37*
G36*
X450500Y635000D02*
G75*
D01*
G02X450500Y635000I1500J0*
G01*
D02*
G37*
G36*
X457395Y632954D02*
G74*
D01*
G02X454046Y629605I5394J2045*
G01*
X454046Y629605D01*
X454046Y632954D01*
X457395Y632954D01*
D02*
G37*
G36*
X446605Y637046D02*
G74*
D01*
G02X449954Y640395I5394J2045*
G01*
X449954Y640395D01*
X449954Y637046D01*
X446605Y637046D01*
D02*
G37*
G36*
X454046Y640395D02*
G74*
D01*
G02X457395Y637046I2045J5394*
G01*
X457395Y637046D01*
X454046Y637046D01*
X454046Y640395D01*
D02*
G37*
G36*
X408395Y638954D02*
G74*
D01*
G02X405046Y635605I5394J2045*
G01*
X405046Y635605D01*
X405046Y638954D01*
X408395Y638954D01*
D02*
G37*
G36*
X405046Y634395D02*
G74*
D01*
G02X408395Y631046I2045J5394*
G01*
X408395Y631046D01*
X405046Y631046D01*
X405046Y634395D01*
D02*
G37*
G36*
X408395Y626954D02*
G74*
D01*
G02X405046Y623605I5394J2045*
G01*
X405046Y623605D01*
X405046Y626954D01*
X408395Y626954D01*
D02*
G37*
G36*
X401500Y629000D02*
G75*
D01*
G02X401500Y629000I1500J0*
G01*
D02*
G37*
G36*
X401500Y641000D02*
G75*
D01*
G02X401500Y641000I1500J0*
G01*
D02*
G37*
G36*
X384395Y638954D02*
G74*
D01*
G02X381046Y635605I5394J2045*
G01*
X381046Y635605D01*
X381046Y638954D01*
X384395Y638954D01*
D02*
G37*
G36*
X381046Y634395D02*
G74*
D01*
G02X384395Y631046I2045J5394*
G01*
X384395Y631046D01*
X381046Y631046D01*
X381046Y634395D01*
D02*
G37*
G36*
X384395Y626954D02*
G74*
D01*
G02X381046Y623605I5394J2045*
G01*
X381046Y623605D01*
X381046Y626954D01*
X384395Y626954D01*
D02*
G37*
G36*
X396395Y638954D02*
G74*
D01*
G02X393046Y635605I5394J2045*
G01*
X393046Y635605D01*
X393046Y638954D01*
X396395Y638954D01*
D02*
G37*
G36*
X388954Y635605D02*
G74*
D01*
G02X385605Y638954I2045J5394*
G01*
X385605Y638954D01*
X388954Y638954D01*
X388954Y635605D01*
D02*
G37*
G36*
X385605Y631046D02*
G74*
D01*
G02X388954Y634395I5394J2045*
G01*
X388954Y634395D01*
X388954Y631046D01*
X385605Y631046D01*
D02*
G37*
G36*
X393046Y634395D02*
G74*
D01*
G02X396395Y631046I2045J5394*
G01*
X396395Y631046D01*
X393046Y631046D01*
X393046Y634395D01*
D02*
G37*
G36*
X396395Y626954D02*
G74*
D01*
G02X393046Y623605I5394J2045*
G01*
X393046Y623605D01*
X393046Y626954D01*
X396395Y626954D01*
D02*
G37*
G36*
X388954Y623605D02*
G74*
D01*
G02X385605Y626954I2045J5394*
G01*
X385605Y626954D01*
X388954Y626954D01*
X388954Y623605D01*
D02*
G37*
G36*
X389500Y629000D02*
G75*
D01*
G02X389500Y629000I1500J0*
G01*
D02*
G37*
G36*
X389500Y641000D02*
G75*
D01*
G02X389500Y641000I1500J0*
G01*
D02*
G37*
G36*
X400954Y635605D02*
G74*
D01*
G02X397605Y638954I2045J5394*
G01*
X397605Y638954D01*
X400954Y638954D01*
X400954Y635605D01*
D02*
G37*
G36*
X397605Y631046D02*
G74*
D01*
G02X400954Y634395I5394J2045*
G01*
X400954Y634395D01*
X400954Y631046D01*
X397605Y631046D01*
D02*
G37*
G36*
X400954Y623605D02*
G74*
D01*
G02X397605Y626954I2045J5394*
G01*
X397605Y626954D01*
X400954Y626954D01*
X400954Y623605D01*
D02*
G37*
G36*
X372395Y638954D02*
G74*
D01*
G02X369046Y635605I5394J2045*
G01*
X369046Y635605D01*
X369046Y638954D01*
X372395Y638954D01*
D02*
G37*
G36*
X364954Y635605D02*
G74*
D01*
G02X361605Y638954I2045J5394*
G01*
X361605Y638954D01*
X364954Y638954D01*
X364954Y635605D01*
D02*
G37*
G36*
X376954Y635605D02*
G74*
D01*
G02X373605Y638954I2045J5394*
G01*
X373605Y638954D01*
X376954Y638954D01*
X376954Y635605D01*
D02*
G37*
G36*
X373605Y631046D02*
G74*
D01*
G02X376954Y634395I5394J2045*
G01*
X376954Y634395D01*
X376954Y631046D01*
X373605Y631046D01*
D02*
G37*
G36*
X376954Y623605D02*
G74*
D01*
G02X373605Y626954I2045J5394*
G01*
X373605Y626954D01*
X376954Y626954D01*
X376954Y623605D01*
D02*
G37*
G36*
X361605Y631046D02*
G74*
D01*
G02X364954Y634395I5394J2045*
G01*
X364954Y634395D01*
X364954Y631046D01*
X361605Y631046D01*
D02*
G37*
G36*
X369046Y634395D02*
G74*
D01*
G02X372395Y631046I2045J5394*
G01*
X372395Y631046D01*
X369046Y631046D01*
X369046Y634395D01*
D02*
G37*
G36*
X372395Y626954D02*
G74*
D01*
G02X369046Y623605I5394J2045*
G01*
X369046Y623605D01*
X369046Y626954D01*
X372395Y626954D01*
D02*
G37*
G36*
X364954Y623605D02*
G74*
D01*
G02X361605Y626954I2045J5394*
G01*
X361605Y626954D01*
X364954Y626954D01*
X364954Y623605D01*
D02*
G37*
G36*
X365500Y629000D02*
G75*
D01*
G02X365500Y629000I1500J0*
G01*
D02*
G37*
G36*
X365500Y641000D02*
G75*
D01*
G02X365500Y641000I1500J0*
G01*
D02*
G37*
G36*
X377500Y641000D02*
G75*
D01*
G02X377500Y641000I1500J0*
G01*
D02*
G37*
G36*
X377500Y629000D02*
G75*
D01*
G02X377500Y629000I1500J0*
G01*
D02*
G37*
G36*
X408395Y614954D02*
G74*
D01*
G02X405046Y611605I5394J2045*
G01*
X405046Y611605D01*
X405046Y614954D01*
X408395Y614954D01*
D02*
G37*
G36*
X401500Y617000D02*
G75*
D01*
G02X401500Y617000I1500J0*
G01*
D02*
G37*
G36*
X405046Y622395D02*
G74*
D01*
G02X408395Y619046I2045J5394*
G01*
X408395Y619046D01*
X405046Y619046D01*
X405046Y622395D01*
D02*
G37*
G36*
X384395Y614954D02*
G74*
D01*
G02X381046Y611605I5394J2045*
G01*
X381046Y611605D01*
X381046Y614954D01*
X384395Y614954D01*
D02*
G37*
G36*
X396395Y614954D02*
G74*
D01*
G02X393046Y611605I5394J2045*
G01*
X393046Y611605D01*
X393046Y614954D01*
X396395Y614954D01*
D02*
G37*
G36*
X388954Y611605D02*
G74*
D01*
G02X385605Y614954I2045J5394*
G01*
X385605Y614954D01*
X388954Y614954D01*
X388954Y611605D01*
D02*
G37*
G36*
X389500Y617000D02*
G75*
D01*
G02X389500Y617000I1500J0*
G01*
D02*
G37*
G36*
X381046Y622395D02*
G74*
D01*
G02X384395Y619046I2045J5394*
G01*
X384395Y619046D01*
X381046Y619046D01*
X381046Y622395D01*
D02*
G37*
G36*
X385605Y619046D02*
G74*
D01*
G02X388954Y622395I5394J2045*
G01*
X388954Y622395D01*
X388954Y619046D01*
X385605Y619046D01*
D02*
G37*
G36*
X393046Y622395D02*
G74*
D01*
G02X396395Y619046I2045J5394*
G01*
X396395Y619046D01*
X393046Y619046D01*
X393046Y622395D01*
D02*
G37*
G36*
X397605Y619046D02*
G74*
D01*
G02X400954Y622395I5394J2045*
G01*
X400954Y622395D01*
X400954Y619046D01*
X397605Y619046D01*
D02*
G37*
G36*
X400954Y611605D02*
G74*
D01*
G02X397605Y614954I2045J5394*
G01*
X397605Y614954D01*
X400954Y614954D01*
X400954Y611605D01*
D02*
G37*
G36*
X372395Y614954D02*
G74*
D01*
G02X369046Y611605I5394J2045*
G01*
X369046Y611605D01*
X369046Y614954D01*
X372395Y614954D01*
D02*
G37*
G36*
X364954Y611605D02*
G74*
D01*
G02X361605Y614954I2045J5394*
G01*
X361605Y614954D01*
X364954Y614954D01*
X364954Y611605D01*
D02*
G37*
G36*
X365500Y617000D02*
G75*
D01*
G02X365500Y617000I1500J0*
G01*
D02*
G37*
G36*
X376954Y611605D02*
G74*
D01*
G02X373605Y614954I2045J5394*
G01*
X373605Y614954D01*
X376954Y614954D01*
X376954Y611605D01*
D02*
G37*
G36*
X361605Y619046D02*
G74*
D01*
G02X364954Y622395I5394J2045*
G01*
X364954Y622395D01*
X364954Y619046D01*
X361605Y619046D01*
D02*
G37*
G36*
X369046Y622395D02*
G74*
D01*
G02X372395Y619046I2045J5394*
G01*
X372395Y619046D01*
X369046Y619046D01*
X369046Y622395D01*
D02*
G37*
G36*
X373605Y619046D02*
G74*
D01*
G02X376954Y622395I5394J2045*
G01*
X376954Y622395D01*
X376954Y619046D01*
X373605Y619046D01*
D02*
G37*
G36*
X377500Y617000D02*
G75*
D01*
G02X377500Y617000I1500J0*
G01*
D02*
G37*
G36*
X344046Y603395D02*
G74*
D01*
G02X347395Y600046I2045J5394*
G01*
X347395Y600046D01*
X344046Y600046D01*
X344046Y603395D01*
D02*
G37*
G36*
X285605Y607046D02*
G74*
D01*
G02X288954Y610395I5394J2045*
G01*
X288954Y610395D01*
X288954Y607046D01*
X285605Y607046D01*
D02*
G37*
G36*
X293046Y610395D02*
G74*
D01*
G02X296395Y607046I2045J5394*
G01*
X296395Y607046D01*
X293046Y607046D01*
X293046Y610395D01*
D02*
G37*
G36*
X289500Y605000D02*
G75*
D01*
G02X289500Y605000I1500J0*
G01*
D02*
G37*
G36*
X261933Y613327D02*
G75*
D01*
G02X261106Y605576I3816J-4327*
G01*
G74*
D01*
G02X258970Y606570I294J3423*
G01*
X258970Y606570D01*
X244570Y620970D01*
G74*
D01*
G02X243564Y623365I2430J2429*
G01*
G75*
D01*
G02X251208Y624052I3436J4634*
G01*
X251208Y624052D01*
X261933Y613327D01*
D02*
G37*
G36*
X445395Y594954D02*
G74*
D01*
G02X442046Y591605I5394J2045*
G01*
X442046Y591605D01*
X442046Y594954D01*
X445395Y594954D01*
D02*
G37*
G36*
X442046Y602395D02*
G74*
D01*
G02X445395Y599046I2045J5394*
G01*
X445395Y599046D01*
X442046Y599046D01*
X442046Y602395D01*
D02*
G37*
G36*
X437954Y591605D02*
G74*
D01*
G02X434605Y594954I2045J5394*
G01*
X434605Y594954D01*
X437954Y594954D01*
X437954Y591605D01*
D02*
G37*
G36*
X434605Y599046D02*
G74*
D01*
G02X437954Y602395I5394J2045*
G01*
X437954Y602395D01*
X437954Y599046D01*
X434605Y599046D01*
D02*
G37*
G36*
X438500Y597000D02*
G75*
D01*
G02X438500Y597000I1500J0*
G01*
D02*
G37*
G36*
X347395Y595954D02*
G74*
D01*
G02X344046Y592605I5394J2045*
G01*
X344046Y592605D01*
X344046Y595954D01*
X347395Y595954D01*
D02*
G37*
G36*
X340500Y598000D02*
G75*
D01*
G02X340500Y598000I1500J0*
G01*
D02*
G37*
G36*
X351605Y595046D02*
G74*
D01*
G02X354954Y598395I5394J2045*
G01*
X354954Y598395D01*
X354954Y595046D01*
X351605Y595046D01*
D02*
G37*
G36*
X354954Y587605D02*
G74*
D01*
G02X351605Y590954I2045J5394*
G01*
X351605Y590954D01*
X354954Y590954D01*
X354954Y587605D01*
D02*
G37*
G36*
X355500Y593000D02*
G75*
D01*
G02X355500Y593000I1500J0*
G01*
D02*
G37*
G36*
X359046Y598395D02*
G74*
D01*
G02X362395Y595046I2045J5394*
G01*
X362395Y595046D01*
X359046Y595046D01*
X359046Y598395D01*
D02*
G37*
G36*
X362395Y590954D02*
G74*
D01*
G02X359046Y587605I5394J2045*
G01*
X359046Y587605D01*
X359046Y590954D01*
X362395Y590954D01*
D02*
G37*
G36*
X301146Y587195D02*
G74*
D01*
G02X304495Y583846I2045J5394*
G01*
X304495Y583846D01*
X301146Y583846D01*
X301146Y587195D01*
D02*
G37*
G36*
X293705Y583846D02*
G74*
D01*
G02X297054Y587195I5394J2045*
G01*
X297054Y587195D01*
X297054Y583846D01*
X293705Y583846D01*
D02*
G37*
G36*
X297600Y581800D02*
G75*
D01*
G02X297600Y581800I1500J0*
G01*
D02*
G37*
G36*
X296395Y602954D02*
G74*
D01*
G02X293046Y599605I5394J2045*
G01*
X293046Y599605D01*
X293046Y602954D01*
X296395Y602954D01*
D02*
G37*
G36*
X288954Y599605D02*
G74*
D01*
G02X285605Y602954I2045J5394*
G01*
X285605Y602954D01*
X288954Y602954D01*
X288954Y599605D01*
D02*
G37*
G36*
X304495Y579754D02*
G74*
D01*
G02X301146Y576405I5394J2045*
G01*
X301146Y576405D01*
X301146Y579754D01*
X304495Y579754D01*
D02*
G37*
G36*
X284046Y565395D02*
G74*
D01*
G02X287395Y562046I2045J5394*
G01*
X287395Y562046D01*
X284046Y562046D01*
X284046Y565395D01*
D02*
G37*
G36*
X297054Y576405D02*
G74*
D01*
G02X293705Y579754I2045J5394*
G01*
X293705Y579754D01*
X297054Y579754D01*
X297054Y576405D01*
D02*
G37*
G36*
X276605Y562046D02*
G74*
D01*
G02X279954Y565395I5394J2045*
G01*
X279954Y565395D01*
X279954Y562046D01*
X276605Y562046D01*
D02*
G37*
G36*
X457395Y553954D02*
G74*
D01*
G02X454046Y550605I5394J2045*
G01*
X454046Y550605D01*
X454046Y553954D01*
X457395Y553954D01*
D02*
G37*
G36*
X454046Y561395D02*
G74*
D01*
G02X457395Y558046I2045J5394*
G01*
X457395Y558046D01*
X454046Y558046D01*
X454046Y561395D01*
D02*
G37*
G36*
X280500Y560000D02*
G75*
D01*
G02X280500Y560000I1500J0*
G01*
D02*
G37*
G36*
X228444Y571000D02*
G75*
D01*
G02X228444Y571000I13556J0*
G01*
D02*
G37*
G36*
X287315Y550463D02*
X287315Y550463D01*
X273105Y550463D01*
G75*
D01*
G02X272702Y550487I2J3437*
G01*
G75*
D01*
G02X276613Y557337I-1701J5513*
G01*
X276613Y557337D01*
X276882Y557337D01*
G74*
D01*
G02X276605Y557954I5115J2667*
G01*
X276605Y557954D01*
X279954Y557954D01*
X279954Y557337D01*
X284046Y557337D01*
X284046Y557954D01*
X287395Y557954D01*
G74*
D01*
G02X287118Y557337I5392J2050*
G01*
X287118Y557337D01*
X287315Y557337D01*
G75*
D01*
G02X287315Y550463I4635J-3437*
G01*
D02*
G37*
G36*
X396586Y521922D02*
X396586Y521922D01*
X400508Y518000D01*
X396586Y514078D01*
G75*
D01*
G02X396586Y521922I8713J3922*
G01*
D02*
G37*
G36*
X402300Y518000D02*
G75*
D01*
G02X402300Y518000I3000J0*
G01*
D02*
G37*
G36*
X409222Y509286D02*
G75*
D01*
G02X401378Y509286I-3922J8713*
G01*
X401378Y509286D01*
X405300Y513208D01*
X409222Y509286D01*
D02*
G37*
G36*
X400954Y525605D02*
G74*
D01*
G02X397605Y528954I2045J5394*
G01*
X397605Y528954D01*
X400954Y528954D01*
X400954Y525605D01*
D02*
G37*
G36*
X397605Y533046D02*
G74*
D01*
G02X400954Y536395I5394J2045*
G01*
X400954Y536395D01*
X400954Y533046D01*
X397605Y533046D01*
D02*
G37*
G36*
X401500Y531000D02*
G75*
D01*
G02X401500Y531000I1500J0*
G01*
D02*
G37*
G36*
X405046Y527553D02*
X405046Y527553D01*
X405046Y528954D01*
X408395Y528954D01*
G74*
D01*
G02X407439Y527314I5394J2046*
G01*
G74*
D01*
G02X409222Y526714I2141J9313*
G01*
X409222Y526714D01*
X405300Y522792D01*
X401378Y526714D01*
G74*
D01*
G02X405046Y527553I3923J8713*
G01*
D02*
G37*
G36*
X405046Y536395D02*
G74*
D01*
G02X408395Y533046I2045J5394*
G01*
X408395Y533046D01*
X405046Y533046D01*
X405046Y536395D01*
D02*
G37*
G36*
X439355Y530546D02*
G74*
D01*
G02X442704Y533895I5394J2045*
G01*
X442704Y533895D01*
X442704Y530546D01*
X439355Y530546D01*
D02*
G37*
G36*
X443250Y528500D02*
G75*
D01*
G02X443250Y528500I1500J0*
G01*
D02*
G37*
G36*
X450145Y526454D02*
G74*
D01*
G02X446796Y523105I5394J2045*
G01*
X446796Y523105D01*
X446796Y526454D01*
X450145Y526454D01*
D02*
G37*
G36*
X446796Y533895D02*
G74*
D01*
G02X450145Y530546I2045J5394*
G01*
X450145Y530546D01*
X446796Y530546D01*
X446796Y533895D01*
D02*
G37*
G36*
X446605Y558046D02*
G74*
D01*
G02X449954Y561395I5394J2045*
G01*
X449954Y561395D01*
X449954Y558046D01*
X446605Y558046D01*
D02*
G37*
G36*
X450500Y556000D02*
G75*
D01*
G02X450500Y556000I1500J0*
G01*
D02*
G37*
G36*
X449954Y550605D02*
G74*
D01*
G02X446605Y553954I2045J5394*
G01*
X446605Y553954D01*
X449954Y553954D01*
X449954Y550605D01*
D02*
G37*
G36*
X272910Y509841D02*
G75*
D01*
G02X286090Y509841I6590J-14640*
G01*
X286090Y509841D01*
X279500Y503252D01*
X272910Y509841D01*
D02*
G37*
G36*
X380046Y496395D02*
G74*
D01*
G02X383395Y493046I2045J5394*
G01*
X383395Y493046D01*
X380046Y493046D01*
X380046Y496395D01*
D02*
G37*
G36*
X383395Y488954D02*
G74*
D01*
G02X380046Y485605I5394J2045*
G01*
X380046Y485605D01*
X380046Y488954D01*
X383395Y488954D01*
D02*
G37*
G36*
X372605Y493046D02*
G74*
D01*
G02X375954Y496395I5394J2045*
G01*
X375954Y496395D01*
X375954Y493046D01*
X372605Y493046D01*
D02*
G37*
G36*
X375954Y485605D02*
G74*
D01*
G02X372605Y488954I2045J5394*
G01*
X372605Y488954D01*
X375954Y488954D01*
X375954Y485605D01*
D02*
G37*
G36*
X376500Y491000D02*
G75*
D01*
G02X376500Y491000I1500J0*
G01*
D02*
G37*
G36*
X342046Y497395D02*
G74*
D01*
G02X345395Y494046I2045J5394*
G01*
X345395Y494046D01*
X342046Y494046D01*
X342046Y497395D01*
D02*
G37*
G36*
X345395Y489954D02*
G74*
D01*
G02X342046Y486605I5394J2045*
G01*
X342046Y486605D01*
X342046Y489954D01*
X345395Y489954D01*
D02*
G37*
G36*
X347605Y494046D02*
G74*
D01*
G02X350954Y497395I5394J2045*
G01*
X350954Y497395D01*
X350954Y494046D01*
X347605Y494046D01*
D02*
G37*
G36*
X355046Y497395D02*
G74*
D01*
G02X358395Y494046I2045J5394*
G01*
X358395Y494046D01*
X355046Y494046D01*
X355046Y497395D01*
D02*
G37*
G36*
X358395Y489954D02*
G74*
D01*
G02X355046Y486605I5394J2045*
G01*
X355046Y486605D01*
X355046Y489954D01*
X358395Y489954D01*
D02*
G37*
G36*
X350954Y486605D02*
G74*
D01*
G02X347605Y489954I2045J5394*
G01*
X347605Y489954D01*
X350954Y489954D01*
X350954Y486605D01*
D02*
G37*
G36*
X351500Y492000D02*
G75*
D01*
G02X351500Y492000I1500J0*
G01*
D02*
G37*
G36*
X334605Y494046D02*
G74*
D01*
G02X337954Y497395I5394J2045*
G01*
X337954Y497395D01*
X337954Y494046D01*
X334605Y494046D01*
D02*
G37*
G36*
X337954Y486605D02*
G74*
D01*
G02X334605Y489954I2045J5394*
G01*
X334605Y489954D01*
X337954Y489954D01*
X337954Y486605D01*
D02*
G37*
G36*
X338500Y492000D02*
G75*
D01*
G02X338500Y492000I1500J0*
G01*
D02*
G37*
G36*
X294141Y501790D02*
G75*
D01*
G02X294141Y488610I-14640J-6590*
G01*
X294141Y488610D01*
X287552Y495200D01*
X294141Y501790D01*
D02*
G37*
G36*
X264859Y501790D02*
X264859Y501790D01*
X271448Y495200D01*
X264859Y488610D01*
G75*
D01*
G02X264859Y501790I14640J6590*
G01*
D02*
G37*
G36*
X275000Y495200D02*
G75*
D01*
G02X275000Y495200I4500J0*
G01*
D02*
G37*
G36*
X426605Y476046D02*
G74*
D01*
G02X429954Y479395I5394J2045*
G01*
X429954Y479395D01*
X429954Y476046D01*
X426605Y476046D01*
D02*
G37*
G36*
X434046Y479395D02*
G74*
D01*
G02X437395Y476046I2045J5394*
G01*
X437395Y476046D01*
X434046Y476046D01*
X434046Y479395D01*
D02*
G37*
G36*
X437395Y471954D02*
G74*
D01*
G02X434046Y468605I5394J2045*
G01*
X434046Y468605D01*
X434046Y471954D01*
X437395Y471954D01*
D02*
G37*
G36*
X429954Y468605D02*
G74*
D01*
G02X426605Y471954I2045J5394*
G01*
X426605Y471954D01*
X429954Y471954D01*
X429954Y468605D01*
D02*
G37*
G36*
X430500Y474000D02*
G75*
D01*
G02X430500Y474000I1500J0*
G01*
D02*
G37*
G36*
X286090Y480559D02*
G75*
D01*
G02X272910Y480559I-6590J14640*
G01*
X272910Y480559D01*
X279500Y487148D01*
X286090Y480559D01*
D02*
G37*
G36*
X449954Y629605D02*
G74*
D01*
G02X446605Y632954I2045J5394*
G01*
X446605Y632954D01*
X449954Y632954D01*
X449954Y629605D01*
D02*
G37*
%LPD*%
G36*
X376635Y579437D02*
G74*
D01*
G03X375611Y580500I4633J3439*
G01*
G74*
D01*
G03X376635Y581563I3609J4501*
G01*
X376635Y581563D01*
X399053Y581563D01*
X396927Y579437D01*
X376635Y579437D01*
D02*
G37*
G36*
X594225Y595930D02*
G74*
D01*
G02X594398Y595735I4229J3926*
G01*
G74*
D01*
G03X594395Y595930I183660J2728*
G01*
X594395Y595930D01*
X594225Y595930D01*
D02*
G37*
G54D11*
X594225Y595930D02*
G74*
D01*
G02X594398Y595735I4229J3926*
G01*
G74*
D01*
G03X594395Y595930I183660J2728*
G01*
X594225Y595930D01*
X339537Y630545D02*
G75*
D01*
G02X338153Y619093I-529J-5746*
G01*
X330437Y611377D01*
X330437Y602264D01*
G75*
D01*
G02X337028Y600927I2363J-5264*
G01*
G74*
D01*
G02X339954Y603395I4972J2926*
G01*
X339954Y600046D01*
X337700Y600046D01*
G75*
D01*
G02X338474Y595954I-4899J-3046*
G01*
X339954Y595954D01*
X339954Y592605D01*
G74*
D01*
G02X337772Y594073I2045J5395*
G01*
G74*
D01*
G02X336687Y592735I4973J2924*
G01*
X336687Y531967D01*
G75*
D01*
G02X335675Y529532I-3437J1*
G01*
X331568Y525425D01*
G74*
D01*
G02X329133Y524413I2435J2424*
G01*
X288157Y524413D01*
G75*
D01*
G02X285720Y525420I-6J3437*
G01*
X277847Y533293D01*
G75*
D01*
G02X271254Y538470I-848J5706*
G01*
G75*
D01*
G02X271242Y539371I-16053J237*
G01*
G75*
D01*
G02X282707Y538153I5756J-389*
G01*
X289573Y531287D01*
X321490Y531287D01*
G75*
D01*
G02X323563Y537635I5510J1713*
G01*
X323563Y612789D01*
G75*
D01*
G02X324570Y615230I3437J10*
G01*
X333293Y623953D01*
G75*
D01*
G02X333329Y625867I5706J850*
G01*
G75*
D01*
G02X332663Y627905I2770J2033*
G01*
X332663Y662293D01*
G75*
D01*
G02X332678Y671718I3335J4707*
G01*
G74*
D01*
G02X329605Y674954I2321J5281*
G01*
X332954Y674954D01*
X332954Y671900D01*
G75*
D01*
G02X337046Y672674I3046J-4899*
G01*
X337046Y674954D01*
X340395Y674954D01*
G74*
D01*
G02X338322Y672282I5394J2045*
G01*
G75*
D01*
G02X339537Y662441I-2320J-5282*
G01*
X339537Y630545D01*
X320520Y634363D02*
X307223Y634363D01*
X301235Y628375D01*
G74*
D01*
G02X299316Y627402I2435J2424*
G01*
G75*
D01*
G02X298796Y627363I-516J3397*
G01*
X297576Y627363D01*
G75*
D01*
G02X297490Y634350I-4635J3437*
G01*
X303370Y640230D01*
G74*
D01*
G02X304678Y641048I2429J2430*
G01*
G75*
D01*
G02X305800Y641237I1124J-3247*
G01*
X320223Y641237D01*
G75*
D01*
G02X320520Y634363I4776J-3237*
G01*
X465053Y525293D02*
X464587Y524827D01*
X464587Y510867D01*
G75*
D01*
G02X463575Y508432I-3437J1*
G01*
X460568Y505425D01*
G74*
D01*
G02X458133Y504413I2435J2424*
G01*
X431855Y504413D01*
G75*
D01*
G02X429420Y505420I-4J3437*
G01*
X425575Y509265D01*
G75*
D01*
G02X412436Y515656I-3876J8734*
G01*
X410092Y518000D01*
X412436Y520344D01*
G75*
D01*
G02X430435Y514125I9260J-2355*
G01*
X433273Y511287D01*
X446853Y511287D01*
X395847Y562293D01*
G75*
D01*
G02X391469Y572563I-849J5706*
G01*
X376635Y572563D01*
G75*
D01*
G02X368389Y580500I-4635J3437*
G01*
G75*
D01*
G02X376635Y588437I3617J4495*
G01*
X401077Y588437D01*
X401793Y589153D01*
G75*
D01*
G02X409580Y595382I5706J848*
G01*
G74*
D01*
G02X410278Y596388I3127J1424*
G01*
X410293Y596403D01*
G75*
D01*
G02X416145Y591482I5707J846*
G01*
X416145Y587925D01*
G75*
D01*
G02X415133Y585490I-3437J1*
G01*
X412068Y582425D01*
G74*
D01*
G02X410608Y581555I2434J2425*
G01*
G75*
D01*
G02X409628Y581413I-978J3294*
G01*
X408623Y581413D01*
X400785Y573575D01*
G74*
D01*
G02X399217Y572675I2434J2425*
G01*
G74*
D01*
G02X398525Y572568I868J3324*
G01*
G75*
D01*
G02X400707Y567153I-3524J-4567*
G01*
X441406Y526454D01*
X442704Y526454D01*
X442704Y525156D01*
X451390Y516470D01*
G75*
D01*
G02X457713Y518510I4610J-3470*
G01*
X457713Y526244D01*
G75*
D01*
G02X458720Y528680I3437J5*
G01*
X460193Y530153D01*
G75*
D01*
G02X465053Y525293I5707J847*
G01*
X545500Y704000D02*
G75*
D01*
G02X545500Y704000I1500J0*
G01*
X482954Y653605D02*
G74*
D01*
G02X479605Y656954I2045J5394*
G01*
X482954Y656954D01*
X482954Y653605D01*
X468500Y659000D02*
G75*
D01*
G02X468500Y659000I1500J0*
G01*
X475395Y656954D02*
G74*
D01*
G02X472046Y653605I5394J2045*
G01*
X472046Y656954D01*
X475395Y656954D01*
X467954Y653605D02*
G74*
D01*
G02X464605Y656954I2045J5394*
G01*
X467954Y656954D01*
X467954Y653605D01*
X483500Y659000D02*
G75*
D01*
G02X483500Y659000I1500J0*
G01*
X490395Y656954D02*
G74*
D01*
G02X487046Y653605I5394J2045*
G01*
X487046Y656954D01*
X490395Y656954D01*
X516954Y658605D02*
G74*
D01*
G02X513605Y661954I2045J5394*
G01*
X516954Y661954D01*
X516954Y658605D01*
X504500Y659000D02*
G75*
D01*
G02X504500Y659000I1500J0*
G01*
X511395Y656954D02*
G74*
D01*
G02X508046Y653605I5394J2045*
G01*
X508046Y656954D01*
X511395Y656954D01*
X503954Y653605D02*
G74*
D01*
G02X500605Y656954I2045J5394*
G01*
X503954Y656954D01*
X503954Y653605D01*
X479605Y661046D02*
G74*
D01*
G02X482954Y664395I5394J2045*
G01*
X482954Y661046D01*
X479605Y661046D01*
X464605Y661046D02*
G74*
D01*
G02X467954Y664395I5394J2045*
G01*
X467954Y661046D01*
X464605Y661046D01*
X472046Y664395D02*
G74*
D01*
G02X475395Y661046I2045J5394*
G01*
X472046Y661046D01*
X472046Y664395D01*
X487046Y664395D02*
G74*
D01*
G02X490395Y661046I2045J5394*
G01*
X487046Y661046D01*
X487046Y664395D01*
X517500Y664000D02*
G75*
D01*
G02X517500Y664000I1500J0*
G01*
X517500Y678000D02*
G75*
D01*
G02X517500Y678000I1500J0*
G01*
X513605Y666046D02*
G74*
D01*
G02X516954Y669395I5394J2045*
G01*
X516954Y666046D01*
X513605Y666046D01*
X500605Y661046D02*
G74*
D01*
G02X503954Y664395I5394J2045*
G01*
X503954Y661046D01*
X500605Y661046D01*
X508046Y664395D02*
G74*
D01*
G02X511395Y661046I2045J5394*
G01*
X508046Y661046D01*
X508046Y664395D01*
X516954Y672605D02*
G74*
D01*
G02X513605Y675954I2045J5394*
G01*
X516954Y675954D01*
X516954Y672605D01*
X517500Y694000D02*
G75*
D01*
G02X517500Y694000I1500J0*
G01*
X513605Y680046D02*
G74*
D01*
G02X516954Y683395I5394J2045*
G01*
X516954Y680046D01*
X513605Y680046D01*
X513605Y696046D02*
G74*
D01*
G02X516954Y699395I5394J2045*
G01*
X516954Y696046D01*
X513605Y696046D01*
X516954Y688605D02*
G74*
D01*
G02X513605Y691954I2045J5394*
G01*
X516954Y691954D01*
X516954Y688605D01*
X523605Y706046D02*
G74*
D01*
G02X526954Y709395I5394J2045*
G01*
X526954Y706046D01*
X523605Y706046D01*
X531046Y709395D02*
G74*
D01*
G02X534395Y706046I2045J5394*
G01*
X531046Y706046D01*
X531046Y709395D01*
X527500Y704000D02*
G75*
D01*
G02X527500Y704000I1500J0*
G01*
X541605Y706046D02*
G74*
D01*
G02X544954Y709395I5394J2045*
G01*
X544954Y706046D01*
X541605Y706046D01*
X549046Y709395D02*
G74*
D01*
G02X552395Y706046I2045J5394*
G01*
X549046Y706046D01*
X549046Y709395D01*
X431605Y722046D02*
G74*
D01*
G02X434954Y725395I5394J2045*
G01*
X434954Y722046D01*
X431605Y722046D01*
X384605Y723046D02*
G74*
D01*
G02X387954Y726395I5394J2045*
G01*
X387954Y723046D01*
X384605Y723046D01*
X392046Y726395D02*
G74*
D01*
G02X395395Y723046I2045J5394*
G01*
X392046Y723046D01*
X392046Y726395D01*
X372395Y732954D02*
G74*
D01*
G02X369046Y729605I5394J2045*
G01*
X369046Y732954D01*
X372395Y732954D01*
X364954Y729605D02*
G74*
D01*
G02X361605Y732954I2045J5394*
G01*
X364954Y732954D01*
X364954Y729605D01*
X365500Y735000D02*
G75*
D01*
G02X365500Y735000I1500J0*
G01*
X361605Y737046D02*
G74*
D01*
G02X364954Y740395I5394J2045*
G01*
X364954Y737046D01*
X361605Y737046D01*
X369046Y740395D02*
G74*
D01*
G02X372395Y737046I2045J5394*
G01*
X369046Y737046D01*
X369046Y740395D01*
X318395Y732954D02*
G74*
D01*
G02X315046Y729605I5394J2045*
G01*
X315046Y732954D01*
X318395Y732954D01*
X310954Y729605D02*
G74*
D01*
G02X307605Y732954I2045J5394*
G01*
X310954Y732954D01*
X310954Y729605D01*
X311500Y735000D02*
G75*
D01*
G02X311500Y735000I1500J0*
G01*
X307605Y737046D02*
G74*
D01*
G02X310954Y740395I5394J2045*
G01*
X310954Y737046D01*
X307605Y737046D01*
X315046Y740395D02*
G74*
D01*
G02X318395Y737046I2045J5394*
G01*
X315046Y737046D01*
X315046Y740395D01*
X280954Y644605D02*
G74*
D01*
G02X277605Y647954I2045J5394*
G01*
X280954Y647954D01*
X280954Y644605D01*
X277605Y652046D02*
G74*
D01*
G02X280954Y655395I5394J2045*
G01*
X280954Y652046D01*
X277605Y652046D01*
X281500Y650000D02*
G75*
D01*
G02X281500Y650000I1500J0*
G01*
X288395Y647954D02*
G74*
D01*
G02X285046Y644605I5394J2045*
G01*
X285046Y647954D01*
X288395Y647954D01*
X285046Y655395D02*
G74*
D01*
G02X288395Y652046I2045J5394*
G01*
X285046Y652046D01*
X285046Y655395D01*
X377500Y653000D02*
G75*
D01*
G02X377500Y653000I1500J0*
G01*
X365500Y653000D02*
G75*
D01*
G02X365500Y653000I1500J0*
G01*
X364954Y647605D02*
G74*
D01*
G02X361605Y650954I2045J5394*
G01*
X364954Y650954D01*
X364954Y647605D01*
X372395Y650954D02*
G74*
D01*
G02X369046Y647605I5394J2045*
G01*
X369046Y650954D01*
X372395Y650954D01*
X369046Y658395D02*
G74*
D01*
G02X372395Y655046I2045J5394*
G01*
X369046Y655046D01*
X369046Y658395D01*
X361605Y655046D02*
G74*
D01*
G02X364954Y658395I5394J2045*
G01*
X364954Y655046D01*
X361605Y655046D01*
X376954Y647605D02*
G74*
D01*
G02X373605Y650954I2045J5394*
G01*
X376954Y650954D01*
X376954Y647605D01*
X373605Y655046D02*
G74*
D01*
G02X376954Y658395I5394J2045*
G01*
X376954Y655046D01*
X373605Y655046D01*
X373605Y643046D02*
G74*
D01*
G02X376954Y646395I5394J2045*
G01*
X376954Y643046D01*
X373605Y643046D01*
X369046Y646395D02*
G74*
D01*
G02X372395Y643046I2045J5394*
G01*
X369046Y643046D01*
X369046Y646395D01*
X361605Y643046D02*
G74*
D01*
G02X364954Y646395I5394J2045*
G01*
X364954Y643046D01*
X361605Y643046D01*
X400954Y647605D02*
G74*
D01*
G02X397605Y650954I2045J5394*
G01*
X400954Y650954D01*
X400954Y647605D01*
X397605Y655046D02*
G74*
D01*
G02X400954Y658395I5394J2045*
G01*
X400954Y655046D01*
X397605Y655046D01*
X397605Y643046D02*
G74*
D01*
G02X400954Y646395I5394J2045*
G01*
X400954Y643046D01*
X397605Y643046D01*
X389500Y653000D02*
G75*
D01*
G02X389500Y653000I1500J0*
G01*
X388954Y647605D02*
G74*
D01*
G02X385605Y650954I2045J5394*
G01*
X388954Y650954D01*
X388954Y647605D01*
X396395Y650954D02*
G74*
D01*
G02X393046Y647605I5394J2045*
G01*
X393046Y650954D01*
X396395Y650954D01*
X393046Y658395D02*
G74*
D01*
G02X396395Y655046I2045J5394*
G01*
X393046Y655046D01*
X393046Y658395D01*
X385605Y655046D02*
G74*
D01*
G02X388954Y658395I5394J2045*
G01*
X388954Y655046D01*
X385605Y655046D01*
X384395Y650954D02*
G74*
D01*
G02X381046Y647605I5394J2045*
G01*
X381046Y650954D01*
X384395Y650954D01*
X381046Y658395D02*
G74*
D01*
G02X384395Y655046I2045J5394*
G01*
X381046Y655046D01*
X381046Y658395D01*
X393046Y646395D02*
G74*
D01*
G02X396395Y643046I2045J5394*
G01*
X393046Y643046D01*
X393046Y646395D01*
X385605Y643046D02*
G74*
D01*
G02X388954Y646395I5394J2045*
G01*
X388954Y643046D01*
X385605Y643046D01*
X381046Y646395D02*
G74*
D01*
G02X384395Y643046I2045J5394*
G01*
X381046Y643046D01*
X381046Y646395D01*
X401500Y653000D02*
G75*
D01*
G02X401500Y653000I1500J0*
G01*
X408395Y650954D02*
G74*
D01*
G02X405046Y647605I5394J2045*
G01*
X405046Y650954D01*
X408395Y650954D01*
X405046Y658395D02*
G74*
D01*
G02X408395Y655046I2045J5394*
G01*
X405046Y655046D01*
X405046Y658395D01*
X405046Y646395D02*
G74*
D01*
G02X408395Y643046I2045J5394*
G01*
X405046Y643046D01*
X405046Y646395D01*
X441395Y654954D02*
G74*
D01*
G02X438046Y651605I5394J2045*
G01*
X438046Y654954D01*
X441395Y654954D01*
X438046Y662395D02*
G74*
D01*
G02X441395Y659046I2045J5394*
G01*
X438046Y659046D01*
X438046Y662395D01*
X430605Y659046D02*
G74*
D01*
G02X433954Y662395I5394J2045*
G01*
X433954Y659046D01*
X430605Y659046D01*
X434500Y657000D02*
G75*
D01*
G02X434500Y657000I1500J0*
G01*
X433954Y651605D02*
G74*
D01*
G02X430605Y654954I2045J5394*
G01*
X433954Y654954D01*
X433954Y651605D01*
X450500Y659000D02*
G75*
D01*
G02X450500Y659000I1500J0*
G01*
X449954Y653605D02*
G74*
D01*
G02X446605Y656954I2045J5394*
G01*
X449954Y656954D01*
X449954Y653605D01*
X457395Y656954D02*
G74*
D01*
G02X454046Y653605I5394J2045*
G01*
X454046Y656954D01*
X457395Y656954D01*
X337046Y682395D02*
G74*
D01*
G02X340395Y679046I2045J5394*
G01*
X337046Y679046D01*
X337046Y682395D01*
X329605Y679046D02*
G74*
D01*
G02X332954Y682395I5394J2045*
G01*
X332954Y679046D01*
X329605Y679046D01*
X333500Y677000D02*
G75*
D01*
G02X333500Y677000I1500J0*
G01*
X408765Y676875D02*
X387594Y698046D01*
X385046Y698046D01*
X385046Y698063D01*
X380954Y698063D01*
X380954Y698046D01*
X377605Y698046D01*
G74*
D01*
G02X377612Y698063I5338J2188*
G01*
X349096Y698063D01*
G74*
D01*
G02X350395Y696046I4095J4064*
G01*
X347046Y696046D01*
X347046Y698063D01*
X342954Y698063D01*
X342954Y696046D01*
X339605Y696046D01*
G74*
D01*
G02X340904Y698063I5394J2047*
G01*
X333923Y698063D01*
X330707Y694847D01*
G75*
D01*
G02X325847Y699707I-5707J-847*
G01*
X330070Y703930D01*
G75*
D01*
G02X332507Y704937I2430J-2429*
G01*
X389000Y704937D01*
G74*
D01*
G02X391435Y703925I1J3437*
G01*
X415325Y680035D01*
G74*
D01*
G02X416337Y677600I2424J2435*
G01*
X416337Y677485D01*
G75*
D01*
G02X408765Y676875I-3437J-4634*
G01*
X388395Y693954D02*
G74*
D01*
G02X385046Y690605I5394J2045*
G01*
X385046Y693954D01*
X388395Y693954D01*
X454046Y664395D02*
G74*
D01*
G02X457395Y661046I2045J5394*
G01*
X454046Y661046D01*
X454046Y664395D01*
X446605Y661046D02*
G74*
D01*
G02X449954Y664395I5394J2045*
G01*
X449954Y661046D01*
X446605Y661046D01*
X279954Y683605D02*
G74*
D01*
G02X276605Y686954I2045J5394*
G01*
X279954Y686954D01*
X279954Y683605D01*
X276605Y691046D02*
G74*
D01*
G02X279954Y694395I5394J2045*
G01*
X279954Y691046D01*
X276605Y691046D01*
X280500Y689000D02*
G75*
D01*
G02X280500Y689000I1500J0*
G01*
X287395Y686954D02*
G74*
D01*
G02X284046Y683605I5394J2045*
G01*
X284046Y686954D01*
X287395Y686954D01*
X284046Y694395D02*
G74*
D01*
G02X287395Y691046I2045J5394*
G01*
X284046Y691046D01*
X284046Y694395D01*
X342954Y688605D02*
G74*
D01*
G02X339605Y691954I2045J5394*
G01*
X342954Y691954D01*
X342954Y688605D01*
X343500Y694000D02*
G75*
D01*
G02X343500Y694000I1500J0*
G01*
X350395Y691954D02*
G74*
D01*
G02X347046Y688605I5394J2045*
G01*
X347046Y691954D01*
X350395Y691954D01*
X380954Y690605D02*
G74*
D01*
G02X377605Y693954I2045J5394*
G01*
X380954Y693954D01*
X380954Y690605D01*
X381500Y696000D02*
G75*
D01*
G02X381500Y696000I1500J0*
G01*
X424500Y694000D02*
G75*
D01*
G02X424500Y694000I1500J0*
G01*
X423954Y688605D02*
G74*
D01*
G02X420605Y691954I2045J5394*
G01*
X423954Y691954D01*
X423954Y688605D01*
X431395Y691954D02*
G74*
D01*
G02X428046Y688605I5394J2045*
G01*
X428046Y691954D01*
X431395Y691954D01*
X428046Y699395D02*
G74*
D01*
G02X431395Y696046I2045J5394*
G01*
X428046Y696046D01*
X428046Y699395D01*
X420605Y696046D02*
G74*
D01*
G02X423954Y699395I5394J2045*
G01*
X423954Y696046D01*
X420605Y696046D01*
X388500Y721000D02*
G75*
D01*
G02X388500Y721000I1500J0*
G01*
X387954Y715605D02*
G74*
D01*
G02X384605Y718954I2045J5394*
G01*
X387954Y718954D01*
X387954Y715605D01*
X395395Y718954D02*
G74*
D01*
G02X392046Y715605I5394J2045*
G01*
X392046Y718954D01*
X395395Y718954D01*
X435500Y720000D02*
G75*
D01*
G02X435500Y720000I1500J0*
G01*
X442395Y717954D02*
G74*
D01*
G02X439046Y714605I5394J2045*
G01*
X439046Y717954D01*
X442395Y717954D01*
X434954Y714605D02*
G74*
D01*
G02X431605Y717954I2045J5394*
G01*
X434954Y717954D01*
X434954Y714605D01*
X439046Y725395D02*
G74*
D01*
G02X442395Y722046I2045J5394*
G01*
X439046Y722046D01*
X439046Y725395D01*
X513605Y620046D02*
G74*
D01*
G02X516954Y623395I5394J2045*
G01*
X516954Y620046D01*
X513605Y620046D01*
X516954Y629605D02*
G74*
D01*
G02X513605Y632954I2045J5394*
G01*
X516954Y632954D01*
X516954Y629605D01*
X500605Y630046D02*
G74*
D01*
G02X503954Y633395I5394J2045*
G01*
X503954Y630046D01*
X500605Y630046D01*
X508046Y633395D02*
G74*
D01*
G02X511395Y630046I2045J5394*
G01*
X508046Y630046D01*
X508046Y633395D01*
X511395Y625954D02*
G74*
D01*
G02X508046Y622605I5394J2045*
G01*
X508046Y625954D01*
X511395Y625954D01*
X503954Y622605D02*
G74*
D01*
G02X500605Y625954I2045J5394*
G01*
X503954Y625954D01*
X503954Y622605D01*
X504500Y628000D02*
G75*
D01*
G02X504500Y628000I1500J0*
G01*
X513605Y637046D02*
G74*
D01*
G02X516954Y640395I5394J2045*
G01*
X516954Y637046D01*
X513605Y637046D01*
X517500Y635000D02*
G75*
D01*
G02X517500Y635000I1500J0*
G01*
X490395Y632954D02*
G74*
D01*
G02X487046Y629605I5394J2045*
G01*
X487046Y632954D01*
X490395Y632954D01*
X483500Y635000D02*
G75*
D01*
G02X483500Y635000I1500J0*
G01*
X487046Y640395D02*
G74*
D01*
G02X490395Y637046I2045J5394*
G01*
X487046Y637046D01*
X487046Y640395D01*
X475395Y632954D02*
G74*
D01*
G02X472046Y629605I5394J2045*
G01*
X472046Y632954D01*
X475395Y632954D01*
X467954Y629605D02*
G74*
D01*
G02X464605Y632954I2045J5394*
G01*
X467954Y632954D01*
X467954Y629605D01*
X468500Y635000D02*
G75*
D01*
G02X468500Y635000I1500J0*
G01*
X464605Y637046D02*
G74*
D01*
G02X467954Y640395I5394J2045*
G01*
X467954Y637046D01*
X464605Y637046D01*
X472046Y640395D02*
G74*
D01*
G02X475395Y637046I2045J5394*
G01*
X472046Y637046D01*
X472046Y640395D01*
X479605Y637046D02*
G74*
D01*
G02X482954Y640395I5394J2045*
G01*
X482954Y637046D01*
X479605Y637046D01*
X482954Y629605D02*
G74*
D01*
G02X479605Y632954I2045J5394*
G01*
X482954Y632954D01*
X482954Y629605D01*
X513605Y606046D02*
G74*
D01*
G02X516954Y609395I5394J2045*
G01*
X516954Y606046D01*
X513605Y606046D01*
X516954Y612605D02*
G74*
D01*
G02X513605Y615954I2045J5394*
G01*
X516954Y615954D01*
X516954Y612605D01*
X517500Y604000D02*
G75*
D01*
G02X517500Y604000I1500J0*
G01*
X517500Y618000D02*
G75*
D01*
G02X517500Y618000I1500J0*
G01*
X505500Y511000D02*
G75*
D01*
G02X505500Y511000I1500J0*
G01*
X504954Y505605D02*
G74*
D01*
G02X501605Y508954I2045J5394*
G01*
X504954Y508954D01*
X504954Y505605D01*
X512395Y508954D02*
G74*
D01*
G02X509046Y505605I5394J2045*
G01*
X509046Y508954D01*
X512395Y508954D01*
X509046Y516395D02*
G74*
D01*
G02X512395Y513046I2045J5394*
G01*
X509046Y513046D01*
X509046Y516395D01*
X501605Y513046D02*
G74*
D01*
G02X504954Y516395I5394J2045*
G01*
X504954Y513046D01*
X501605Y513046D01*
X548954Y539605D02*
G74*
D01*
G02X545605Y542954I2045J5394*
G01*
X548954Y542954D01*
X548954Y539605D01*
X556395Y542954D02*
G74*
D01*
G02X553046Y539605I5394J2045*
G01*
X553046Y542954D01*
X556395Y542954D01*
X549500Y545000D02*
G75*
D01*
G02X549500Y545000I1500J0*
G01*
X553046Y550395D02*
G74*
D01*
G02X556395Y547046I2045J5394*
G01*
X553046Y547046D01*
X553046Y550395D01*
X545605Y547046D02*
G74*
D01*
G02X548954Y550395I5394J2045*
G01*
X548954Y547046D01*
X545605Y547046D01*
X471046Y582395D02*
G74*
D01*
G02X474395Y579046I2045J5394*
G01*
X471046Y579046D01*
X471046Y582395D01*
X463605Y579046D02*
G74*
D01*
G02X466954Y582395I5394J2045*
G01*
X466954Y579046D01*
X463605Y579046D01*
X467500Y577000D02*
G75*
D01*
G02X467500Y577000I1500J0*
G01*
X466954Y571605D02*
G74*
D01*
G02X463605Y574954I2045J5394*
G01*
X466954Y574954D01*
X466954Y571605D01*
X474395Y574954D02*
G74*
D01*
G02X471046Y571605I5394J2045*
G01*
X471046Y574954D01*
X474395Y574954D01*
X516954Y598605D02*
G74*
D01*
G02X513605Y601954I2045J5394*
G01*
X516954Y601954D01*
X516954Y598605D01*
X527500Y592000D02*
G75*
D01*
G02X527500Y592000I1500J0*
G01*
X526954Y586605D02*
G74*
D01*
G02X523605Y589954I2045J5394*
G01*
X526954Y589954D01*
X526954Y586605D01*
X534395Y589954D02*
G74*
D01*
G02X531046Y586605I5394J2045*
G01*
X531046Y589954D01*
X534395Y589954D01*
X547500Y592000D02*
G75*
D01*
G02X547500Y592000I1500J0*
G01*
X546954Y586605D02*
G74*
D01*
G02X543605Y589954I2045J5394*
G01*
X546954Y589954D01*
X546954Y586605D01*
X554395Y589954D02*
G74*
D01*
G02X551046Y586605I5394J2045*
G01*
X551046Y589954D01*
X554395Y589954D01*
X569500Y592000D02*
G75*
D01*
G02X569500Y592000I1500J0*
G01*
X568954Y586605D02*
G74*
D01*
G02X565605Y589954I2045J5394*
G01*
X568954Y589954D01*
X568954Y586605D01*
X576395Y589954D02*
G74*
D01*
G02X573046Y586605I5394J2045*
G01*
X573046Y589954D01*
X576395Y589954D01*
X588500Y592000D02*
G75*
D01*
G02X588500Y592000I1500J0*
G01*
X587954Y586605D02*
G74*
D01*
G02X584605Y589954I2045J5394*
G01*
X587954Y589954D01*
X587954Y586605D01*
X450500Y635000D02*
G75*
D01*
G02X450500Y635000I1500J0*
G01*
X457395Y632954D02*
G74*
D01*
G02X454046Y629605I5394J2045*
G01*
X454046Y632954D01*
X457395Y632954D01*
X446605Y637046D02*
G74*
D01*
G02X449954Y640395I5394J2045*
G01*
X449954Y637046D01*
X446605Y637046D01*
X454046Y640395D02*
G74*
D01*
G02X457395Y637046I2045J5394*
G01*
X454046Y637046D01*
X454046Y640395D01*
X408395Y638954D02*
G74*
D01*
G02X405046Y635605I5394J2045*
G01*
X405046Y638954D01*
X408395Y638954D01*
X405046Y634395D02*
G74*
D01*
G02X408395Y631046I2045J5394*
G01*
X405046Y631046D01*
X405046Y634395D01*
X408395Y626954D02*
G74*
D01*
G02X405046Y623605I5394J2045*
G01*
X405046Y626954D01*
X408395Y626954D01*
X401500Y629000D02*
G75*
D01*
G02X401500Y629000I1500J0*
G01*
X401500Y641000D02*
G75*
D01*
G02X401500Y641000I1500J0*
G01*
X384395Y638954D02*
G74*
D01*
G02X381046Y635605I5394J2045*
G01*
X381046Y638954D01*
X384395Y638954D01*
X381046Y634395D02*
G74*
D01*
G02X384395Y631046I2045J5394*
G01*
X381046Y631046D01*
X381046Y634395D01*
X384395Y626954D02*
G74*
D01*
G02X381046Y623605I5394J2045*
G01*
X381046Y626954D01*
X384395Y626954D01*
X396395Y638954D02*
G74*
D01*
G02X393046Y635605I5394J2045*
G01*
X393046Y638954D01*
X396395Y638954D01*
X388954Y635605D02*
G74*
D01*
G02X385605Y638954I2045J5394*
G01*
X388954Y638954D01*
X388954Y635605D01*
X385605Y631046D02*
G74*
D01*
G02X388954Y634395I5394J2045*
G01*
X388954Y631046D01*
X385605Y631046D01*
X393046Y634395D02*
G74*
D01*
G02X396395Y631046I2045J5394*
G01*
X393046Y631046D01*
X393046Y634395D01*
X396395Y626954D02*
G74*
D01*
G02X393046Y623605I5394J2045*
G01*
X393046Y626954D01*
X396395Y626954D01*
X388954Y623605D02*
G74*
D01*
G02X385605Y626954I2045J5394*
G01*
X388954Y626954D01*
X388954Y623605D01*
X389500Y629000D02*
G75*
D01*
G02X389500Y629000I1500J0*
G01*
X389500Y641000D02*
G75*
D01*
G02X389500Y641000I1500J0*
G01*
X400954Y635605D02*
G74*
D01*
G02X397605Y638954I2045J5394*
G01*
X400954Y638954D01*
X400954Y635605D01*
X397605Y631046D02*
G74*
D01*
G02X400954Y634395I5394J2045*
G01*
X400954Y631046D01*
X397605Y631046D01*
X400954Y623605D02*
G74*
D01*
G02X397605Y626954I2045J5394*
G01*
X400954Y626954D01*
X400954Y623605D01*
X372395Y638954D02*
G74*
D01*
G02X369046Y635605I5394J2045*
G01*
X369046Y638954D01*
X372395Y638954D01*
X364954Y635605D02*
G74*
D01*
G02X361605Y638954I2045J5394*
G01*
X364954Y638954D01*
X364954Y635605D01*
X376954Y635605D02*
G74*
D01*
G02X373605Y638954I2045J5394*
G01*
X376954Y638954D01*
X376954Y635605D01*
X373605Y631046D02*
G74*
D01*
G02X376954Y634395I5394J2045*
G01*
X376954Y631046D01*
X373605Y631046D01*
X376954Y623605D02*
G74*
D01*
G02X373605Y626954I2045J5394*
G01*
X376954Y626954D01*
X376954Y623605D01*
X361605Y631046D02*
G74*
D01*
G02X364954Y634395I5394J2045*
G01*
X364954Y631046D01*
X361605Y631046D01*
X369046Y634395D02*
G74*
D01*
G02X372395Y631046I2045J5394*
G01*
X369046Y631046D01*
X369046Y634395D01*
X372395Y626954D02*
G74*
D01*
G02X369046Y623605I5394J2045*
G01*
X369046Y626954D01*
X372395Y626954D01*
X364954Y623605D02*
G74*
D01*
G02X361605Y626954I2045J5394*
G01*
X364954Y626954D01*
X364954Y623605D01*
X365500Y629000D02*
G75*
D01*
G02X365500Y629000I1500J0*
G01*
X365500Y641000D02*
G75*
D01*
G02X365500Y641000I1500J0*
G01*
X377500Y641000D02*
G75*
D01*
G02X377500Y641000I1500J0*
G01*
X377500Y629000D02*
G75*
D01*
G02X377500Y629000I1500J0*
G01*
X408395Y614954D02*
G74*
D01*
G02X405046Y611605I5394J2045*
G01*
X405046Y614954D01*
X408395Y614954D01*
X401500Y617000D02*
G75*
D01*
G02X401500Y617000I1500J0*
G01*
X405046Y622395D02*
G74*
D01*
G02X408395Y619046I2045J5394*
G01*
X405046Y619046D01*
X405046Y622395D01*
X384395Y614954D02*
G74*
D01*
G02X381046Y611605I5394J2045*
G01*
X381046Y614954D01*
X384395Y614954D01*
X396395Y614954D02*
G74*
D01*
G02X393046Y611605I5394J2045*
G01*
X393046Y614954D01*
X396395Y614954D01*
X388954Y611605D02*
G74*
D01*
G02X385605Y614954I2045J5394*
G01*
X388954Y614954D01*
X388954Y611605D01*
X389500Y617000D02*
G75*
D01*
G02X389500Y617000I1500J0*
G01*
X381046Y622395D02*
G74*
D01*
G02X384395Y619046I2045J5394*
G01*
X381046Y619046D01*
X381046Y622395D01*
X385605Y619046D02*
G74*
D01*
G02X388954Y622395I5394J2045*
G01*
X388954Y619046D01*
X385605Y619046D01*
X393046Y622395D02*
G74*
D01*
G02X396395Y619046I2045J5394*
G01*
X393046Y619046D01*
X393046Y622395D01*
X397605Y619046D02*
G74*
D01*
G02X400954Y622395I5394J2045*
G01*
X400954Y619046D01*
X397605Y619046D01*
X400954Y611605D02*
G74*
D01*
G02X397605Y614954I2045J5394*
G01*
X400954Y614954D01*
X400954Y611605D01*
X372395Y614954D02*
G74*
D01*
G02X369046Y611605I5394J2045*
G01*
X369046Y614954D01*
X372395Y614954D01*
X364954Y611605D02*
G74*
D01*
G02X361605Y614954I2045J5394*
G01*
X364954Y614954D01*
X364954Y611605D01*
X365500Y617000D02*
G75*
D01*
G02X365500Y617000I1500J0*
G01*
X376954Y611605D02*
G74*
D01*
G02X373605Y614954I2045J5394*
G01*
X376954Y614954D01*
X376954Y611605D01*
X361605Y619046D02*
G74*
D01*
G02X364954Y622395I5394J2045*
G01*
X364954Y619046D01*
X361605Y619046D01*
X369046Y622395D02*
G74*
D01*
G02X372395Y619046I2045J5394*
G01*
X369046Y619046D01*
X369046Y622395D01*
X373605Y619046D02*
G74*
D01*
G02X376954Y622395I5394J2045*
G01*
X376954Y619046D01*
X373605Y619046D01*
X377500Y617000D02*
G75*
D01*
G02X377500Y617000I1500J0*
G01*
X344046Y603395D02*
G74*
D01*
G02X347395Y600046I2045J5394*
G01*
X344046Y600046D01*
X344046Y603395D01*
X285605Y607046D02*
G74*
D01*
G02X288954Y610395I5394J2045*
G01*
X288954Y607046D01*
X285605Y607046D01*
X293046Y610395D02*
G74*
D01*
G02X296395Y607046I2045J5394*
G01*
X293046Y607046D01*
X293046Y610395D01*
X289500Y605000D02*
G75*
D01*
G02X289500Y605000I1500J0*
G01*
X261933Y613327D02*
G75*
D01*
G02X261106Y605576I3816J-4327*
G01*
G74*
D01*
G02X258970Y606570I294J3423*
G01*
X244570Y620970D01*
G74*
D01*
G02X243564Y623365I2430J2429*
G01*
G75*
D01*
G02X251208Y624052I3436J4634*
G01*
X261933Y613327D01*
X445395Y594954D02*
G74*
D01*
G02X442046Y591605I5394J2045*
G01*
X442046Y594954D01*
X445395Y594954D01*
X442046Y602395D02*
G74*
D01*
G02X445395Y599046I2045J5394*
G01*
X442046Y599046D01*
X442046Y602395D01*
X437954Y591605D02*
G74*
D01*
G02X434605Y594954I2045J5394*
G01*
X437954Y594954D01*
X437954Y591605D01*
X434605Y599046D02*
G74*
D01*
G02X437954Y602395I5394J2045*
G01*
X437954Y599046D01*
X434605Y599046D01*
X438500Y597000D02*
G75*
D01*
G02X438500Y597000I1500J0*
G01*
X347395Y595954D02*
G74*
D01*
G02X344046Y592605I5394J2045*
G01*
X344046Y595954D01*
X347395Y595954D01*
X340500Y598000D02*
G75*
D01*
G02X340500Y598000I1500J0*
G01*
X351605Y595046D02*
G74*
D01*
G02X354954Y598395I5394J2045*
G01*
X354954Y595046D01*
X351605Y595046D01*
X354954Y587605D02*
G74*
D01*
G02X351605Y590954I2045J5394*
G01*
X354954Y590954D01*
X354954Y587605D01*
X355500Y593000D02*
G75*
D01*
G02X355500Y593000I1500J0*
G01*
X359046Y598395D02*
G74*
D01*
G02X362395Y595046I2045J5394*
G01*
X359046Y595046D01*
X359046Y598395D01*
X362395Y590954D02*
G74*
D01*
G02X359046Y587605I5394J2045*
G01*
X359046Y590954D01*
X362395Y590954D01*
X301146Y587195D02*
G74*
D01*
G02X304495Y583846I2045J5394*
G01*
X301146Y583846D01*
X301146Y587195D01*
X293705Y583846D02*
G74*
D01*
G02X297054Y587195I5394J2045*
G01*
X297054Y583846D01*
X293705Y583846D01*
X297600Y581800D02*
G75*
D01*
G02X297600Y581800I1500J0*
G01*
X296395Y602954D02*
G74*
D01*
G02X293046Y599605I5394J2045*
G01*
X293046Y602954D01*
X296395Y602954D01*
X288954Y599605D02*
G74*
D01*
G02X285605Y602954I2045J5394*
G01*
X288954Y602954D01*
X288954Y599605D01*
X304495Y579754D02*
G74*
D01*
G02X301146Y576405I5394J2045*
G01*
X301146Y579754D01*
X304495Y579754D01*
X284046Y565395D02*
G74*
D01*
G02X287395Y562046I2045J5394*
G01*
X284046Y562046D01*
X284046Y565395D01*
X297054Y576405D02*
G74*
D01*
G02X293705Y579754I2045J5394*
G01*
X297054Y579754D01*
X297054Y576405D01*
X276605Y562046D02*
G74*
D01*
G02X279954Y565395I5394J2045*
G01*
X279954Y562046D01*
X276605Y562046D01*
X457395Y553954D02*
G74*
D01*
G02X454046Y550605I5394J2045*
G01*
X454046Y553954D01*
X457395Y553954D01*
X454046Y561395D02*
G74*
D01*
G02X457395Y558046I2045J5394*
G01*
X454046Y558046D01*
X454046Y561395D01*
X280500Y560000D02*
G75*
D01*
G02X280500Y560000I1500J0*
G01*
X228444Y571000D02*
G75*
D01*
G02X228444Y571000I13556J0*
G01*
X287315Y550463D02*
X273105Y550463D01*
G75*
D01*
G02X272702Y550487I2J3437*
G01*
G75*
D01*
G02X276613Y557337I-1701J5513*
G01*
X276882Y557337D01*
G74*
D01*
G02X276605Y557954I5115J2667*
G01*
X279954Y557954D01*
X279954Y557337D01*
X284046Y557337D01*
X284046Y557954D01*
X287395Y557954D01*
G74*
D01*
G02X287118Y557337I5392J2050*
G01*
X287315Y557337D01*
G75*
D01*
G02X287315Y550463I4635J-3437*
G01*
X396586Y521922D02*
X400508Y518000D01*
X396586Y514078D01*
G75*
D01*
G02X396586Y521922I8713J3922*
G01*
X402300Y518000D02*
G75*
D01*
G02X402300Y518000I3000J0*
G01*
X409222Y509286D02*
G75*
D01*
G02X401378Y509286I-3922J8713*
G01*
X405300Y513208D01*
X409222Y509286D01*
X400954Y525605D02*
G74*
D01*
G02X397605Y528954I2045J5394*
G01*
X400954Y528954D01*
X400954Y525605D01*
X397605Y533046D02*
G74*
D01*
G02X400954Y536395I5394J2045*
G01*
X400954Y533046D01*
X397605Y533046D01*
X401500Y531000D02*
G75*
D01*
G02X401500Y531000I1500J0*
G01*
X405046Y527553D02*
X405046Y528954D01*
X408395Y528954D01*
G74*
D01*
G02X407439Y527314I5394J2046*
G01*
G74*
D01*
G02X409222Y526714I2141J9313*
G01*
X405300Y522792D01*
X401378Y526714D01*
G74*
D01*
G02X405046Y527553I3923J8713*
G01*
X405046Y536395D02*
G74*
D01*
G02X408395Y533046I2045J5394*
G01*
X405046Y533046D01*
X405046Y536395D01*
X439355Y530546D02*
G74*
D01*
G02X442704Y533895I5394J2045*
G01*
X442704Y530546D01*
X439355Y530546D01*
X443250Y528500D02*
G75*
D01*
G02X443250Y528500I1500J0*
G01*
X450145Y526454D02*
G74*
D01*
G02X446796Y523105I5394J2045*
G01*
X446796Y526454D01*
X450145Y526454D01*
X446796Y533895D02*
G74*
D01*
G02X450145Y530546I2045J5394*
G01*
X446796Y530546D01*
X446796Y533895D01*
X446605Y558046D02*
G74*
D01*
G02X449954Y561395I5394J2045*
G01*
X449954Y558046D01*
X446605Y558046D01*
X450500Y556000D02*
G75*
D01*
G02X450500Y556000I1500J0*
G01*
X449954Y550605D02*
G74*
D01*
G02X446605Y553954I2045J5394*
G01*
X449954Y553954D01*
X449954Y550605D01*
X272910Y509841D02*
G75*
D01*
G02X286090Y509841I6590J-14640*
G01*
X279500Y503252D01*
X272910Y509841D01*
X380046Y496395D02*
G74*
D01*
G02X383395Y493046I2045J5394*
G01*
X380046Y493046D01*
X380046Y496395D01*
X383395Y488954D02*
G74*
D01*
G02X380046Y485605I5394J2045*
G01*
X380046Y488954D01*
X383395Y488954D01*
X372605Y493046D02*
G74*
D01*
G02X375954Y496395I5394J2045*
G01*
X375954Y493046D01*
X372605Y493046D01*
X375954Y485605D02*
G74*
D01*
G02X372605Y488954I2045J5394*
G01*
X375954Y488954D01*
X375954Y485605D01*
X376500Y491000D02*
G75*
D01*
G02X376500Y491000I1500J0*
G01*
X342046Y497395D02*
G74*
D01*
G02X345395Y494046I2045J5394*
G01*
X342046Y494046D01*
X342046Y497395D01*
X345395Y489954D02*
G74*
D01*
G02X342046Y486605I5394J2045*
G01*
X342046Y489954D01*
X345395Y489954D01*
X347605Y494046D02*
G74*
D01*
G02X350954Y497395I5394J2045*
G01*
X350954Y494046D01*
X347605Y494046D01*
X355046Y497395D02*
G74*
D01*
G02X358395Y494046I2045J5394*
G01*
X355046Y494046D01*
X355046Y497395D01*
X358395Y489954D02*
G74*
D01*
G02X355046Y486605I5394J2045*
G01*
X355046Y489954D01*
X358395Y489954D01*
X350954Y486605D02*
G74*
D01*
G02X347605Y489954I2045J5394*
G01*
X350954Y489954D01*
X350954Y486605D01*
X351500Y492000D02*
G75*
D01*
G02X351500Y492000I1500J0*
G01*
X334605Y494046D02*
G74*
D01*
G02X337954Y497395I5394J2045*
G01*
X337954Y494046D01*
X334605Y494046D01*
X337954Y486605D02*
G74*
D01*
G02X334605Y489954I2045J5394*
G01*
X337954Y489954D01*
X337954Y486605D01*
X338500Y492000D02*
G75*
D01*
G02X338500Y492000I1500J0*
G01*
X294141Y501790D02*
G75*
D01*
G02X294141Y488610I-14640J-6590*
G01*
X287552Y495200D01*
X294141Y501790D01*
X264859Y501790D02*
X271448Y495200D01*
X264859Y488610D01*
G75*
D01*
G02X264859Y501790I14640J6590*
G01*
X275000Y495200D02*
G75*
D01*
G02X275000Y495200I4500J0*
G01*
X426605Y476046D02*
G74*
D01*
G02X429954Y479395I5394J2045*
G01*
X429954Y476046D01*
X426605Y476046D01*
X434046Y479395D02*
G74*
D01*
G02X437395Y476046I2045J5394*
G01*
X434046Y476046D01*
X434046Y479395D01*
X437395Y471954D02*
G74*
D01*
G02X434046Y468605I5394J2045*
G01*
X434046Y471954D01*
X437395Y471954D01*
X429954Y468605D02*
G74*
D01*
G02X426605Y471954I2045J5394*
G01*
X429954Y471954D01*
X429954Y468605D01*
X430500Y474000D02*
G75*
D01*
G02X430500Y474000I1500J0*
G01*
X286090Y480559D02*
G75*
D01*
G02X272910Y480559I-6590J14640*
G01*
X279500Y487148D01*
X286090Y480559D01*
X449954Y629605D02*
G74*
D01*
G02X446605Y632954I2045J5394*
G01*
X449954Y632954D01*
X449954Y629605D01*
X522430Y639640D02*
X522430Y659360D01*
G74*
D01*
G02X521046Y658605I3429J4640*
G01*
X521046Y661954D01*
X522430Y661954D01*
X522430Y666046D01*
X521046Y666046D01*
X521046Y669395D01*
G74*
D01*
G02X522430Y668640I2045J5394*
G01*
X522430Y673360D01*
G74*
D01*
G02X521046Y672605I3429J4640*
G01*
X521046Y675954D01*
X522430Y675954D01*
X522430Y680046D01*
X521046Y680046D01*
X521046Y683395D01*
G74*
D01*
G02X522430Y682640I2045J5394*
G01*
X522430Y689360D01*
G74*
D01*
G02X521046Y688605I3429J4640*
G01*
X521046Y691954D01*
X522430Y691954D01*
X522430Y696046D01*
X521046Y696046D01*
X521046Y699395D01*
G74*
D01*
G02X522430Y698640I2045J5394*
G01*
X522430Y700126D01*
X523174Y700870D01*
X524153Y700870D01*
G74*
D01*
G02X523605Y701954I4846J3130*
G01*
X526954Y701954D01*
X526954Y700870D01*
X531046Y700870D01*
X531046Y701954D01*
X534395Y701954D01*
G74*
D01*
G02X533847Y700870I5394J2046*
G01*
X542153Y700870D01*
G74*
D01*
G02X541605Y701954I4846J3130*
G01*
X544954Y701954D01*
X544954Y700870D01*
X549046Y700870D01*
X549046Y701954D01*
X552395Y701954D01*
G74*
D01*
G02X551847Y700870I5394J2046*
G01*
X558909Y700870D01*
G74*
D01*
G03X485644Y760018I148158J108570*
G01*
G75*
D01*
G02X460269Y769180I-19944J-15516*
G01*
G75*
D01*
G03X334439Y425222I-49526J-176877*
G01*
G75*
D01*
G02X358179Y416303I19961J17077*
G01*
G75*
D01*
G03X594386Y588251I52572J175996*
G01*
G74*
D01*
G02X592046Y586605I4385J3748*
G01*
X592046Y589954D01*
X594416Y589954D01*
G75*
D01*
G03X594422Y594046I-183665J2315*
G01*
X592046Y594046D01*
X592046Y595930D01*
X587954Y595930D01*
X587954Y594046D01*
X584605Y594046D01*
G74*
D01*
G02X585775Y595930I5394J2045*
G01*
X575225Y595930D01*
G74*
D01*
G02X576395Y594046I4225J3929*
G01*
X573046Y594046D01*
X573046Y595930D01*
X568954Y595930D01*
X568954Y594046D01*
X565605Y594046D01*
G74*
D01*
G02X566775Y595930I5394J2045*
G01*
X553225Y595930D01*
G74*
D01*
G02X554395Y594046I4225J3929*
G01*
X551046Y594046D01*
X551046Y595930D01*
X546954Y595930D01*
X546954Y594046D01*
X543605Y594046D01*
G74*
D01*
G02X544775Y595930I5394J2045*
G01*
X533225Y595930D01*
G74*
D01*
G02X534395Y594046I4225J3929*
G01*
X531046Y594046D01*
X531046Y595930D01*
X526954Y595930D01*
X526954Y594046D01*
X523605Y594046D01*
G74*
D01*
G02X524775Y595930I5394J2045*
G01*
X523174Y595930D01*
X522430Y596674D01*
X522430Y599360D01*
G74*
D01*
G02X521046Y598605I3429J4640*
G01*
X521046Y601954D01*
X522430Y601954D01*
X522430Y606046D01*
X521046Y606046D01*
X521046Y609395D01*
G74*
D01*
G02X522430Y608640I2045J5394*
G01*
X522430Y613360D01*
G74*
D01*
G02X521046Y612605I3429J4640*
G01*
X521046Y615954D01*
X522430Y615954D01*
X522430Y620046D01*
X521046Y620046D01*
X521046Y623395D01*
G74*
D01*
G02X522430Y622640I2045J5394*
G01*
X522430Y630360D01*
G74*
D01*
G02X521046Y629605I3429J4640*
G01*
X521046Y632954D01*
X522430Y632954D01*
X522430Y637046D01*
X521046Y637046D01*
X521046Y640395D01*
G74*
D01*
G02X522430Y639640I2045J5394*
G01*
X376635Y579437D02*
G74*
D01*
G03X375611Y580500I4633J3439*
G01*
G74*
D01*
G03X376635Y581563I3609J4501*
G01*
X399053Y581563D01*
X396927Y579437D01*
X376635Y579437D01*
G54D12*
X325000Y694000D02*
X332500Y701500D01*
X389000Y701500D02*
X412900Y677600D01*
X332500Y701500D02*
X389000Y701500D01*
X412900Y677600D02*
X412900Y672850D01*
X247000Y623400D02*
X247000Y628000D01*
X261400Y609000D02*
X263819Y609000D01*
X247000Y623400D02*
X261400Y609000D01*
X398350Y576000D02*
X373200Y576000D01*
X407200Y584850D02*
X398350Y576000D01*
X373200Y576000D02*
X372700Y576500D01*
X407500Y590000D02*
X402500Y585000D01*
X371800Y585000D01*
X412708Y593958D02*
X412708Y587925D01*
X409633Y584850D01*
X416000Y597250D02*
X412708Y593958D01*
X409633Y584850D02*
X407200Y584850D01*
X305800Y637800D02*
X325250Y637800D01*
X305800Y637800D02*
X298800Y630800D01*
X292941Y630800D01*
X450100Y512900D02*
X454950Y512900D01*
X395000Y568000D02*
X450100Y512900D01*
X336000Y667000D02*
X336100Y666900D01*
X327000Y612800D02*
X327000Y534600D01*
X336100Y666900D02*
X336100Y627900D01*
X339000Y624800D02*
X327000Y612800D01*
X336100Y627900D02*
X339000Y625000D01*
X277000Y539000D02*
X288150Y527850D01*
X329133Y527850D01*
X333250Y531967D02*
X333250Y595081D01*
X329133Y527850D02*
X333250Y531967D01*
X333250Y595081D02*
X332531Y595800D01*
X421700Y518000D02*
X431850Y507850D01*
X458133Y507850D01*
X461150Y510867D01*
X461150Y526250D01*
X465900Y531000D01*
X271000Y556000D02*
X273100Y553900D01*
X291950Y553900D01*
G54D13*
X221485Y403035D02*
X221485Y440888D01*
X221485Y403035D02*
X259338Y403035D01*
X600015Y403035D02*
X562162Y403035D01*
X600015Y403035D02*
X600015Y440888D01*
X600015Y781565D02*
X600015Y743712D01*
X600015Y781565D02*
X562162Y781565D01*
X221485Y781565D02*
X259338Y781565D01*
X221485Y781565D02*
X221485Y743712D01*
X171485Y403035D02*
X71485Y403035D01*
X121485Y353035D02*
X121485Y453035D01*
X83985Y403035D02*
G75*
D01*
G02X83985Y403035I37500J0*
G01*
X650015Y403035D02*
X750015Y403035D01*
X700015Y353035D02*
X700015Y453035D01*
X662515Y403035D02*
G75*
D01*
G02X662515Y403035I37500J0*
G01*
X687515Y403035D02*
G75*
D01*
G02X687515Y403035I12500J0*
G01*
X171485Y781565D02*
X71485Y781565D01*
X121485Y731565D02*
X121485Y831565D01*
X83985Y781565D02*
G75*
D01*
G02X83985Y781565I37500J0*
G01*
X96485Y781565D02*
G75*
D01*
G02X96485Y781565I25000J0*
G01*
X108985Y781565D02*
G75*
D01*
G02X108985Y781565I12500J0*
G01*
X221485Y403035D02*
X221485Y440888D01*
X221485Y403035D02*
X259338Y403035D01*
X600015Y403035D02*
X562162Y403035D01*
X600015Y403035D02*
X600015Y440888D01*
X600015Y781565D02*
X600015Y743712D01*
X600015Y781565D02*
X562162Y781565D01*
X221485Y781565D02*
X259338Y781565D01*
X221485Y781565D02*
X221485Y743712D01*
X171485Y403035D02*
X71485Y403035D01*
X121485Y353035D02*
X121485Y453035D01*
X83985Y403035D02*
G75*
D01*
G02X83985Y403035I37500J0*
G01*
X650015Y403035D02*
X750015Y403035D01*
X700015Y353035D02*
X700015Y453035D01*
X662515Y403035D02*
G75*
D01*
G02X662515Y403035I37500J0*
G01*
X687515Y403035D02*
G75*
D01*
G02X687515Y403035I12500J0*
G01*
X171485Y781565D02*
X71485Y781565D01*
X121485Y731565D02*
X121485Y831565D01*
X83985Y781565D02*
G75*
D01*
G02X83985Y781565I37500J0*
G01*
X96485Y781565D02*
G75*
D01*
G02X96485Y781565I25000J0*
G01*
X108985Y781565D02*
G75*
D01*
G02X108985Y781565I12500J0*
G01*
G54D14*
X224255Y592300D02*
G75*
D01*
G02X224255Y592300I186495J0*
G01*
G54D15*
X327000Y533000D03*
X444750Y528500D03*
X372000Y576000D03*
X357000Y593000D03*
X372000Y585000D03*
X416000Y597250D03*
X407500Y590000D03*
X440000Y597000D03*
X265750Y609000D03*
X291000Y605000D03*
X247000Y628000D03*
X292941Y630800D03*
X339000Y624800D03*
X325000Y638000D03*
X336000Y667000D03*
X412900Y672850D03*
X325000Y694000D03*
X345000Y694000D03*
X383000Y696000D03*
X426000Y694000D03*
X390000Y721000D03*
X437000Y720000D03*
X313000Y735000D03*
X367000Y735000D03*
X529000Y592000D03*
X549000Y592000D03*
X571000Y592000D03*
X590000Y592000D03*
X519000Y618000D03*
X519000Y604000D03*
X519000Y664000D03*
X519000Y694000D03*
X519000Y678000D03*
X529000Y704000D03*
X547000Y704000D03*
X551000Y545000D03*
X283000Y650000D03*
X282000Y689000D03*
X506000Y659000D03*
X470000Y659000D03*
X436000Y657000D03*
X452000Y635000D03*
X470000Y635000D03*
X485000Y635000D03*
X519000Y635000D03*
X506000Y628000D03*
X485000Y659000D03*
X335000Y677000D03*
X469000Y577000D03*
X403000Y531000D03*
X340000Y492000D03*
X378000Y491000D03*
X353000Y492000D03*
X507000Y511000D03*
X432000Y474000D03*
X452000Y556000D03*
X395000Y568000D03*
X456000Y513000D03*
X277000Y539000D03*
X342000Y598000D03*
X332800Y597000D03*
X465900Y531000D03*
X271000Y556000D03*
X291950Y553900D03*
X282000Y560000D03*
X452000Y659000D03*
X299100Y581800D03*
X379000Y653000D03*
X391000Y653000D03*
X367000Y653000D03*
X403000Y653000D03*
X367000Y641000D03*
X379000Y641000D03*
X391000Y641000D03*
X403000Y641000D03*
X367000Y629000D03*
X379000Y629000D03*
X391000Y629000D03*
X403000Y629000D03*
X367000Y617000D03*
X379000Y617000D03*
X391000Y617000D03*
X403000Y617000D03*
G54D16*
X255200Y538700D03*
X279500Y495200D03*
G54D17*
X242000Y571000D03*
G54D18*
X405300Y518000D03*
X421700Y518000D03*

M02*
