G04 Generated by Ultiboard 13.0 *
%FSLAX34Y34*%
%MOMM*%

%ADD10C,0.0001*%
%ADD11C,0.1500*%
%ADD12C,0.0010*%
%ADD13C,0.6000*%
%ADD14C,2.5000*%
%ADD15C,2.0000*%
%ADD16C,1.2000*%


G04 ColorRGB 9900CC for the following layer *
%LNSolder Mask Bottom*%
%LPD*%
G54D10*
G54D11*
X221485Y403035D02*
X221485Y440888D01*
X221485Y403035D02*
X259338Y403035D01*
X600015Y403035D02*
X562162Y403035D01*
X600015Y403035D02*
X600015Y440888D01*
X600015Y781565D02*
X600015Y743712D01*
X600015Y781565D02*
X562162Y781565D01*
X221485Y781565D02*
X259338Y781565D01*
X221485Y781565D02*
X221485Y743712D01*
X171485Y403035D02*
X71485Y403035D01*
X121485Y353035D02*
X121485Y453035D01*
X83985Y403035D02*
G75*
D01*
G02X83985Y403035I37500J0*
G01*
X650015Y403035D02*
X750015Y403035D01*
X700015Y353035D02*
X700015Y453035D01*
X662515Y403035D02*
G75*
D01*
G02X662515Y403035I37500J0*
G01*
X687515Y403035D02*
G75*
D01*
G02X687515Y403035I12500J0*
G01*
X171485Y781565D02*
X71485Y781565D01*
X121485Y731565D02*
X121485Y831565D01*
X83985Y781565D02*
G75*
D01*
G02X83985Y781565I37500J0*
G01*
X96485Y781565D02*
G75*
D01*
G02X96485Y781565I25000J0*
G01*
X108985Y781565D02*
G75*
D01*
G02X108985Y781565I12500J0*
G01*
X221485Y403035D02*
X221485Y440888D01*
X221485Y403035D02*
X259338Y403035D01*
X600015Y403035D02*
X562162Y403035D01*
X600015Y403035D02*
X600015Y440888D01*
X600015Y781565D02*
X600015Y743712D01*
X600015Y781565D02*
X562162Y781565D01*
X221485Y781565D02*
X259338Y781565D01*
X221485Y781565D02*
X221485Y743712D01*
X171485Y403035D02*
X71485Y403035D01*
X121485Y353035D02*
X121485Y453035D01*
X83985Y403035D02*
G75*
D01*
G02X83985Y403035I37500J0*
G01*
X650015Y403035D02*
X750015Y403035D01*
X700015Y353035D02*
X700015Y453035D01*
X662515Y403035D02*
G75*
D01*
G02X662515Y403035I37500J0*
G01*
X687515Y403035D02*
G75*
D01*
G02X687515Y403035I12500J0*
G01*
X171485Y781565D02*
X71485Y781565D01*
X121485Y731565D02*
X121485Y831565D01*
X83985Y781565D02*
G75*
D01*
G02X83985Y781565I37500J0*
G01*
X96485Y781565D02*
G75*
D01*
G02X96485Y781565I25000J0*
G01*
X108985Y781565D02*
G75*
D01*
G02X108985Y781565I12500J0*
G01*
G54D12*
X224255Y592300D02*
G75*
D01*
G02X224255Y592300I186495J0*
G01*
G54D13*
X327000Y533000D03*
X444750Y528500D03*
X372000Y576000D03*
X357000Y593000D03*
X372000Y585000D03*
X416000Y597250D03*
X407500Y590000D03*
X440000Y597000D03*
X265750Y609000D03*
X291000Y605000D03*
X247000Y628000D03*
X292941Y630800D03*
X339000Y624800D03*
X325000Y638000D03*
X336000Y667000D03*
X412900Y672850D03*
X325000Y694000D03*
X345000Y694000D03*
X383000Y696000D03*
X426000Y694000D03*
X390000Y721000D03*
X437000Y720000D03*
X313000Y735000D03*
X367000Y735000D03*
X529000Y592000D03*
X549000Y592000D03*
X571000Y592000D03*
X590000Y592000D03*
X519000Y618000D03*
X519000Y604000D03*
X519000Y664000D03*
X519000Y694000D03*
X519000Y678000D03*
X529000Y704000D03*
X547000Y704000D03*
X551000Y545000D03*
X283000Y650000D03*
X282000Y689000D03*
X506000Y659000D03*
X470000Y659000D03*
X436000Y657000D03*
X452000Y635000D03*
X470000Y635000D03*
X485000Y635000D03*
X519000Y635000D03*
X506000Y628000D03*
X485000Y659000D03*
X335000Y677000D03*
X469000Y577000D03*
X403000Y531000D03*
X340000Y492000D03*
X378000Y491000D03*
X353000Y492000D03*
X507000Y511000D03*
X432000Y474000D03*
X452000Y556000D03*
X395000Y568000D03*
X456000Y513000D03*
X277000Y539000D03*
X342000Y598000D03*
X332800Y597000D03*
X465900Y531000D03*
X271000Y556000D03*
X291950Y553900D03*
X282000Y560000D03*
X452000Y659000D03*
X299100Y581800D03*
X379000Y653000D03*
X391000Y653000D03*
X367000Y653000D03*
X403000Y653000D03*
X367000Y641000D03*
X379000Y641000D03*
X391000Y641000D03*
X403000Y641000D03*
X367000Y629000D03*
X379000Y629000D03*
X391000Y629000D03*
X403000Y629000D03*
X367000Y617000D03*
X379000Y617000D03*
X391000Y617000D03*
X403000Y617000D03*
G54D14*
X255200Y538700D03*
X279500Y495200D03*
G54D15*
X242000Y571000D03*
G54D16*
X405300Y518000D03*
X421700Y518000D03*

M02*
