G04 Generated by Ultiboard 13.0 *
%FSLAX34Y34*%
%MOMM*%

%ADD10C,0.0001*%
%ADD11C,0.0010*%
%ADD12C,0.1500*%


G04 ColorRGB 00FFFF for the following layer *
%LNBoard Outline*%
%LPD*%
G54D10*
G54D11*
X224255Y592300D02*
G75*
D01*
G02X224255Y592300I186495J0*
G01*
X224255Y592300D02*
G75*
D01*
G02X224255Y592300I186495J0*
G01*
G54D12*
X221485Y403035D02*
X221485Y440888D01*
X221485Y403035D02*
X259338Y403035D01*
X600015Y403035D02*
X562162Y403035D01*
X600015Y403035D02*
X600015Y440888D01*
X600015Y781565D02*
X600015Y743712D01*
X600015Y781565D02*
X562162Y781565D01*
X221485Y781565D02*
X259338Y781565D01*
X221485Y781565D02*
X221485Y743712D01*
X171485Y403035D02*
X71485Y403035D01*
X121485Y353035D02*
X121485Y453035D01*
X83985Y403035D02*
G75*
D01*
G02X83985Y403035I37500J0*
G01*
X650015Y403035D02*
X750015Y403035D01*
X700015Y353035D02*
X700015Y453035D01*
X662515Y403035D02*
G75*
D01*
G02X662515Y403035I37500J0*
G01*
X687515Y403035D02*
G75*
D01*
G02X687515Y403035I12500J0*
G01*
X171485Y781565D02*
X71485Y781565D01*
X121485Y731565D02*
X121485Y831565D01*
X83985Y781565D02*
G75*
D01*
G02X83985Y781565I37500J0*
G01*
X96485Y781565D02*
G75*
D01*
G02X96485Y781565I25000J0*
G01*
X108985Y781565D02*
G75*
D01*
G02X108985Y781565I12500J0*
G01*
X221485Y403035D02*
X221485Y440888D01*
X221485Y403035D02*
X259338Y403035D01*
X600015Y403035D02*
X562162Y403035D01*
X600015Y403035D02*
X600015Y440888D01*
X600015Y781565D02*
X600015Y743712D01*
X600015Y781565D02*
X562162Y781565D01*
X221485Y781565D02*
X259338Y781565D01*
X221485Y781565D02*
X221485Y743712D01*
X171485Y403035D02*
X71485Y403035D01*
X121485Y353035D02*
X121485Y453035D01*
X83985Y403035D02*
G75*
D01*
G02X83985Y403035I37500J0*
G01*
X650015Y403035D02*
X750015Y403035D01*
X700015Y353035D02*
X700015Y453035D01*
X662515Y403035D02*
G75*
D01*
G02X662515Y403035I37500J0*
G01*
X687515Y403035D02*
G75*
D01*
G02X687515Y403035I12500J0*
G01*
X171485Y781565D02*
X71485Y781565D01*
X121485Y731565D02*
X121485Y831565D01*
X83985Y781565D02*
G75*
D01*
G02X83985Y781565I37500J0*
G01*
X96485Y781565D02*
G75*
D01*
G02X96485Y781565I25000J0*
G01*
X108985Y781565D02*
G75*
D01*
G02X108985Y781565I12500J0*
G01*

M02*
